<svg xmlns="http://www.w3.org/2000/svg" xmlns:svg="http://www.w3.org/2000/svg" id="svg2" width="100%" height="100%" version="1.1" viewBox="0 -410 2048 2048"><metadata id="metadata12"/><g id="g4" transform="matrix(1 0 0 -1 0 1638)"><path id="path6" fill="#000" d="M665 442h718q50 0 50 -50v0q0 -50 -50 -50h-718q-50 0 -50 50v0q0 50 50 50zM905 135h-145.5h-144.5q-34 0 -47.5 52t-34.5 87q111 0 221.5 -0.5t221.5 -1.5q-18 -36 -20.5 -89.5t-50.5 -47.5zM1142 135q-45 -5 -48.5 48t-21.5 89q109 1 220.5 1.5t222.5 0.5 q-21 -35 -35 -87t-48 -52h-144.5h-145.5zM1074 1588l-1 -44q207 -17 350.5 -160t143.5 -338q0 -87 -35 -185q-48 -74 -86 -157t-45 -188h-377.5h-376.5q-11 112 -46 185.5t-84 156.5q-36 93 -36 188q0 195 143.5 338t350.5 160l-1 44q-83 32 -83 93q0 38 38.5 65.5 t92.5 27.5t93 -27.5t39 -65.5q0 -63 -80 -93zM956 688h135l36 310l135 32v136l-135 36l-36 171h-135l-35 -171l-135 -36v-136l135 -32z"/></g><path style="fill:#e6e6e6;fill-opacity:1;stroke:none" id="path2989" d="m 959.25967,1346.3864 c -1.89742,-5.9661 -10.20947,-76.2012 -18.47122,-156.0779 l -15.02137,-145.2306 -68.37321,-14.6926 -68.3732,-14.6927 2.50661,-65.37996 2.50662,-65.37995 66.11209,-17.20321 66.11208,-17.20321 15.67382,-85.42463 15.67382,-85.42463 65.58609,2.50726 65.5862,2.50726 16.9383,83.03629 16.9384,83.03631 65.6557,17.08428 65.6557,17.08428 2.5066,65.37995 2.5066,65.37996 -68.2129,14.6582 -68.2129,14.6582 -15.2738,140.926 c -8.4006,77.5093 -17.1705,147.7599 -19.4887,156.1125 -3.4986,12.6059 -14.4836,15.1864 -64.6481,15.1864 -40.72147,0 -61.55863,-3.5382 -63.88323,-10.8475 z" transform="translate(0,-410)"/></svg>