<svg xmlns="http://www.w3.org/2000/svg" xmlns:svg="http://www.w3.org/2000/svg" xmlns:xlink="http://www.w3.org/1999/xlink" id="svg2722" width="1200" height="400" version="1.0"><defs id="defs2724"><linearGradient id="linearGradientWhitePiecesBorder"><stop style="stop-color:#000;stop-opacity:1" id="stop7935" offset="0"/><stop style="stop-color:#000;stop-opacity:1" id="stop7937" offset="1"/></linearGradient><linearGradient id="linearGradientWhitePieces"><stop id="stop7929" offset="0" style="stop-color:#ede3de;stop-opacity:1"/><stop id="stop7931" offset="1" style="stop-color:#d0b090;stop-opacity:1"/></linearGradient><linearGradient id="linearGradientBlackPiecesBorder"><stop style="stop-color:gray;stop-opacity:1" id="stop7192" offset="0"/><stop style="stop-color:gray;stop-opacity:1" id="stop7194" offset="1"/></linearGradient><linearGradient id="linearGradientBlackPieces"><stop id="stop2268" offset="0" style="stop-color:#000;stop-opacity:1"/><stop id="stop2270" offset="1" style="stop-color:#505070;stop-opacity:1"/></linearGradient><linearGradient id="linearGradient2472" x1="163.113" x2="702.697" y1="776.638" y2="778.811" gradientTransform="scale(0.22857143,0.22857143)" gradientUnits="userSpaceOnUse" xlink:href="#linearGradientBlackPieces"/><linearGradient id="linearGradient2475" x1="150.079" x2="694.007" y1="255.254" y2="740.063" gradientTransform="scale(0.22857143,0.22857143)" gradientUnits="userSpaceOnUse" xlink:href="#linearGradientBlackPieces"/><linearGradient id="linearGradient2483" x1="375.068" x2="535.576" y1="176.416" y2="308.934" gradientTransform="scale(0.22857143,0.22857143)" gradientUnits="userSpaceOnUse" xlink:href="#linearGradientBlackPieces"/><linearGradient id="linearGradient2361" x1="199" x2="661.667" y1="789.833" y2="789.833" gradientTransform="matrix(0.22857143,0,0,0.22857143,200,0)" gradientUnits="userSpaceOnUse" xlink:href="#linearGradientBlackPieces"/><linearGradient id="linearGradient2363" x1="166.781" x2="718.885" y1="239.891" y2="746.557" gradientTransform="matrix(0.22857143,0,0,0.22857143,200,0)" gradientUnits="userSpaceOnUse" xlink:href="#linearGradientBlackPieces"/><linearGradient id="linearGradient2371" x1="285.639" x2="466.667" y1="287.12" y2="587.12" gradientTransform="matrix(0.22857143,0,0,0.22857143,200,0)" gradientUnits="userSpaceOnUse" xlink:href="#linearGradientBlackPieces"/><linearGradient id="linearGradient2413" x1="88.716" x2="772.142" y1="286.248" y2="750.581" gradientTransform="matrix(0.22857143,0,0,0.22857143,400,0)" gradientUnits="userSpaceOnUse" xlink:href="#linearGradientBlackPieces"/><linearGradient id="linearGradient2416" x1="88.716" x2="772.142" y1="286.248" y2="750.581" gradientTransform="matrix(0.22857143,0,0,0.22857143,400,0)" gradientUnits="userSpaceOnUse" xlink:href="#linearGradientBlackPieces"/><linearGradient id="linearGradient2419" x1="88.716" x2="772.142" y1="286.248" y2="750.581" gradientTransform="matrix(0.22857143,0,0,0.22857143,400,0)" gradientUnits="userSpaceOnUse" xlink:href="#linearGradientBlackPieces"/><linearGradient id="linearGradient2422" x1="88.716" x2="772.142" y1="286.248" y2="750.581" gradientTransform="matrix(0.22857143,0,0,0.22857143,400,0)" gradientUnits="userSpaceOnUse" xlink:href="#linearGradientBlackPieces"/><linearGradient id="linearGradient2425" x1="88.716" x2="772.142" y1="286.248" y2="750.581" gradientTransform="matrix(0.22857143,0,0,0.22857143,400,0)" gradientUnits="userSpaceOnUse" xlink:href="#linearGradientBlackPieces"/><linearGradient id="linearGradient2428" x1="88.716" x2="772.142" y1="286.248" y2="750.581" gradientTransform="matrix(0.22857143,0,0,0.22857143,400,0)" gradientUnits="userSpaceOnUse" xlink:href="#linearGradientBlackPieces"/><linearGradient id="linearGradient2275" x1="322.65" x2="501.102" y1="156.502" y2="209.835" gradientTransform="matrix(0.22857143,0,0,0.22857143,600,3.58095)" gradientUnits="userSpaceOnUse" xlink:href="#linearGradientBlackPieces"/><linearGradient id="linearGradient2278" x1="130.983" x2="720.017" y1="444.835" y2="623.168" gradientTransform="matrix(0.22857143,0,0,0.22857143,600,0.91429)" gradientUnits="userSpaceOnUse" xlink:href="#linearGradientBlackPieces"/><linearGradient id="linearGradient2281" x1="130.983" x2="720.017" y1="444.835" y2="623.168" gradientTransform="matrix(0.22857143,0,0,0.22857143,600,0.91429)" gradientUnits="userSpaceOnUse" xlink:href="#linearGradientBlackPieces"/><linearGradient id="linearGradient2284" x1="130.983" x2="720.017" y1="444.835" y2="623.168" gradientTransform="matrix(0.22857143,0,0,0.22857143,598.17143,0.91429)" gradientUnits="userSpaceOnUse" xlink:href="#linearGradientBlackPieces"/><linearGradient id="linearGradient2287" x1="130.983" x2="720.017" y1="444.835" y2="623.168" gradientTransform="matrix(0.22857143,0,0,0.22857143,602.28571,0.91429)" gradientUnits="userSpaceOnUse" xlink:href="#linearGradientBlackPieces"/><linearGradient id="linearGradient2513" x1="163.677" x2="741.164" y1="244.156" y2="814.156" gradientTransform="matrix(0.22857143,0,0,0.22857143,800.45714,2.74286)" gradientUnits="userSpaceOnUse" xlink:href="#linearGradientBlackPieces"/><linearGradient id="linearGradient2232" x1="250.333" x2="671.333" y1="541.667" y2="718.333" gradientUnits="userSpaceOnUse" xlink:href="#linearGradientBlackPieces"/><linearGradient id="linearGradient17655" x1="265.333" x2="644.667" y1="605" y2="605" gradientUnits="userSpaceOnUse" xlink:href="#linearGradientBlackPiecesBorder"/><linearGradient id="linearGradient17657" x1="827.927" x2="974.56" y1="104.443" y2="104.443" gradientUnits="userSpaceOnUse" xlink:href="#linearGradientBlackPiecesBorder"/><linearGradient id="linearGradient17659" x1="681.691" x2="717.966" y1="32.301" y2="32.301" gradientUnits="userSpaceOnUse" xlink:href="#linearGradientBlackPiecesBorder"/><linearGradient id="linearGradient17661" x1="644.227" x2="754.015" y1="93.364" y2="93.364" gradientUnits="userSpaceOnUse" xlink:href="#linearGradientBlackPiecesBorder"/><linearGradient id="linearGradient17663" x1="656.233" x2="737.672" y1="150.817" y2="150.817" gradientUnits="userSpaceOnUse" xlink:href="#linearGradientBlackPiecesBorder"/><linearGradient id="linearGradient17665" x1="699.297" x2="766.556" y1="174.586" y2="174.586" gradientUnits="userSpaceOnUse" xlink:href="#linearGradientBlackPiecesBorder"/><linearGradient id="linearGradient17667" x1="632.225" x2="699.485" y1="174.586" y2="174.586" gradientUnits="userSpaceOnUse" xlink:href="#linearGradientBlackPiecesBorder"/><linearGradient id="linearGradient17669" x1="539.124" x2="564.876" y1="171.962" y2="171.962" gradientUnits="userSpaceOnUse" xlink:href="#linearGradientBlackPiecesBorder"/><linearGradient id="linearGradient17671" x1="435.505" x2="530.971" y1="178.819" y2="178.819" gradientUnits="userSpaceOnUse" xlink:href="#linearGradientBlackPiecesBorder"/><linearGradient id="linearGradient17673" x1="540.648" x2="573.257" y1="59.124" y2="59.124" gradientUnits="userSpaceOnUse" xlink:href="#linearGradientBlackPiecesBorder"/><linearGradient id="linearGradient17675" x1="481.219" x2="518.019" y1="55.886" y2="55.886" gradientUnits="userSpaceOnUse" xlink:href="#linearGradientBlackPiecesBorder"/><linearGradient id="linearGradient17677" x1="426.743" x2="466.21" y1="58.552" y2="58.552" gradientUnits="userSpaceOnUse" xlink:href="#linearGradientBlackPiecesBorder"/><linearGradient id="linearGradient17679" x1="452.267" x2="550.4" y1="125.41" y2="125.41" gradientUnits="userSpaceOnUse" xlink:href="#linearGradientBlackPiecesBorder"/><linearGradient id="linearGradient17681" x1="245.486" x2="351.238" y1="180.533" y2="180.533" gradientUnits="userSpaceOnUse" xlink:href="#linearGradientBlackPiecesBorder"/><linearGradient id="linearGradient17683" x1="218.312" x2="382.983" y1="95.213" y2="95.213" gradientUnits="userSpaceOnUse" xlink:href="#linearGradientBlackPiecesBorder"/><linearGradient id="linearGradient17685" x1="252.337" x2="353.143" y1="96.104" y2="96.104" gradientUnits="userSpaceOnUse" xlink:href="#linearGradientBlackPiecesBorder"/><linearGradient id="linearGradient17687" x1="43.505" x2="156.876" y1="180.952" y2="180.952" gradientUnits="userSpaceOnUse" xlink:href="#linearGradientBlackPiecesBorder"/><linearGradient id="linearGradient17689" x1="19.407" x2="182.465" y1="119.723" y2="119.723" gradientUnits="userSpaceOnUse" xlink:href="#linearGradientBlackPiecesBorder"/><linearGradient id="linearGradient17691" x1="72.323" x2="129.866" y1="53.731" y2="53.731" gradientUnits="userSpaceOnUse" xlink:href="#linearGradientBlackPiecesBorder"/><linearGradient id="linearGradient17743" x1="375.068" x2="535.576" y1="176.416" y2="308.934" gradientTransform="matrix(0.22857143,0,0,0.22857143,0,200)" gradientUnits="userSpaceOnUse" xlink:href="#linearGradientWhitePieces"/><linearGradient id="linearGradient17745" x1="72.323" x2="129.866" y1="53.731" y2="53.731" gradientTransform="translate(0,200)" gradientUnits="userSpaceOnUse" xlink:href="#linearGradientWhitePiecesBorder"/><linearGradient id="linearGradient17747" x1="150.079" x2="694.007" y1="255.254" y2="740.063" gradientTransform="matrix(0.22857143,0,0,0.22857143,0,200)" gradientUnits="userSpaceOnUse" xlink:href="#linearGradientWhitePieces"/><linearGradient id="linearGradient17749" x1="19.407" x2="182.465" y1="119.723" y2="119.723" gradientTransform="translate(0,200)" gradientUnits="userSpaceOnUse" xlink:href="#linearGradientWhitePiecesBorder"/><linearGradient id="linearGradient17751" x1="163.113" x2="702.697" y1="776.638" y2="778.811" gradientTransform="matrix(0.22857143,0,0,0.22857143,0,200)" gradientUnits="userSpaceOnUse" xlink:href="#linearGradientWhitePieces"/><linearGradient id="linearGradient17753" x1="43.505" x2="156.876" y1="180.952" y2="180.952" gradientTransform="translate(0,200)" gradientUnits="userSpaceOnUse" xlink:href="#linearGradientWhitePiecesBorder"/><linearGradient id="linearGradient17755" x1="285.639" x2="466.667" y1="287.12" y2="587.12" gradientTransform="matrix(0.22857143,0,0,0.22857143,200,200)" gradientUnits="userSpaceOnUse" xlink:href="#linearGradientWhitePieces"/><linearGradient id="linearGradient17757" x1="252.337" x2="353.143" y1="96.104" y2="96.104" gradientTransform="translate(0,200)" gradientUnits="userSpaceOnUse" xlink:href="#linearGradientWhitePiecesBorder"/><linearGradient id="linearGradient17759" x1="166.781" x2="718.885" y1="239.891" y2="746.557" gradientTransform="matrix(0.22857143,0,0,0.22857143,200,200)" gradientUnits="userSpaceOnUse" xlink:href="#linearGradientWhitePieces"/><linearGradient id="linearGradient17761" x1="218.312" x2="382.983" y1="95.213" y2="95.213" gradientTransform="translate(0,200)" gradientUnits="userSpaceOnUse" xlink:href="#linearGradientWhitePiecesBorder"/><linearGradient id="linearGradient17763" x1="199" x2="661.667" y1="789.833" y2="789.833" gradientTransform="matrix(0.22857143,0,0,0.22857143,200,200)" gradientUnits="userSpaceOnUse" xlink:href="#linearGradientWhitePieces"/><linearGradient id="linearGradient17765" x1="245.486" x2="351.238" y1="180.533" y2="180.533" gradientTransform="translate(0,200)" gradientUnits="userSpaceOnUse" xlink:href="#linearGradientWhitePiecesBorder"/><linearGradient id="linearGradient17767" x1="88.716" x2="772.142" y1="286.248" y2="750.581" gradientTransform="matrix(0.22857143,0,0,0.22857143,400,200)" gradientUnits="userSpaceOnUse" xlink:href="#linearGradientWhitePieces"/><linearGradient id="linearGradient17769" x1="452.267" x2="550.4" y1="125.41" y2="125.41" gradientTransform="translate(0,200)" gradientUnits="userSpaceOnUse" xlink:href="#linearGradientWhitePiecesBorder"/><linearGradient id="linearGradient17771" x1="88.716" x2="772.142" y1="286.248" y2="750.581" gradientTransform="matrix(0.22857143,0,0,0.22857143,400,200)" gradientUnits="userSpaceOnUse" xlink:href="#linearGradientWhitePieces"/><linearGradient id="linearGradient17773" x1="426.743" x2="466.21" y1="58.552" y2="58.552" gradientTransform="translate(0,200)" gradientUnits="userSpaceOnUse" xlink:href="#linearGradientWhitePiecesBorder"/><linearGradient id="linearGradient17775" x1="88.716" x2="772.142" y1="286.248" y2="750.581" gradientTransform="matrix(0.22857143,0,0,0.22857143,400,200)" gradientUnits="userSpaceOnUse" xlink:href="#linearGradientWhitePieces"/><linearGradient id="linearGradient17777" x1="481.219" x2="518.019" y1="55.886" y2="55.886" gradientTransform="translate(0,200)" gradientUnits="userSpaceOnUse" xlink:href="#linearGradientWhitePiecesBorder"/><linearGradient id="linearGradient17779" x1="88.716" x2="772.142" y1="286.248" y2="750.581" gradientTransform="matrix(0.22857143,0,0,0.22857143,400,200)" gradientUnits="userSpaceOnUse" xlink:href="#linearGradientWhitePieces"/><linearGradient id="linearGradient17781" x1="540.648" x2="573.257" y1="59.124" y2="59.124" gradientTransform="translate(0,200)" gradientUnits="userSpaceOnUse" xlink:href="#linearGradientWhitePiecesBorder"/><linearGradient id="linearGradient17783" x1="88.716" x2="772.142" y1="286.248" y2="750.581" gradientTransform="matrix(0.22857143,0,0,0.22857143,400,200)" gradientUnits="userSpaceOnUse" xlink:href="#linearGradientWhitePieces"/><linearGradient id="linearGradient17785" x1="435.505" x2="530.971" y1="178.819" y2="178.819" gradientTransform="translate(0,200)" gradientUnits="userSpaceOnUse" xlink:href="#linearGradientWhitePiecesBorder"/><linearGradient id="linearGradient17787" x1="88.716" x2="772.142" y1="286.248" y2="750.581" gradientTransform="matrix(0.22857143,0,0,0.22857143,400,200)" gradientUnits="userSpaceOnUse" xlink:href="#linearGradientWhitePieces"/><linearGradient id="linearGradient17789" x1="539.124" x2="564.876" y1="171.962" y2="171.962" gradientTransform="translate(0,200)" gradientUnits="userSpaceOnUse" xlink:href="#linearGradientWhitePiecesBorder"/><linearGradient id="linearGradient17791" x1="130.983" x2="720.017" y1="444.835" y2="623.168" gradientTransform="matrix(0.22857143,0,0,0.22857143,602.28571,200.91429)" gradientUnits="userSpaceOnUse" xlink:href="#linearGradientWhitePieces"/><linearGradient id="linearGradient17793" x1="632.225" x2="699.485" y1="174.586" y2="174.586" gradientTransform="translate(0,200)" gradientUnits="userSpaceOnUse" xlink:href="#linearGradientWhitePiecesBorder"/><linearGradient id="linearGradient17795" x1="130.983" x2="720.017" y1="444.835" y2="623.168" gradientTransform="matrix(0.22857143,0,0,0.22857143,598.17143,200.91429)" gradientUnits="userSpaceOnUse" xlink:href="#linearGradientWhitePieces"/><linearGradient id="linearGradient17797" x1="699.297" x2="766.556" y1="174.586" y2="174.586" gradientTransform="translate(0,200)" gradientUnits="userSpaceOnUse" xlink:href="#linearGradientWhitePiecesBorder"/><linearGradient id="linearGradient17799" x1="130.983" x2="720.017" y1="444.835" y2="623.168" gradientTransform="matrix(0.22857143,0,0,0.22857143,600,200.91429)" gradientUnits="userSpaceOnUse" xlink:href="#linearGradientWhitePieces"/><linearGradient id="linearGradient17801" x1="656.233" x2="737.672" y1="150.817" y2="150.817" gradientTransform="translate(0,200)" gradientUnits="userSpaceOnUse" xlink:href="#linearGradientWhitePiecesBorder"/><linearGradient id="linearGradient17803" x1="130.983" x2="720.017" y1="444.835" y2="623.168" gradientTransform="matrix(0.22857143,0,0,0.22857143,600,200.91429)" gradientUnits="userSpaceOnUse" xlink:href="#linearGradientWhitePieces"/><linearGradient id="linearGradient17805" x1="644.227" x2="754.015" y1="93.364" y2="93.364" gradientTransform="translate(0,200)" gradientUnits="userSpaceOnUse" xlink:href="#linearGradientWhitePiecesBorder"/><linearGradient id="linearGradient17807" x1="322.65" x2="501.102" y1="156.502" y2="209.835" gradientTransform="matrix(0.22857143,0,0,0.22857143,600,203.58095)" gradientUnits="userSpaceOnUse" xlink:href="#linearGradientWhitePieces"/><linearGradient id="linearGradient17809" x1="681.691" x2="717.966" y1="32.301" y2="32.301" gradientTransform="translate(0,200)" gradientUnits="userSpaceOnUse" xlink:href="#linearGradientWhitePiecesBorder"/><linearGradient id="linearGradient17811" x1="163.677" x2="741.164" y1="244.156" y2="814.156" gradientTransform="matrix(0.22857143,0,0,0.22857143,800.45714,202.74286)" gradientUnits="userSpaceOnUse" xlink:href="#linearGradientWhitePieces"/><linearGradient id="linearGradient17813" x1="827.927" x2="974.56" y1="104.443" y2="104.443" gradientTransform="translate(0,200)" gradientUnits="userSpaceOnUse" xlink:href="#linearGradientWhitePiecesBorder"/><linearGradient id="linearGradient17815" x1="250.333" x2="671.333" y1="541.667" y2="718.333" gradientUnits="userSpaceOnUse" xlink:href="#linearGradientWhitePieces"/><linearGradient id="linearGradient17817" x1="265.333" x2="644.667" y1="605" y2="605" gradientUnits="userSpaceOnUse" xlink:href="#linearGradientWhitePiecesBorder"/></defs><metadata id="metadata2727"/><g id="BlackPieces"><g id="BlackKing"><rect id="rect8054" width="200" height="200" x="0" y="0" style="fill:none;stroke:none"/><path id="rect4417" d="m 92.1156,25.14491 0,13.62857 -17.96428,0 0,15.55 17.96428,0 0,27.99286 14.34286,0 0,-27.99286 21.57857,0 0,-15.55 -21.57857,0 0,-13.62857 -14.34286,0 z" style="fill:url(#linearGradient2483);fill-opacity:1;fill-rule:evenodd;stroke:url(#linearGradient17691);stroke-width:3.65714288;stroke-linecap:round;stroke-linejoin:round;stroke-miterlimit:4;stroke-opacity:1;stroke-dasharray:none;stroke-dashoffset:0"/><path id="path4423" d="m 116.7685,105.41059 c 45.6543,-24.41897 31.02431,22.10128 8.36721,36.48227 -14.59749,9.26537 -22.22965,-25.69457 -14.48571,-51.95 l -19.56429,0.23571 c 7.21432,23.23396 2.81457,58.938 -13.05714,51.71429 C 49.75695,129.02555 39.24695,81.68205 84.38469,105.43227 58.3013,52.11164 17.67351,72.50058 21.48571,99.6 c 4.14121,29.43815 37.73984,55.92746 37.05715,67.72857 l 84.30714,0 C 141.4993,153.65548 179.40131,125.53604 180.61429,98.8 181.77855,72.641 136.63157,52.38136 116.7685,105.41059 z" style="fill:url(#linearGradient2475);fill-opacity:1;fill-rule:evenodd;stroke:url(#linearGradient17689);stroke-width:3.65714288;stroke-linecap:round;stroke-linejoin:round;stroke-miterlimit:4;stroke-opacity:1;stroke-dasharray:none"/><rect id="rect4429" width="109.714" height="15.238" x="45.333" y="173.333" style="fill:url(#linearGradient2472);fill-opacity:1;fill-rule:evenodd;stroke:url(#linearGradient17687);stroke-width:3.65714288;stroke-linecap:round;stroke-linejoin:round;stroke-miterlimit:4;stroke-opacity:1;stroke-dasharray:none;stroke-dashoffset:0"/></g><g id="BlackQueen"><rect id="rect8054-3" width="200" height="200" x="200" y="0" style="fill:none;stroke:none"/><path id="path4435" d="m 351.31429,34.26429 c -47.85856,143.39987 -55.2529,143.66612 -97.14286,0.67857 -0.25771,58.27118 7.49175,99.25943 18.72143,123 l 54.41428,0 c 12.30698,-23.85133 21.84012,-65.09315 24.00715,-123.67857 z" style="fill:url(#linearGradient2371);fill-opacity:1;fill-rule:evenodd;stroke:url(#linearGradient17685);stroke-width:3.65714288;stroke-linecap:round;stroke-linejoin:round;stroke-miterlimit:4;stroke-opacity:1;stroke-dasharray:none"/><path id="path4433" d="m 302.54762,24.48095 c -17.36795,94.11121 -8.84667,194.98248 -82.40714,42.58572 2.51734,46.59316 13.44436,79.60587 32.82142,98.87857 l 91.9,0 c 19.74371,-19.03196 31.7104,-51.53341 36.29286,-97.65 -70.24868,152.42869 -64.15014,50.38385 -78.60714,-43.81429 z" style="fill:url(#linearGradient2363);fill-opacity:1;fill-rule:evenodd;stroke:url(#linearGradient17683);stroke-width:3.65714288;stroke-linecap:round;stroke-linejoin:round;stroke-miterlimit:4;stroke-opacity:1;stroke-dasharray:none"/><rect id="rect4429-1" width="102.095" height="14.857" x="247.314" y="173.105" style="fill:url(#linearGradient2361);fill-opacity:1;fill-rule:evenodd;stroke:url(#linearGradient17681);stroke-width:3.65714288;stroke-linecap:round;stroke-linejoin:round;stroke-miterlimit:4;stroke-opacity:1;stroke-dasharray:none;stroke-dashoffset:0"/></g><g id="BlackRook"><rect id="rect8054-2" width="200" height="200" x="400" y="0" style="fill:none;stroke:none"/><rect id="rect1316" width="94.476" height="109.714" x="454.095" y="70.552" style="fill:url(#linearGradient2428);fill-opacity:1;fill-rule:evenodd;stroke:url(#linearGradient17679);stroke-width:3.65714288;stroke-linecap:round;stroke-linejoin:round;stroke-miterlimit:4;stroke-opacity:1;stroke-dasharray:none;stroke-dashoffset:0"/><rect id="rect2191" width="35.81" height="36.952" x="428.571" y="40.076" style="fill:url(#linearGradient2425);fill-opacity:1;fill-rule:evenodd;stroke:url(#linearGradient17677);stroke-width:3.65714288;stroke-linecap:round;stroke-linejoin:round;stroke-miterlimit:4;stroke-opacity:1;stroke-dasharray:none;stroke-dashoffset:0"/><rect id="rect2193" width="33.143" height="15.619" x="483.048" y="48.076" style="fill:url(#linearGradient2422);fill-opacity:1;fill-rule:evenodd;stroke:url(#linearGradient17675);stroke-width:3.65714288;stroke-linecap:round;stroke-linejoin:round;stroke-miterlimit:4;stroke-opacity:1;stroke-dasharray:none;stroke-dashoffset:0"/><rect id="rect2195" width="28.952" height="55.619" x="542.476" y="31.314" style="fill:url(#linearGradient2419);fill-opacity:1;fill-rule:evenodd;stroke:url(#linearGradient17673);stroke-width:3.65714288;stroke-linecap:round;stroke-linejoin:round;stroke-miterlimit:4;stroke-opacity:1;stroke-dasharray:none;stroke-dashoffset:0"/><rect id="rect4521" width="91.81" height="15.238" x="437.333" y="171.2" style="fill:url(#linearGradient2416);fill-opacity:1;fill-rule:evenodd;stroke:url(#linearGradient17671);stroke-width:3.65714288;stroke-linecap:round;stroke-linejoin:round;stroke-miterlimit:4;stroke-opacity:1;stroke-dasharray:none;stroke-dashoffset:0"/><rect id="rect4523" width="22.095" height="29.714" x="540.952" y="157.105" style="fill:url(#linearGradient2413);fill-opacity:1;fill-rule:evenodd;stroke:url(#linearGradient17669);stroke-width:3.65714288;stroke-linecap:round;stroke-linejoin:round;stroke-miterlimit:4;stroke-opacity:1;stroke-dasharray:none;stroke-dashoffset:0"/></g><g id="BlackBishop"><rect id="rect8054-1" width="200" height="200" x="600" y="0" style="fill:none;stroke:none"/><path id="path2203" d="m 697.65596,158.07329 c -1.22313,2.44625 -63.60263,33.02444 -63.60263,33.02444 l 51.54461,-6.52334 12.05802,-26.5011 z" style="fill:url(#linearGradient2287);fill-opacity:1;fill-rule:evenodd;stroke:url(#linearGradient17667);stroke-width:3.65714288;stroke-linecap:round;stroke-linejoin:round;stroke-miterlimit:4;stroke-opacity:1;stroke-dasharray:none"/><path style="fill:url(#linearGradient2284);fill-opacity:1;fill-rule:evenodd;stroke:url(#linearGradient17665);stroke-width:3.65714288;stroke-linecap:round;stroke-linejoin:round;stroke-miterlimit:4;stroke-opacity:1;stroke-dasharray:none" id="path2205" d="m 701.12507,158.07329 c 1.22312,2.44625 63.60263,33.02444 63.60263,33.02444 l -54.59223,-6.52334 -9.0104,-26.5011 z"/><path style="fill:url(#linearGradient2281);fill-opacity:1;fill-rule:evenodd;stroke:url(#linearGradient17663);stroke-width:3.65714288;stroke-linecap:round;stroke-linejoin:round;stroke-miterlimit:4;stroke-opacity:1;stroke-dasharray:none" id="path2237" d="m 675.03331,142.22256 c -1.37551,2.75102 -16.9717,19.31718 -16.9717,19.31718 l 77.78194,5.35345 -19.82495,-32.15336 -40.98529,7.48273 z"/><path id="path2201" d="m 698.71979,35.63264 c -1.3755,2.75102 -52.66374,115.46237 -52.66374,115.46237 L 752.18681,141.74693 698.71979,35.63264 z m 10.32205,35.74563 8.10502,17.76035 -41.81033,41.4087 c 0,0 32.3298,-56.41804 33.70531,-59.16905 z" style="fill:url(#linearGradient2278);fill-opacity:1;fill-rule:evenodd;stroke:url(#linearGradient17661);stroke-width:3.65714288;stroke-linecap:round;stroke-linejoin:round;stroke-miterlimit:4;stroke-opacity:1;stroke-dasharray:none"/><path id="path2199" d="m 699.17989,16.75058 c -1.37551,2.75101 -15.65983,26.07067 -15.65983,26.07067 l 32.61761,5.02993 -16.95778,-31.1006 z" style="fill:url(#linearGradient2275);fill-opacity:1;fill-rule:evenodd;stroke:url(#linearGradient17659);stroke-width:3.65714288;stroke-linecap:round;stroke-linejoin:round;stroke-miterlimit:4;stroke-opacity:1;stroke-dasharray:none"/></g><g id="BlackKnight"><rect id="rect8054-29" width="200" height="200" x="800" y="0" style="fill:none;stroke:none"/><path id="path4618" d="m 886.00254,20.22922 c -0.38571,26.59625 0.97294,16.55231 -15.81037,4.27446 2.59012,17.34932 0.83202,17.92092 -3.65158,25.3449 -2.45377,4.06296 -4.6162,16.85608 -6.15158,19.67596 -9.30365,17.08709 -30.67072,39.3941 -30.63386,46.66632 0.0467,9.20542 10.99488,17.4454 21.00958,7.71103 -9.36939,13.71566 18.91836,-0.0622 30.77285,-8.52211 15.69174,9.65995 37.61437,-0.9107 38.02187,-16.4317 7.14077,35.10764 -59.5404,41.20523 -63.10231,86.74289 49.69674,11.34467 77.37707,-25.61697 107.66824,2.96523 15.48475,-44.89767 16.91373,-119.94615 -55.07284,-148.08412 -9.78397,-3.82434 -13.89416,-13.66176 -23.05,-20.34286 z m -0.30032,49.52554 c -1.62694,2.30834 -5.04835,6.07614 -8.05031,5.52444 -2.77559,-0.5101 -3.89238,-1.45087 -4.02046,-4.73784 -0.10785,-2.76752 9.69853,-2.67825 12.07077,-0.7866 z" style="fill:url(#linearGradient2513);fill-opacity:1;fill-rule:evenodd;stroke:url(#linearGradient17657);stroke-width:3.65714288;stroke-linecap:round;stroke-linejoin:round;stroke-miterlimit:4;stroke-opacity:1;stroke-dasharray:none"/></g><g id="BlackPawn"><rect id="rect8054-9" width="200" height="200" x="1000" y="0" style="fill:none;stroke:none"/><path id="path1351" d="m 636.66667,605 a 181.66667,185 0 1 1 -363.33334,0 181.66667,185 0 1 1 363.33334,0 z" transform="matrix(0.22857143,0,0,0.22857143,996.95238,0.38095)" style="opacity:.98999999;fill:url(#linearGradient2232);fill-opacity:1;fill-rule:evenodd;stroke:url(#linearGradient17655);stroke-width:16;stroke-linecap:round;stroke-linejoin:round;stroke-miterlimit:4;stroke-opacity:1;stroke-dasharray:none;stroke-dashoffset:0"/></g></g><g id="WhitePieces"><g id="WhiteKing"><rect style="fill:none;stroke:none" id="rect17693" width="200" height="200" x="0" y="200"/><path style="fill:url(#linearGradient17743);fill-opacity:1;fill-rule:evenodd;stroke:url(#linearGradient17745);stroke-width:3.65714288;stroke-linecap:round;stroke-linejoin:round;stroke-miterlimit:4;stroke-opacity:1;stroke-dasharray:none;stroke-dashoffset:0" id="path17695" d="m 92.1156,225.14491 0,13.62857 -17.96428,0 0,15.55 17.96428,0 0,27.99286 14.34286,0 0,-27.99286 21.57857,0 0,-15.55 -21.57857,0 0,-13.62857 -14.34286,0 z"/><path style="fill:url(#linearGradient17747);fill-opacity:1;fill-rule:evenodd;stroke:url(#linearGradient17749);stroke-width:3.65714288;stroke-linecap:round;stroke-linejoin:round;stroke-miterlimit:4;stroke-opacity:1;stroke-dasharray:none" id="path17697" d="m 116.7685,305.41059 c 45.6543,-24.41897 31.02431,22.10128 8.36721,36.48227 -14.59749,9.26537 -22.22965,-25.69457 -14.48571,-51.95 l -19.56429,0.23571 c 7.21432,23.23396 2.81457,58.938 -13.05714,51.71429 C 49.75695,329.02555 39.24695,281.68205 84.38469,305.43227 58.3013,252.11164 17.67351,272.50058 21.48571,299.6 c 4.14121,29.43815 37.73984,55.92746 37.05715,67.72857 l 84.30714,0 c -1.3507,-13.67309 36.55131,-41.79253 37.76429,-68.52857 1.16426,-26.159 -43.98272,-46.41864 -63.84579,6.61059 z"/><rect style="fill:url(#linearGradient17751);fill-opacity:1;fill-rule:evenodd;stroke:url(#linearGradient17753);stroke-width:3.65714288;stroke-linecap:round;stroke-linejoin:round;stroke-miterlimit:4;stroke-opacity:1;stroke-dasharray:none;stroke-dashoffset:0" id="rect17699" width="109.714" height="15.238" x="45.333" y="373.333"/></g><g id="WhiteQueen"><rect style="fill:none;stroke:none" id="rect17701" width="200" height="200" x="200" y="200"/><path style="fill:url(#linearGradient17755);fill-opacity:1;fill-rule:evenodd;stroke:url(#linearGradient17757);stroke-width:3.65714288;stroke-linecap:round;stroke-linejoin:round;stroke-miterlimit:4;stroke-opacity:1;stroke-dasharray:none" id="path17703" d="m 351.31429,234.26429 c -47.85856,143.39987 -55.2529,143.66612 -97.14286,0.67857 -0.25771,58.27118 7.49175,99.25943 18.72143,123 l 54.41428,0 c 12.30698,-23.85133 21.84012,-65.09315 24.00715,-123.67857 z"/><path style="fill:url(#linearGradient17759);fill-opacity:1;fill-rule:evenodd;stroke:url(#linearGradient17761);stroke-width:3.65714288;stroke-linecap:round;stroke-linejoin:round;stroke-miterlimit:4;stroke-opacity:1;stroke-dasharray:none" id="path17705" d="m 302.54762,224.48095 c -17.36795,94.11121 -8.84667,194.98248 -82.40714,42.58572 2.51734,46.59316 13.44436,79.60587 32.82142,98.87857 l 91.9,0 c 19.74371,-19.03196 31.7104,-51.53341 36.29286,-97.65 -70.24868,152.42869 -64.15014,50.38385 -78.60714,-43.81429 z"/><rect style="fill:url(#linearGradient17763);fill-opacity:1;fill-rule:evenodd;stroke:url(#linearGradient17765);stroke-width:3.65714288;stroke-linecap:round;stroke-linejoin:round;stroke-miterlimit:4;stroke-opacity:1;stroke-dasharray:none;stroke-dashoffset:0" id="rect17707" width="102.095" height="14.857" x="247.314" y="373.105"/></g><g id="WhiteRook"><rect style="fill:none;stroke:none" id="rect17709" width="200" height="200" x="400" y="200"/><rect style="fill:url(#linearGradient17767);fill-opacity:1;fill-rule:evenodd;stroke:url(#linearGradient17769);stroke-width:3.65714288;stroke-linecap:round;stroke-linejoin:round;stroke-miterlimit:4;stroke-opacity:1;stroke-dasharray:none;stroke-dashoffset:0" id="rect17711" width="94.476" height="109.714" x="454.095" y="270.552"/><rect style="fill:url(#linearGradient17771);fill-opacity:1;fill-rule:evenodd;stroke:url(#linearGradient17773);stroke-width:3.65714288;stroke-linecap:round;stroke-linejoin:round;stroke-miterlimit:4;stroke-opacity:1;stroke-dasharray:none;stroke-dashoffset:0" id="rect17713" width="35.81" height="36.952" x="428.571" y="240.076"/><rect style="fill:url(#linearGradient17775);fill-opacity:1;fill-rule:evenodd;stroke:url(#linearGradient17777);stroke-width:3.65714288;stroke-linecap:round;stroke-linejoin:round;stroke-miterlimit:4;stroke-opacity:1;stroke-dasharray:none;stroke-dashoffset:0" id="rect17715" width="33.143" height="15.619" x="483.048" y="248.076"/><rect style="fill:url(#linearGradient17779);fill-opacity:1;fill-rule:evenodd;stroke:url(#linearGradient17781);stroke-width:3.65714288;stroke-linecap:round;stroke-linejoin:round;stroke-miterlimit:4;stroke-opacity:1;stroke-dasharray:none;stroke-dashoffset:0" id="rect17717" width="28.952" height="55.619" x="542.476" y="231.314"/><rect style="fill:url(#linearGradient17783);fill-opacity:1;fill-rule:evenodd;stroke:url(#linearGradient17785);stroke-width:3.65714288;stroke-linecap:round;stroke-linejoin:round;stroke-miterlimit:4;stroke-opacity:1;stroke-dasharray:none;stroke-dashoffset:0" id="rect17719" width="91.81" height="15.238" x="437.333" y="371.2"/><rect style="fill:url(#linearGradient17787);fill-opacity:1;fill-rule:evenodd;stroke:url(#linearGradient17789);stroke-width:3.65714288;stroke-linecap:round;stroke-linejoin:round;stroke-miterlimit:4;stroke-opacity:1;stroke-dasharray:none;stroke-dashoffset:0" id="rect17721" width="22.095" height="29.714" x="540.952" y="357.105"/></g><g id="WhiteBishop"><rect style="fill:none;stroke:none" id="rect17723" width="200" height="200" x="600" y="200"/><path style="fill:url(#linearGradient17791);fill-opacity:1;fill-rule:evenodd;stroke:url(#linearGradient17793);stroke-width:3.65714288;stroke-linecap:round;stroke-linejoin:round;stroke-miterlimit:4;stroke-opacity:1;stroke-dasharray:none" id="path17725" d="m 697.65596,358.07329 c -1.22313,2.44625 -63.60263,33.02444 -63.60263,33.02444 l 51.54461,-6.52334 12.05802,-26.5011 z"/><path id="path17727" d="m 701.12507,358.07329 c 1.22312,2.44625 63.60263,33.02444 63.60263,33.02444 l -54.59223,-6.52334 -9.0104,-26.5011 z" style="fill:url(#linearGradient17795);fill-opacity:1;fill-rule:evenodd;stroke:url(#linearGradient17797);stroke-width:3.65714288;stroke-linecap:round;stroke-linejoin:round;stroke-miterlimit:4;stroke-opacity:1;stroke-dasharray:none"/><path id="path17729" d="m 675.03331,342.22256 c -1.37551,2.75102 -16.9717,19.31718 -16.9717,19.31718 l 77.78194,5.35345 -19.82495,-32.15336 -40.98529,7.48273 z" style="fill:url(#linearGradient17799);fill-opacity:1;fill-rule:evenodd;stroke:url(#linearGradient17801);stroke-width:3.65714288;stroke-linecap:round;stroke-linejoin:round;stroke-miterlimit:4;stroke-opacity:1;stroke-dasharray:none"/><path style="fill:url(#linearGradient17803);fill-opacity:1;fill-rule:evenodd;stroke:url(#linearGradient17805);stroke-width:3.65714288;stroke-linecap:round;stroke-linejoin:round;stroke-miterlimit:4;stroke-opacity:1;stroke-dasharray:none" id="path17731" d="m 698.71979,235.63264 c -1.3755,2.75102 -52.66374,115.46237 -52.66374,115.46237 l 106.13076,-9.34808 -53.46702,-106.11429 z m 10.32205,35.74563 8.10502,17.76035 -41.81033,41.4087 c 0,0 32.3298,-56.41804 33.70531,-59.16905 z"/><path style="fill:url(#linearGradient17807);fill-opacity:1;fill-rule:evenodd;stroke:url(#linearGradient17809);stroke-width:3.65714288;stroke-linecap:round;stroke-linejoin:round;stroke-miterlimit:4;stroke-opacity:1;stroke-dasharray:none" id="path17733" d="m 699.17989,216.75058 c -1.37551,2.75101 -15.65983,26.07067 -15.65983,26.07067 l 32.61761,5.02993 -16.95778,-31.1006 z"/></g><g id="WhiteKnight"><rect style="fill:none;stroke:none" id="rect17735" width="200" height="200" x="800" y="200"/><path style="fill:url(#linearGradient17811);fill-opacity:1;fill-rule:evenodd;stroke:url(#linearGradient17813);stroke-width:3.65714288;stroke-linecap:round;stroke-linejoin:round;stroke-miterlimit:4;stroke-opacity:1;stroke-dasharray:none" id="path17737" d="m 886.00254,220.22922 c -0.38571,26.59625 0.97294,16.55231 -15.81037,4.27446 2.59012,17.34932 0.83202,17.92092 -3.65158,25.3449 -2.45377,4.06296 -4.6162,16.85608 -6.15158,19.67596 -9.30365,17.08709 -30.67072,39.3941 -30.63386,46.66632 0.0467,9.20542 10.99488,17.4454 21.00958,7.71103 -9.36939,13.71566 18.91836,-0.0622 30.77285,-8.52211 15.69174,9.65995 37.61437,-0.9107 38.02187,-16.4317 7.14077,35.10764 -59.5404,41.20523 -63.10231,86.74289 49.69674,11.34467 77.37707,-25.61697 107.66824,2.96523 15.48475,-44.89767 16.91373,-119.94615 -55.07284,-148.08412 -9.78397,-3.82434 -13.89416,-13.66176 -23.05,-20.34286 z m -0.30032,49.52554 c -1.62694,2.30834 -5.04835,6.07614 -8.05031,5.52444 -2.77559,-0.5101 -3.89238,-1.45087 -4.02046,-4.73784 -0.10785,-2.76752 9.69853,-2.67825 12.07077,-0.7866 z"/></g><g id="WhitePawn"><rect style="fill:none;stroke:none" id="rect17739" width="200" height="200" x="1000" y="200"/><path style="opacity:.98999999;fill:url(#linearGradient17815);fill-opacity:1;fill-rule:evenodd;stroke:url(#linearGradient17817);stroke-width:16;stroke-linecap:round;stroke-linejoin:round;stroke-miterlimit:4;stroke-opacity:1;stroke-dasharray:none;stroke-dashoffset:0" id="path17741" d="m 636.66667,605 a 181.66667,185 0 1 1 -363.33334,0 181.66667,185 0 1 1 363.33334,0 z" transform="matrix(0.22857143,0,0,0.22857143,996.95238,200.38095)"/></g></g></svg>