<svg xmlns="http://www.w3.org/2000/svg" xmlns:svg="http://www.w3.org/2000/svg" id="svg2" width="50mm" height="50mm" fill-rule="evenodd" clip-rule="evenodd" image-rendering="optimizeQuality" shape-rendering="geometricPrecision" text-rendering="geometricPrecision" viewBox="0 0 50 50" xml:space="preserve"><metadata id="metadata11"/><g id="Layer_x0020_1" transform="matrix(1,0,0,0.9732376,0,1.2430586)"><metadata id="CorelCorpID_0Corel-Layer"/><path id="path6" d="M 25,46.4479 L 11.6057,46.4479 C 10.9453,44.7969 10.6151,43.0697 10.6151,41.2663 C 10.6151,38.2099 11.4787,35.4667 13.2144,33.0283 C 14.9501,30.5983 17.1853,28.8627 19.9115,27.8213 C 18.7431,27.2794 17.7864,26.4581 17.0498,25.3575 C 16.3132,24.2568 15.9491,23.0122 15.9491,21.6237 C 15.9491,19.888 16.5249,18.3809 17.6848,17.1109 C 18.8363,15.8325 20.2587,15.0959 21.952,14.9011 C 20.6058,13.8936 19.9369,12.5559 19.9369,10.9049 C 19.9369,9.5163 20.428,8.3225 21.4186,7.3319 C 22.4007,6.3413 23.5945,5.8503 25,5.8503 C 26.3885,5.8503 27.5823,6.3413 28.5729,7.3319 C 29.5635,8.3225 30.0631,9.5163 30.0631,10.9049 C 30.0631,12.5559 29.3942,13.8936 28.048,14.9011 C 29.7413,15.0959 31.1637,15.8325 32.3152,17.1109 C 33.4751,18.3809 34.0509,19.888 34.0509,21.6237 C 34.0509,23.0122 33.6783,24.2568 32.9248,25.3575 C 32.1713,26.4581 31.2145,27.2794 30.0631,27.8213 C 32.7893,28.8627 35.0245,30.5983 36.7602,33.0283 C 38.4959,35.4667 39.3595,38.2099 39.3595,41.2663 C 39.3595,43.0528 39.0377,44.78 38.3943,46.4479 L 25,46.4479 L 25,46.4479 z" style="fill:#1f1a17"/></g></svg>