<svg xmlns="http://www.w3.org/2000/svg" xmlns:cc="http://web.resource.org/cc/" xmlns:svg="http://www.w3.org/2000/svg" xmlns:xlink="http://www.w3.org/1999/xlink" id="svg2" width="50mm" height="50mm" fill-rule="evenodd" clip-rule="evenodd" image-rendering="optimizeQuality" shape-rendering="geometricPrecision" text-rendering="geometricPrecision" viewBox="0 0 50 50" xml:space="preserve"><metadata id="metadata13"/><defs id="defs11"><linearGradient id="linearGradient2165"><stop style="stop-color:#fff;stop-opacity:1" id="stop2167" offset="0"/><stop style="stop-color:#fff;stop-opacity:0" id="stop2169" offset="1"/></linearGradient><linearGradient id="linearGradient2171" x1="21.192" x2="77.736" y1="37.552" y2="37.429" gradientUnits="userSpaceOnUse" xlink:href="#linearGradient2165"/></defs><g id="Layer_x0020_1"><metadata id="CorelCorpID_0Corel-Layer"/><polygon id="polygon6" fill="#1F1A17" points="28.408 9.22 32.624 9.22 32.624 5.825 39.423 5.825 39.423 15.121 33.92 19.363 33.92 31.225 38.136 35.441 38.136 40.521 41.929 40.521 41.929 46.448 8.071 46.448 8.071 40.521 11.864 40.521 11.864 35.441 16.106 31.225 16.106 19.363 10.602 15.121 10.602 5.825 17.376 5.825 17.376 9.22 21.618 9.22 21.618 5.825 28.408 5.825"/><path id="path8" fill="#fff" d="M25.0127 35.0433l-10.2701 0 -1.143 1.0668 0 1.4394 22.8262 0 0 -1.4394 -1.143 -1.0668 -10.2701 0zm-11.4131 5.08l0 2.5316 22.8262 0 0 -2.5316 -22.8262 0zm11.4131 -27.0848l-12.7 0 0 1.143 1.8119 1.3631 21.8016 0 1.7611 -1.3631 0 -1.143 -12.6746 0zm0 4.191l-8.6783 0 1.4816 1.1684 0 1.4139 14.3934 0 0 -1.4139 1.4816 -1.1684 -8.6783 0zm0 13.5466l-7.1967 0 0 1.143 -1.4816 1.4394 17.3566 0 -1.4816 -1.4394 0 -1.143 -7.1967 0z" style="fill-opacity:1;fill:url(#linearGradient2171)"/></g></svg>