<svg xmlns="http://www.w3.org/2000/svg" xmlns:svg="http://www.w3.org/2000/svg" xmlns:xlink="http://www.w3.org/1999/xlink" id="svg12863" width="177.17" height="177.17" fill-rule="evenodd" clip-rule="evenodd" image-rendering="optimizeQuality" shape-rendering="geometricPrecision" version="1.1" viewBox="0 0 50 50"><metadata id="metadata12867"/><defs id="defs12857"><linearGradient id="linearGradient13464"><stop style="stop-color:gray;stop-opacity:1" id="stop13460" offset="0"/><stop style="stop-color:#fff;stop-opacity:1" id="stop13462" offset="1"/></linearGradient><linearGradient id="0" x1="21.405" x2="77.64" gradientUnits="userSpaceOnUse"><stop id="stop12852" stop-color="#fff"/><stop id="stop12854" offset="1" stop-color="#fff" stop-opacity="0"/></linearGradient><linearGradient id="linearGradient13468" x1="115.585" x2="87.866" y1="51.193" y2="51.539" gradientUnits="userSpaceOnUse" xlink:href="#linearGradient13464"/><clipPath id="clipPath5191" clipPathUnits="userSpaceOnUse"><rect style="opacity:1;fill:#d40000;fill-opacity:1;stroke:#000;stroke-width:.2045171;stroke-linecap:square;stroke-linejoin:miter;stroke-miterlimit:4;stroke-dasharray:none;stroke-opacity:1;paint-order:normal" id="rect5193" width="35.163" height="15.671" x="7.207" y="4.029" clip-path="none"/></clipPath><linearGradient id="0-2" x1="21.376" x2="77.64" gradientUnits="userSpaceOnUse"><stop id="stop4571" stop-color="#fff"/><stop id="stop4573" offset="1" stop-color="#fff" stop-opacity="0"/></linearGradient></defs><g id="g13475" transform="matrix(1.0539134,0,0,1.1187798,-70.902198,-28.281003)"><path id="path13430" d="m 84.568171,35.093828 -6.217144,0.149811 c -6.203086,2.383935 -6.962587,5.934352 -4.793947,10.112228 -0.05331,-4.629564 3.609449,-3.313402 6.366959,-3.445648 9.559786,5.46999 4.25599,14.805717 -0.599244,18.426723 l 4.419419,0.449433 -0.524338,3.07112 4.269605,-2.92131 2.696594,3.520551 3.895081,-2.92131 1.573012,2.621691 2.022444,-2.696597 c 1.307039,1.013938 2.064854,2.354644 2.627738,3.526604 l 1.86659,-3.226981 c 1.23104,0.812023 1.87638,2.044599 2.8464,3.07112 v -4.119794 l 4.41942,2.621688 C 110.0094,46.435659 108.3116,35.260707 95.504357,31.573276 92.79365,31.513132 90.012856,31.228707 87.639293,32.247423 Z" style="fill:url(#linearGradient13468);fill-opacity:1;stroke:#1f1a17;stroke-width:1.55939555;stroke-linecap:butt;stroke-linejoin:miter;stroke-miterlimit:4;stroke-dasharray:none;stroke-opacity:1"/><path id="path13432" d="M 91.159846,44.531907 79.924039,41.910219" style="fill:none;stroke:#1f1a17;stroke-width:1.55939555;stroke-linecap:butt;stroke-linejoin:miter;stroke-miterlimit:4;stroke-dasharray:none;stroke-opacity:1"/><path id="path13434" d="m 83.103812,35.805085 c -0.02515,1.008854 0.490503,1.148881 1.112288,1.324152" style="fill:none;stroke:#1f1a17;stroke-width:1.55939555;stroke-linecap:butt;stroke-linejoin:miter;stroke-miterlimit:4;stroke-dasharray:none;stroke-opacity:1"/><path id="path13436" d="m 91.413755,41.973846 a 2.5158896,1.8273305 0 0 1 -1.307932,1.602928 2.5158896,1.8273305 0 0 1 -2.563889,-0.0637 2.5158896,1.8273305 0 0 1 -1.154078,-1.664092 l 2.510009,0.124859 z" transform="rotate(-3.1672079)" style="opacity:1;fill:#1f1a17;fill-opacity:1;stroke:#1f1a17;stroke-width:1.69328892;stroke-linecap:square;stroke-linejoin:bevel;stroke-miterlimit:4;stroke-dasharray:none;stroke-opacity:1;paint-order:normal"/><path id="path13438" d="m 93.644067,36.864407 3.760592,-0.423729" style="fill:#1f1a17;fill-opacity:1;stroke:#1f1a17;stroke-width:1.69324374;stroke-linecap:butt;stroke-linejoin:miter;stroke-miterlimit:4;stroke-dasharray:none;stroke-opacity:1"/></g></svg>