<svg xmlns="http://www.w3.org/2000/svg" xmlns:cc="http://web.resource.org/cc/" xmlns:svg="http://www.w3.org/2000/svg" xmlns:xlink="http://www.w3.org/1999/xlink" id="svg2" width="50mm" height="50mm" fill-rule="evenodd" clip-rule="evenodd" image-rendering="optimizeQuality" shape-rendering="geometricPrecision" text-rendering="geometricPrecision" viewBox="0 0 50 50" xml:space="preserve"><metadata id="metadata13"/><defs id="defs11"><linearGradient id="linearGradient2165"><stop style="stop-color:#fff;stop-opacity:1" id="stop2167" offset="0"/><stop style="stop-color:#fff;stop-opacity:0" id="stop2169" offset="1"/></linearGradient><linearGradient id="linearGradient2171" x1="21.376" x2="77.641" y1="37.469" y2="37.469" gradientUnits="userSpaceOnUse" xlink:href="#linearGradient2165"/></defs><g id="Layer_x0020_1"><metadata id="CorelCorpID_0Corel-Layer"/><polygon id="polygon6" fill="#1F1A17" points="28.408 9.22 32.624 9.22 32.624 5.825 39.423 5.825 39.423 15.121 33.92 19.363 33.92 31.225 38.136 35.441 38.136 40.521 41.929 40.521 41.929 46.448 8.071 46.448 8.071 40.521 11.864 40.521 11.864 35.441 16.106 31.225 16.106 19.363 10.602 15.121 10.602 5.825 17.376 5.825 17.376 9.22 21.618 9.22 21.618 5.825 28.408 5.825"/><path id="path8" fill="#fff" d="M33.073 17.6782l3.1496 -2.5569 -22.4198 0 3.175 2.5569 16.0952 0zm7.1966 24.5279l-30.5138 0 0 2.557 30.5138 0 0 -2.557zm-3.8438 -5.0546l-22.8262 0 0 3.3698 22.8262 0 0 -3.3698zm-4.2164 -17.7884l-14.3934 0 0 11.8618 14.3934 0 0 -11.8618zm5.5033 -5.9267l0 -5.9267 -3.3951 0 0 3.3952 -7.6454 0 0 -3.3952 -3.3444 0 0 3.3952 -7.62 0 0 -3.3952 -3.3951 0 0 5.9267 25.4 0zm-1.9135 22.0049l-2.5484 -2.5316 -16.4508 0 -2.5992 2.5316 21.5984 0z" style="fill-opacity:1;fill:url(#linearGradient2171)"/></g></svg>