<svg xmlns="http://www.w3.org/2000/svg" xmlns:svg="http://www.w3.org/2000/svg" xmlns:xlink="http://www.w3.org/1999/xlink" id="svg2" width="50mm" height="50mm" fill-rule="evenodd" clip-rule="evenodd" image-rendering="optimizeQuality" shape-rendering="geometricPrecision" text-rendering="geometricPrecision" version="1.1" viewBox="0 0 50 50" xml:space="preserve"><metadata id="metadata13"/><defs id="defs11"><linearGradient id="linearGradient4147-75" x1="-26.699" x2="-6.722" y1="210.772" y2="210.772" gradientTransform="matrix(-0.94557107,0,0,0.94528767,4.5539298,-170.89981)" gradientUnits="userSpaceOnUse" xlink:href="#linearGradient4223-166"/><linearGradient id="linearGradient4223-166"><stop id="stop4157" offset="0" style="stop-color:#000;stop-opacity:1"/><stop id="stop4159" offset="1" style="stop-color:#484848;stop-opacity:1"/></linearGradient></defs><path id="path4145" d="m 28.390522,8.9964218 c 0.936684,0.9364014 1.408802,2.0649242 1.408802,3.3775612 0,1.560662 -0.632566,2.825073 -1.905494,3.777452 1.601134,0.184149 2.946344,0.880746 4.035164,2.089202 1.096776,1.200513 1.640946,2.624761 1.640946,4.265499 0,1.312528 -0.35208,2.488969 -1.064569,3.529444 -0.696509,1.040388 -1.601243,1.817002 -2.706047,2.329243 2.577825,0.984429 4.691472,2.624844 6.3327,4.921895 1.64122,2.304989 2.457966,4.898338 2.457966,7.787507 -0.03453,1.683 -0.393667,3.528614 -0.91264,4.897994 l -0.02443,0 c -8.435458,0 -16.870913,0 -25.306371,0 l -0.0239,0 c -0.589006,-1.765023 -0.894074,-3.231401 -0.91264,-4.897994 0,-2.889169 0.816745,-5.482518 2.457965,-7.787507 1.641228,-2.297051 3.754346,-3.937466 6.33217,-4.921895 -1.104806,-0.512241 -2.009007,-1.288855 -2.705517,-2.329243 -0.712489,-1.040475 -1.065099,-2.216916 -1.065099,-3.529444 0,-1.640738 0.544701,-3.064986 1.641476,-4.265499 1.088821,-1.208456 2.433497,-1.905053 4.034635,-2.089202 -1.272929,-0.952379 -1.905495,-2.21679 -1.905495,-3.777452 0,-1.312637 0.472649,-2.4411598 1.409333,-3.3775612 2.046051,-1.77307 4.824572,-1.903379 6.781044,0 z" style="clip-rule:evenodd;fill:url(#linearGradient4147-75);fill-opacity:1;fill-rule:evenodd;stroke:#000;stroke-width:1;stroke-linecap:round;stroke-linejoin:round;stroke-miterlimit:4;stroke-dasharray:none;stroke-opacity:1;image-rendering:optimizeQuality;shape-rendering:geometricPrecision;text-rendering:geometricPrecision"/></svg>