<svg xmlns="http://www.w3.org/2000/svg" xmlns:svg="http://www.w3.org/2000/svg" xmlns:xlink="http://www.w3.org/1999/xlink" id="svg2" width="50mm" height="50mm" fill-rule="evenodd" clip-rule="evenodd" image-rendering="optimizeQuality" shape-rendering="geometricPrecision" text-rendering="geometricPrecision" version="1.1" viewBox="0 0 50 50" xml:space="preserve"><metadata id="metadata13"/><defs id="defs11"><linearGradient id="linearGradient2165"><stop id="stop2167" offset="0" style="stop-color:#fff;stop-opacity:1"/><stop id="stop2169" offset="1" style="stop-color:#b7b7b7;stop-opacity:1"/></linearGradient><linearGradient id="linearGradient2165-148"><stop id="stop4159" offset="0" style="stop-color:#000;stop-opacity:1"/><stop id="stop4161" offset="1" style="stop-color:#484848;stop-opacity:1"/></linearGradient><linearGradient id="linearGradient8096" x1="21.192" x2="41.929" y1="37.552" y2="37.552" gradientTransform="matrix(0.99999995,0,0,1.0003165,1.6962169,-0.01456107)" gradientUnits="userSpaceOnUse" xlink:href="#linearGradient2165"/><linearGradient id="linearGradient8471" x1="206.193" x2="187.45" y1="24.736" y2="24.736" gradientTransform="matrix(3.3374939,0,0,3.5025866,-590.50736,9.7668821)" gradientUnits="userSpaceOnUse" xlink:href="#linearGradient2165-148"/><linearGradient id="linearGradient8329" x1="21.192" x2="41.929" y1="37.552" y2="37.552" gradientTransform="matrix(0.99999995,0,0,1.0003165,1.6962169,0.54988334)" gradientUnits="userSpaceOnUse" xlink:href="#linearGradient2165"/><linearGradient id="linearGradient8314" x1="21.192" x2="41.929" y1="37.552" y2="37.552" gradientTransform="matrix(0.99999995,0,0,1.0003165,1.6963999,-0.01456107)" gradientUnits="userSpaceOnUse" xlink:href="#linearGradient2165"/></defs><path style="clip-rule:evenodd;fill:url(#linearGradient8471);fill-opacity:1;fill-rule:evenodd;stroke:#000;stroke-width:3.39665985;stroke-opacity:1;image-rendering:optimizeQuality;shape-rendering:geometricPrecision;text-rendering:geometricPrecision" id="path8192" d="m 40.529297,23.068359 0,32.138672 18.369141,14.66211 0,18.523437 c -0.361176,13.428702 0.418842,26.744892 -3.832032,42.609372 l -2.117187,0.18555 c -7.708585,0.97002 -16.1875,4.28665 -16.1875,14.21094 l 0,17.56836 51.703125,0 0.236328,0 51.701168,0 0,-17.56836 c 0,-9.92512 -8.4784,-13.24123 -16.1875,-14.21094 l -2.11718,-0.18555 c -4.25087,-15.86448 -3.46891,-29.18067 -3.83008,-42.609372 l 0,-18.523437 18.36719,-14.66211 0,-32.138672 -22.33399,0 0,11.738282 -14.05273,0 0,-11.738282 -11.666019,0 -11.664062,0 0,11.738282 -14.052735,0 0,-11.738282 -22.333984,0 z" transform="scale(0.2822222,0.2822222)"/><path style="fill:url(#linearGradient8096);fill-opacity:1" id="path8318" d="m 13.046713,13.142372 0,1.663567 0.705556,0.563342 0.37207,0.280017 21.772451,0 1.056129,-0.843359 0,-1.663567 -11.940425,0 z"/><path style="fill:url(#linearGradient8314);fill-opacity:1" id="path8316" d="m 16.213628,17.334363 2.016896,1.6101 0,0.973446 13.538949,0 0,-0.973446 2.016896,-1.6101 -8.78637,0 z"/><path style="fill:url(#linearGradient8329);fill-opacity:1" id="path8314" d="m 18.230341,38.530242 -1.607343,0 c -1.060997,0 -2.443982,0.16015 -3.339813,0.572713 -0.895831,0.412561 -1.298663,0.732387 -1.298663,1.931459 l 0,0.37115 26.031139,0 0,-0.37115 c 0,-1.199072 -0.402833,-1.518898 -1.298663,-1.931459 -0.895832,-0.412563 -2.278814,-0.572713 -3.339815,-0.572713 l -1.607893,0 z"/><path style="fill:url(#linearGradient8096);fill-opacity:1" id="path8108" d="m 11.984522,43.190975 0,1.193174 12.982221,0 0.0667,0 12.982221,0 0,-1.193174 z"/></svg>