<svg xmlns="http://www.w3.org/2000/svg" xmlns:svg="http://www.w3.org/2000/svg" xmlns:xlink="http://www.w3.org/1999/xlink" id="svg2" width="353.63" height="353.63" version="1.0"><defs id="defs4"><linearGradient id="linearGradient3693"><stop style="stop-color:#ffff82;stop-opacity:1" id="stop3695" offset="0"/><stop style="stop-color:#ffff82;stop-opacity:0" id="stop3697" offset="1"/></linearGradient><linearGradient id="linearGradient3645"><stop style="stop-color:#ffff23;stop-opacity:.49803922" id="stop3649" offset="0"/><stop id="stop3651" offset="1" style="stop-color:#ffff23;stop-opacity:0"/></linearGradient><linearGradient id="linearGradient3635"><stop style="stop-color:#ffff23;stop-opacity:1" id="stop3637" offset="0"/><stop id="stop3643" offset=".5" style="stop-color:#ffff23;stop-opacity:.49803922"/><stop style="stop-color:#ffff23;stop-opacity:0" id="stop3639" offset="1"/></linearGradient><linearGradient id="linearGradient3721" x1="212.179" x2="145.873" y1="114.928" y2="79.565" gradientUnits="userSpaceOnUse" xlink:href="#linearGradient3693"/><linearGradient id="linearGradient9697-0-1" x1="216.92" x2="256.315" y1="276.287" y2="276.287" gradientUnits="userSpaceOnUse" xlink:href="#linearGradient9691"/><linearGradient id="linearGradient9691"><stop style="stop-color:#faed75;stop-opacity:1" id="stop9693" offset="0"/><stop style="stop-color:#faed75;stop-opacity:0" id="stop9695" offset="1"/></linearGradient><filter style="color-interpolation-filters:sRGB" id="filter9763-1-6" width="1.558" height="1.386" x="-.279" y="-.193"><feGaussianBlur id="feGaussianBlur9765-0-6" stdDeviation="4.579"/></filter><filter style="color-interpolation-filters:sRGB" id="filter9763-1" width="1.558" height="1.386" x="-.279" y="-.193"><feGaussianBlur id="feGaussianBlur9765-0" stdDeviation="4.579"/></filter><filter style="color-interpolation-filters:sRGB" id="filter9763-9" width="1.558" height="1.386" x="-.279" y="-.193"><feGaussianBlur id="feGaussianBlur9765-9" stdDeviation="4.579"/></filter><filter style="color-interpolation-filters:sRGB" id="filter9763" width="1.558" height="1.386" x="-.279" y="-.193"><feGaussianBlur id="feGaussianBlur9765" stdDeviation="4.579"/></filter><filter style="color-interpolation-filters:sRGB" id="filter7658-4-8-8-7-5-2-9-9-3-5" width="1.053" height="2.132" x="-.026" y="-.566"><feGaussianBlur id="feGaussianBlur7660-2-0-5-8-0-5-22-1-3-7" stdDeviation=".85"/></filter><filter style="color-interpolation-filters:sRGB" id="filter7658-4-8-8-7-5-2-9-9-3" width="1.053" height="2.132" x="-.026" y="-.566"><feGaussianBlur id="feGaussianBlur7660-2-0-5-8-0-5-22-1-3" stdDeviation=".85"/></filter><filter style="color-interpolation-filters:sRGB" id="filter7658-4-8-8-7-5-2-9-9" width="1.053" height="2.132" x="-.026" y="-.566"><feGaussianBlur id="feGaussianBlur7660-2-0-5-8-0-5-22-1" stdDeviation=".85"/></filter><linearGradient id="linearGradient6041" x1="216.92" x2="256.315" y1="276.287" y2="276.287" gradientUnits="userSpaceOnUse" xlink:href="#linearGradient9691"/><linearGradient id="linearGradient6043" x1="216.92" x2="256.315" y1="276.287" y2="276.287" gradientUnits="userSpaceOnUse" xlink:href="#linearGradient9691"/><linearGradient id="linearGradient6045" x1="216.92" x2="256.315" y1="276.287" y2="276.287" gradientUnits="userSpaceOnUse" xlink:href="#linearGradient9691"/><filter style="color-interpolation-filters:sRGB" id="filter7658-4-8-9-2" width="1.053" height="2.132" x="-.026" y="-.566"><feGaussianBlur id="feGaussianBlur7660-2-0-8-8" stdDeviation=".85"/></filter><filter style="color-interpolation-filters:sRGB" id="filter7658-4-8-9" width="1.053" height="2.132" x="-.026" y="-.566"><feGaussianBlur id="feGaussianBlur7660-2-0-8" stdDeviation=".85"/></filter><filter style="color-interpolation-filters:sRGB" id="filter7658-4-8-3" width="1.053" height="2.132" x="-.026" y="-.566"><feGaussianBlur id="feGaussianBlur7660-2-0-9" stdDeviation=".85"/></filter><filter style="color-interpolation-filters:sRGB" id="filter7658-4-8" width="1.053" height="2.132" x="-.026" y="-.566"><feGaussianBlur id="feGaussianBlur7660-2-0" stdDeviation=".85"/></filter><filter style="color-interpolation-filters:sRGB" id="filter7658-4" width="1.053" height="2.132" x="-.026" y="-.566"><feGaussianBlur id="feGaussianBlur7660-2" stdDeviation=".85"/></filter><filter style="color-interpolation-filters:sRGB" id="filter7658" width="1.053" height="2.132" x="-.026" y="-.566"><feGaussianBlur id="feGaussianBlur7660" stdDeviation=".85"/></filter><filter style="color-interpolation-filters:sRGB" id="filter8959" width="1.424" height="1.431" x="-.212" y="-.215"><feGaussianBlur id="feGaussianBlur8961" stdDeviation="3.354"/></filter></defs><metadata id="metadata7"/><g id="layer4" style="display:inline"><path style="display:inline;opacity:1;fill:none;fill-rule:evenodd;stroke:#000;stroke-width:1.83399272px;stroke-linecap:butt;stroke-linejoin:miter;stroke-opacity:1" id="path7873-6-7-4" d="m 221.80731,302.24926 0,0"/><path style="display:inline;opacity:1;fill:none;fill-rule:evenodd;stroke:#000;stroke-width:2.5062232;stroke-linecap:butt;stroke-linejoin:miter;stroke-miterlimit:4;stroke-dasharray:none;stroke-opacity:1" id="path4315-1-6" d="m 184.33769,258.72674 71.71823,0.41845 c -1.32974,37.4358 27.67009,46.83133 30.13525,55.47739 l 0,0 0,0"/><path style="display:inline;opacity:1;fill:none;fill-rule:evenodd;stroke:#000;stroke-width:1.83399272px;stroke-linecap:butt;stroke-linejoin:miter;stroke-opacity:1" id="path7873-6-5-1-1" d="m 147.32531,302.15578 0,0"/><path style="display:inline;opacity:1;fill:none;fill-rule:evenodd;stroke:#000;stroke-width:2.52826762;stroke-linecap:butt;stroke-linejoin:miter;stroke-miterlimit:4;stroke-dasharray:none;stroke-opacity:1" id="path4315-37-3-4" d="m 184.78509,258.64539 -71.70461,0.42593"/><path style="display:inline;opacity:1;fill:#d5930f;fill-opacity:1;fill-rule:evenodd;stroke:#000;stroke-width:1.22967315px;stroke-linecap:butt;stroke-linejoin:miter;stroke-opacity:1" id="path11539" d="m 112.18989,259.11257 144.96531,0 c -6.32839,19.48184 13.27191,41.77588 24.30285,48.98348 6.29038,4.11009 4.68663,7.51182 3.03995,6.54058 L 81.765875,314.07306 c 21.529975,-16.294 33.818555,-34.23213 30.424015,-54.96049 z"/><path style="display:inline;fill:#d5930f;fill-opacity:1;fill-rule:evenodd;stroke:#000;stroke-width:1.25475264px;stroke-linecap:butt;stroke-linejoin:miter;stroke-opacity:1" id="path11595" d="m 166.65494,174.07571 38.0968,0.31737 c 4.41178,26.98086 2.36284,59.65695 17.84956,76.80123 l -74.86153,-0.63471 c 19.27131,-37.75612 12.95359,-51.31408 18.91517,-76.48389 z"/></g><g id="layer3" style="display:inline"><path style="display:inline;opacity:1;fill:none;fill-rule:evenodd;stroke:#000;stroke-width:1.22967315px;stroke-linecap:butt;stroke-linejoin:miter;stroke-opacity:1" id="path11539-4" d="m 112.56176,258.53523 144.96529,0 c -6.32838,19.48185 13.27192,41.77589 24.30286,48.98348 6.29038,4.1101 4.68663,7.51183 3.03995,6.54059 L 82.137739,313.49572 c 21.529971,-16.294 33.818561,-34.23213 30.424021,-54.96049 z"/><path style="display:inline;fill:none;fill-opacity:1;fill-rule:evenodd;stroke:#000;stroke-width:1.25475264px;stroke-linecap:butt;stroke-linejoin:miter;stroke-opacity:1" id="path11595-2" d="m 166.90901,173.19672 38.0968,0.31736 c 4.41178,26.98087 2.36283,59.65695 17.84956,76.80124 l -74.86154,-0.63468 c 19.27131,-37.75615 12.95361,-51.31411 18.91518,-76.48392 z"/><ellipse style="display:inline;opacity:.73400005;fill:#0f0f00;fill-opacity:1;fill-rule:evenodd;stroke:none;stroke-width:0;stroke-miterlimit:4;stroke-dasharray:none;stroke-opacity:.41717793;filter:url(#filter7658-4-8-8-7-5-2-9-9)" id="path7456-2-6-7-2-9-0-6-59" cx="237.928" cy="239.254" rx="38.672" ry="1.802" transform="matrix(0.44927941,0,0,1.3408984,75.88032,-142.95441)"/><ellipse style="display:inline;opacity:.73400005;fill:#0f0f00;fill-opacity:1;fill-rule:evenodd;stroke:none;stroke-width:0;stroke-miterlimit:4;stroke-dasharray:none;stroke-opacity:.41717793;filter:url(#filter7658-4-8-8-7-5-2-9-9-3)" id="path7456-2-6-7-2-9-0-6-59-1" cx="237.928" cy="239.254" rx="38.672" ry="1.802" transform="matrix(2.6488008,0,0,1.7957074,-445.78134,-116.27887)"/><ellipse style="display:inline;opacity:.73400005;fill:#0f0f00;fill-opacity:1;fill-rule:evenodd;stroke:none;stroke-width:0;stroke-miterlimit:4;stroke-dasharray:none;stroke-opacity:.41717793;filter:url(#filter7658-4-8-8-7-5-2-9-9-3-5)" id="path7456-2-6-7-2-9-0-6-59-1-7" cx="237.928" cy="239.254" rx="38.672" ry="1.802" transform="matrix(0.9685061,0,0,1.0490082,-45.374923,-2.3533457)"/><path style="display:inline;opacity:.578;fill:url(#linearGradient6041);fill-opacity:1;fill-rule:evenodd;stroke:none;stroke-width:1px;stroke-linecap:butt;stroke-linejoin:miter;stroke-opacity:1;filter:url(#filter9763)" id="path9545-8-1-3" d="m 216.91984,247.78331 c 4.83801,57.00719 4.83801,56.64639 4.83801,56.64639 l 34.55721,0.3608 c -9.98474,-16.40437 -19.73167,-32.98709 -20.04317,-56.64639 z" transform="matrix(0.97497301,0,0,0.8357659,9.8905148,53.943258)"/><path style="display:inline;opacity:.578;fill:url(#linearGradient6043);fill-opacity:1;fill-rule:evenodd;stroke:none;stroke-width:1px;stroke-linecap:butt;stroke-linejoin:miter;stroke-opacity:1;filter:url(#filter9763-9)" id="path9545-8-1-3-3" d="m 216.91984,247.78331 c 4.83801,57.00719 4.83801,56.64639 4.83801,56.64639 l 34.55721,0.3608 c -9.98474,-16.40437 -19.73167,-32.98709 -20.04317,-56.64639 z" transform="matrix(-0.97497301,0,0,0.8357659,355.8237,52.852395)"/><path style="display:inline;opacity:.578;fill:url(#linearGradient6045);fill-opacity:1;fill-rule:evenodd;stroke:none;stroke-width:1px;stroke-linecap:butt;stroke-linejoin:miter;stroke-opacity:1;filter:url(#filter9763-1)" id="path9545-8-1-3-7" d="m 216.91984,247.78331 c 4.83801,57.00719 4.83801,56.64639 4.83801,56.64639 l 34.55721,0.3608 c -9.98474,-16.40437 -19.73167,-32.98709 -20.04317,-56.64639 z" transform="matrix(-0.63507134,0,0,0.98040741,320.39858,-59.82081)"/><path style="display:inline;opacity:.578;fill:url(#linearGradient9697-0-1);fill-opacity:1;fill-rule:evenodd;stroke:none;stroke-width:1px;stroke-linecap:butt;stroke-linejoin:miter;stroke-opacity:1;filter:url(#filter9763-1-6)" id="path9545-8-1-3-7-2" d="m 216.91984,247.78331 c 4.83801,57.00719 4.83801,56.64639 4.83801,56.64639 l 34.55721,0.3608 c -9.98474,-16.40437 -19.73167,-32.98709 -20.04317,-56.64639 z" transform="matrix(0.63507134,0,0,0.98040741,52.579835,-57.744771)"/></g><g id="layer6" style="display:inline"><path style="display:inline;fill:#505050;fill-opacity:1;fill-rule:evenodd;stroke:#000;stroke-width:1.07163143px;stroke-linecap:butt;stroke-linejoin:miter;stroke-opacity:1" id="path9774-2-8" d="m 114.2693,250.11123 140.86521,0 c 6.12827,0.1252 6.08776,8.22508 -0.38177,8.23893 l -139.91083,-0.32308 c -7.02397,0.0573 -6.94823,-7.92251 -0.57261,-7.91585 z"/><path style="display:inline;fill:#461e00;fill-opacity:1;fill-rule:evenodd;stroke:#000;stroke-width:.67615008px;stroke-linecap:butt;stroke-linejoin:miter;stroke-opacity:1" id="path9774-1-8-6-6-3" d="m 150.68027,168.54028 68.77612,0 c 1.32201,-0.11782 1.84208,0.8887 2.6094,2.76619 0.031,2.48378 -1.09152,3.57016 -2.79578,3.95171 l -68.31018,-0.26343 c -1.48805,0.47232 -2.7643,-0.39671 -3.26174,-3.42482 0.0685,-2.31822 1.44435,-2.78834 2.98218,-3.02965 z"/><path style="display:inline;fill:#461e00;fill-opacity:1;fill-rule:evenodd;stroke:#000;stroke-width:1.24198127px;stroke-linecap:butt;stroke-linejoin:miter;stroke-opacity:1" id="path9774-1-8-6-6" d="m 83.085116,314.61496 203.447994,0 c 6.6609,0.0242 7.28794,7.63705 -0.55135,7.66234 L 83.912124,321.97681 c -9.887463,0.0439 -10.215075,-7.32661 -0.827008,-7.36185 z"/></g><g id="layer7" style="display:inline"><path style="display:inline;fill:none;fill-opacity:1;fill-rule:evenodd;stroke:#000;stroke-width:1.07163143px;stroke-linecap:butt;stroke-linejoin:miter;stroke-opacity:1" id="path9774-2-8-2" d="m 114.73317,250.30406 140.86519,0 c 6.12828,0.12521 6.08777,8.22509 -0.38176,8.23894 l -139.91082,-0.32308 c -7.02398,0.0573 -6.94823,-7.92252 -0.57261,-7.91586 z"/><path style="display:inline;fill:#505050;fill-opacity:1;fill-rule:evenodd;stroke:#000;stroke-width:.67739093px;stroke-linecap:butt;stroke-linejoin:miter;stroke-opacity:1" id="path9774-1-8-6-6-3-0" d="m 151.07842,168.77497 69.0428,0 c 1.32713,-0.1178 1.84922,0.88851 2.61952,2.76562 0.0311,2.48328 -1.09576,3.56943 -2.80662,3.95091 l -68.57506,-0.26339 c -1.49383,0.47223 -2.77501,-0.39662 -3.27439,-3.42412 0.0687,-2.31774 1.44995,-2.78776 2.99375,-3.02902 z"/><path style="display:inline;fill:#505050;fill-opacity:1;fill-rule:evenodd;stroke:#000;stroke-width:1.24198127px;stroke-linecap:butt;stroke-linejoin:miter;stroke-opacity:1" id="path9774-1-8-6-6-0" d="m 83.085114,315.19349 203.447986,0 c 6.6609,0.0242 7.28794,7.63705 -0.55135,7.66234 L 83.912122,322.55534 c -9.887466,0.0439 -10.215077,-7.32661 -0.827008,-7.36185 z"/><ellipse style="display:inline;opacity:.73400005;fill:#f8f2f2;fill-opacity:1;fill-rule:evenodd;stroke:none;stroke-width:0;stroke-miterlimit:4;stroke-dasharray:none;stroke-opacity:.41717793;filter:url(#filter7658)" id="path7456" cx="241.467" cy="317.682" rx="38.672" ry="1.802" transform="matrix(1.000857,0,0,0.83214822,-0.15766477,54.216546)"/><ellipse style="display:inline;opacity:.73400005;fill:#f8f2f2;fill-opacity:1;fill-rule:evenodd;stroke:none;stroke-width:0;stroke-miterlimit:4;stroke-dasharray:none;stroke-opacity:.41717793;filter:url(#filter7658-4)" id="path7456-2" cx="133.318" cy="317.846" rx="38.672" ry="1.802" transform="matrix(1.000857,0,0,0.83214822,-0.15766477,54.216546)"/><ellipse style="display:inline;opacity:.73400005;fill:#f8f2f2;fill-opacity:1;fill-rule:evenodd;stroke:none;stroke-width:0;stroke-miterlimit:4;stroke-dasharray:none;stroke-opacity:.41717793;filter:url(#filter7658-4-8)" id="path7456-2-6" cx="237.928" cy="239.254" rx="38.672" ry="1.802" transform="matrix(0.66438238,0,0,0.77787493,69.336764,68.240816)"/><ellipse style="display:inline;opacity:.73400005;fill:#f8f2f2;fill-opacity:1;fill-rule:evenodd;stroke:none;stroke-width:0;stroke-miterlimit:4;stroke-dasharray:none;stroke-opacity:.41717793;filter:url(#filter7658-4-8-3)" id="path7456-2-6-1" cx="237.928" cy="239.254" rx="38.672" ry="1.802" transform="matrix(0.66438238,0,0,0.77787493,-12.008668,67.968112)"/><ellipse style="display:inline;opacity:.73400005;fill:#f8f2f2;fill-opacity:1;fill-rule:evenodd;stroke:none;stroke-width:0;stroke-miterlimit:4;stroke-dasharray:none;stroke-opacity:.41717793;filter:url(#filter7658-4-8-9)" id="path7456-2-6-13" cx="237.928" cy="239.254" rx="38.672" ry="1.802" transform="matrix(0.31921081,0,0,0.71966304,133.09422,0.08738962)"/><ellipse style="display:inline;opacity:.73400005;fill:#f8f2f2;fill-opacity:1;fill-rule:evenodd;stroke:none;stroke-width:0;stroke-miterlimit:4;stroke-dasharray:none;stroke-opacity:.41717793;filter:url(#filter7658-4-8-9-2)" id="path7456-2-6-13-7" cx="237.928" cy="239.254" rx="38.672" ry="1.802" transform="matrix(0.35006758,0,0,0.70297018,82.806567,3.7987546)"/></g><g id="layer8" style="display:inline"><ellipse style="opacity:1;fill:#505050;fill-opacity:1;fill-rule:evenodd;stroke:#000;stroke-width:3;stroke-miterlimit:4;stroke-dasharray:none;stroke-opacity:1" id="path6122" cx="185.67" cy="125.274" rx="30.126" ry="28.272"/><path style="fill:#505050;fill-opacity:1;fill-rule:evenodd;stroke:#000;stroke-width:1.0340209px;stroke-linecap:butt;stroke-linejoin:miter;stroke-opacity:1" id="path6126" d="m 168.15166,148.83586 c 8.17066,6.23521 9.93289,12.60191 0,19.30732 l 34.68454,0 c -8.01412,-5.71973 -8.65934,-11.79224 -0.25277,-18.92874 -12.4792,3.20502 -23.68,2.80566 -34.43177,-0.37858 z"/></g><g id="layer9" style="display:inline"><ellipse style="opacity:.83800001;fill:#ccc;fill-opacity:1;fill-rule:evenodd;stroke:none;stroke-width:0;stroke-miterlimit:4;stroke-dasharray:none;stroke-opacity:.41717793;filter:url(#filter8959)" id="path6128" cx="185.82" cy="118.651" rx="19.008" ry="18.68" transform="matrix(1.1123262,0,0,1.1824447,-20.88138,-14.437328)"/></g><g id="layer1" style="display:none;opacity:1"><rect style="opacity:.24800002;fill:none;fill-opacity:0;fill-rule:evenodd;stroke:#b50000;stroke-width:15.75340939;stroke-miterlimit:4;stroke-dasharray:none;stroke-opacity:0" id="rect7397" width="98.536" height="15.384" x="174.589" y="31.567" ry="7.435"/><rect style="opacity:.24800002;fill:none;fill-opacity:0;fill-rule:evenodd;stroke:#b50000;stroke-width:21;stroke-miterlimit:4;stroke-dasharray:none;stroke-opacity:0" id="rect7399" width="95.012" height="43.103" x="135.798" y="101.501" ry="7.435"/><use id="use7401" width="100%" height="100%" x="0" y="0" transform="translate(-64.903988,-41.89831)" xlink:href="#rect7399" style="fill:none"/><use id="use7403" width="100%" height="100%" x="0" y="0" transform="translate(-54.630278,-23.322448)" xlink:href="#rect7399" style="fill:none"/><use id="use7405" width="100%" height="100%" x="0" y="0" transform="translate(-52.875268,-21.039501)" xlink:href="#rect7399" style="fill:none"/><use id="use7407" width="100%" height="100%" x="0" y="0" transform="translate(-50.010348,-24.881165)" xlink:href="#rect7399" style="fill:none"/><use id="use7409" width="100%" height="100%" x="0" y="0" transform="translate(-42.702768,-14.078738)" xlink:href="#rect7399" style="fill:none"/><use id="use7411" width="100%" height="100%" x="0" y="0" transform="translate(-42.829048,-7.8951467)" xlink:href="#rect7399" style="fill:none"/><use id="use7413" width="100%" height="100%" x="0" y="0" transform="translate(-43.893078,-16.473312)" xlink:href="#rect7399" style="fill:none"/><use id="use7415" width="100%" height="100%" x="0" y="0" transform="translate(-52.516478,-15.263686)" xlink:href="#rect7399" style="fill:none"/><use id="use7417" width="100%" height="100%" x="0" y="0" transform="translate(-45.488638,-3.7118887)" xlink:href="#rect7399" style="fill:none"/><use id="use7419" width="100%" height="100%" x="0" y="0" transform="translate(-52.287658,2.6307273)" xlink:href="#rect7399" style="fill:none"/><use id="use7421" width="100%" height="100%" x="0" y="0" transform="translate(-49.313998,-6.4787037)" xlink:href="#rect7399" style="fill:none"/><use id="use7423" width="100%" height="100%" x="0" y="0" transform="translate(-38.175978,15.642167)" xlink:href="#rect7399" style="fill:none"/><use id="use7425" width="100%" height="100%" x="0" y="0" transform="translate(-41.453328,-4.8572997)" xlink:href="#rect7399" style="fill:none"/><use id="use7427" width="100%" height="100%" x="0" y="0" transform="translate(-31.740128,6.8546172)" xlink:href="#rect7399" style="fill:none"/><use id="use7429" width="100%" height="100%" x="0" y="0" transform="translate(-42.463428,30.219905)" xlink:href="#rect7399" style="fill:none"/><use id="use7431" width="100%" height="100%" x="0" y="0" transform="translate(-33.334478,36.364809)" xlink:href="#rect7399" style="fill:none"/><use id="use7433" width="100%" height="100%" x="0" y="0" transform="translate(-29.673778,33.820059)" xlink:href="#rect7399" style="fill:none"/><use id="use7435" width="100%" height="100%" x="0" y="0" transform="translate(-42.849868,30.11827)" xlink:href="#rect7399" style="fill:none"/><use id="use7437" width="100%" height="100%" x="0" y="0" transform="translate(-36.914328,14.124709)" xlink:href="#rect7399" style="fill:none"/><use id="use7439" width="100%" height="100%" x="0" y="0" transform="translate(-19.254398,20.987022)" xlink:href="#rect7399" style="fill:none"/><use id="use7441" width="100%" height="100%" x="0" y="0" transform="translate(-33.871448,39.680308)" xlink:href="#rect7399" style="fill:none"/><use id="use7443" width="100%" height="100%" x="0" y="0" transform="translate(-20.180308,27.115187)" xlink:href="#rect7399" style="fill:none"/><use id="use7445" width="100%" height="100%" x="0" y="0" transform="translate(-30.206968,33.953632)" xlink:href="#rect7399" style="fill:none"/><use id="use7447" width="100%" height="100%" x="0" y="0" transform="translate(-71.992798,-40.853477)" xlink:href="#rect7399" style="fill:none"/><use id="use7449" width="100%" height="100%" x="0" y="0" transform="translate(-73.466038,-30.090479)" xlink:href="#rect7399" style="fill:none"/><use id="use7451" width="100%" height="100%" x="0" y="0" transform="translate(-58.965348,-41.130145)" xlink:href="#rect7399" style="fill:none"/><use id="use7453" width="100%" height="100%" x="0" y="0" transform="translate(-9.9403077,46.363562)" xlink:href="#rect7399" style="fill:none"/><use id="use7455" width="100%" height="100%" x="0" y="0" transform="translate(-50.307838,1.2081263)" xlink:href="#rect7399" style="fill:none"/><use id="use7457" width="100%" height="100%" x="0" y="0" transform="translate(-42.353338,-14.111704)" xlink:href="#rect7399" style="fill:none"/><use id="use7459" width="100%" height="100%" x="0" y="0" transform="translate(-56.755728,-4.9357457)" xlink:href="#rect7399" style="fill:none"/><use id="use7461" width="100%" height="100%" x="0" y="0" transform="translate(-40.494628,1.2178173)" xlink:href="#rect7399" style="fill:none"/><use id="use7463" width="100%" height="100%" x="0" y="0" transform="translate(-47.773908,20.269536)" xlink:href="#rect7399" style="fill:none"/><use id="use7465" width="100%" height="100%" x="0" y="0" transform="translate(-53.656258,11.353041)" xlink:href="#rect7399" style="fill:none"/><use id="use7467" width="100%" height="100%" x="0" y="0" transform="translate(-41.873218,19.652604)" xlink:href="#rect7399" style="fill:none"/><use id="use7469" width="100%" height="100%" x="0" y="0" transform="translate(-44.648678,17.511905)" xlink:href="#rect7399" style="fill:none"/><use id="use7471" width="100%" height="100%" x="0" y="0" transform="translate(-9.8052077,25.749294)" xlink:href="#rect7399" style="fill:none"/><use id="use7473" width="100%" height="100%" x="0" y="0" transform="translate(-8.8370677,42.959665)" xlink:href="#rect7399" style="fill:none"/><use id="use7475" width="100%" height="100%" x="0" y="0" transform="translate(-18.669548,37.083324)" xlink:href="#rect7399" style="fill:none"/><use id="use7477" width="100%" height="100%" x="0" y="0" transform="translate(-22.848008,21.444351)" xlink:href="#rect7399" style="fill:none"/><use id="use7479" width="100%" height="100%" x="0" y="0" transform="translate(-4.4861477,25.781344)" xlink:href="#rect7399" style="fill:none"/><use id="use7481" width="100%" height="100%" x="0" y="0" transform="translate(-0.4867377,36.134685)" xlink:href="#rect7399" style="fill:none"/><use id="use7483" width="100%" height="100%" x="0" y="0" transform="translate(-14.659768,38.821224)" xlink:href="#rect7399" style="fill:none"/><use id="use7485" width="100%" height="100%" x="0" y="0" transform="translate(10.706172,25.024276)" xlink:href="#rect7399" style="fill:none"/><use id="use7487" width="100%" height="100%" x="0" y="0" transform="translate(7.7617123,9.6753892)" xlink:href="#rect7399" style="fill:none"/><use id="use7489" width="100%" height="100%" x="0" y="0" transform="translate(-5.4250977,13.018049)" xlink:href="#rect7399" style="fill:none"/><use id="use7491" width="100%" height="100%" x="0" y="0" transform="translate(13.752192,19.389891)" xlink:href="#rect7399" style="fill:none"/><use id="use7493" width="100%" height="100%" x="0" y="0" transform="translate(4.3792323,1.5679133)" xlink:href="#rect7399" style="fill:none"/><use id="use7495" width="100%" height="100%" x="0" y="0" transform="translate(4.8274423,5.2908642)" xlink:href="#rect7399" style="fill:none"/><use id="use7497" width="100%" height="100%" x="0" y="0" transform="translate(14.092492,16.743036)" xlink:href="#rect7399" style="fill:none"/><use id="use7499" width="100%" height="100%" x="0" y="0" transform="translate(6.6919023,19.447885)" xlink:href="#rect7399" style="fill:none"/><use id="use7501" width="100%" height="100%" x="0" y="0" transform="translate(10.322812,8.8875972)" xlink:href="#rect7399" style="fill:none"/><use id="use7503" width="100%" height="100%" x="0" y="0" transform="translate(15.825152,9.3716602)" xlink:href="#rect7399" style="fill:none"/><use id="use7505" width="100%" height="100%" x="0" y="0" transform="translate(30.736052,22.464932)" xlink:href="#rect7399" style="fill:none"/><use id="use7507" width="100%" height="100%" x="0" y="0" transform="translate(33.254112,16.676737)" xlink:href="#rect7399" style="fill:none"/><use id="use7509" width="100%" height="100%" x="0" y="0" transform="translate(41.953052,1.6094843)" xlink:href="#rect7399" style="fill:none"/><use id="use7511" width="100%" height="100%" x="0" y="0" transform="translate(50.700322,4.4116953)" xlink:href="#rect7399" style="fill:none"/><use id="use7513" width="100%" height="100%" x="0" y="0" transform="translate(45.375102,1.7143633)" xlink:href="#rect7399" style="fill:none"/><use id="use7515" width="100%" height="100%" x="0" y="0" transform="translate(53.936022,-6.3420517)" xlink:href="#rect7399" style="fill:none"/><use id="use7517" width="100%" height="100%" x="0" y="0" transform="translate(45.693362,-3.8895887)" xlink:href="#rect7399" style="fill:none"/><use id="use7519" width="100%" height="100%" x="0" y="0" transform="translate(6.2227223,2.1699073)" xlink:href="#rect7399" style="fill:none"/><use id="use7521" width="100%" height="100%" x="0" y="0" transform="translate(6.1714023,24.798813)" xlink:href="#rect7399" style="fill:none"/><use id="use7523" width="100%" height="100%" x="0" y="0" transform="translate(16.744382,3.8861273)" xlink:href="#rect7399" style="fill:none"/><use id="use7525" width="100%" height="100%" x="0" y="0" transform="translate(5.9882723,7.4498762)" xlink:href="#rect7399" style="fill:none"/><use id="use7527" width="100%" height="100%" x="0" y="0" transform="translate(34.136022,4.1062143)" xlink:href="#rect7399" style="fill:none"/><use id="use7675" width="100%" height="100%" x="0" y="0" transform="translate(108.95883,-77.138416)" xlink:href="#rect7399" style="fill:none"/><use id="use7677" width="100%" height="100%" x="0" y="0" transform="translate(102.65719,-96.198746)" xlink:href="#rect7399" style="fill:none"/><use id="use7679" width="100%" height="100%" x="0" y="0" transform="translate(103.18991,-78.314982)" xlink:href="#rect7399" style="fill:none"/><use id="use7681" width="100%" height="100%" x="0" y="0" transform="translate(107.51716,-77.726317)" xlink:href="#rect7399" style="fill:none"/><use id="use7683" width="100%" height="100%" x="0" y="0" transform="translate(-189.40701,-109.54291)" xlink:href="#rect7399"/><use id="use7685" width="100%" height="100%" x="0" y="0" transform="translate(-184.52498,-87.584916)" xlink:href="#rect7399"/><use id="use7687" width="100%" height="100%" x="0" y="0" transform="translate(-180.47375,-98.464782)" xlink:href="#rect7399"/><use id="use7689" width="100%" height="100%" x="0" y="0" transform="translate(-194.97424,-96.184724)" xlink:href="#rect7399"/><use id="use7691" width="100%" height="100%" x="0" y="0" transform="translate(-178.84017,-98.816158)" xlink:href="#rect7399"/><use id="use7693" width="100%" height="100%" x="0" y="0" transform="translate(-175.65156,-110.05787)" xlink:href="#rect7399"/><use id="use7695" width="100%" height="100%" x="0" y="0" transform="translate(-188.40081,-96.272896)" xlink:href="#rect7399"/><use id="use7697" width="100%" height="100%" x="0" y="0" transform="translate(-188.83295,-99.698348)" xlink:href="#rect7399"/><use id="use7699" width="100%" height="100%" x="0" y="0" transform="translate(-164.63409,-89.416982)" xlink:href="#rect7399"/><use id="use7701" width="100%" height="100%" x="0" y="0" transform="translate(-169.8306,-87.695945)" xlink:href="#rect7399"/><use id="use7703" width="100%" height="100%" x="0" y="0" transform="translate(-178.48957,-96.162724)" xlink:href="#rect7399"/><use id="use7705" width="100%" height="100%" x="0" y="0" transform="translate(-180.16514,-104.74174)" xlink:href="#rect7399"/><use id="use7707" width="100%" height="100%" x="0" y="0" transform="translate(-168.90299,-92.178355)" xlink:href="#rect7399"/><use id="use7709" width="100%" height="100%" x="0" y="0" transform="translate(-169.41576,-89.706828)" xlink:href="#rect7399"/><use id="use7711" width="100%" height="100%" x="0" y="0" transform="translate(-190.31985,-94.328979)" xlink:href="#rect7399"/><use id="use7713" width="100%" height="100%" x="0" y="0" transform="translate(-176.4587,-105.83333)" xlink:href="#rect7399"/><use id="use7715" width="100%" height="100%" x="0" y="0" transform="translate(-190.36889,-103.73294)" xlink:href="#rect7399"/><use id="use7717" width="100%" height="100%" x="0" y="0" transform="translate(-191.98469,-94.094167)" xlink:href="#rect7399"/><use id="use7719" width="100%" height="100%" x="0" y="0" transform="translate(-185.98682,-110.45451)" xlink:href="#rect7399"/><use id="use7721" width="100%" height="100%" x="0" y="0" transform="translate(-192.66674,-89.323234)" xlink:href="#rect7399"/><use id="use7723" width="100%" height="100%" x="0" y="0" transform="translate(-201.8856,-83.060961)" xlink:href="#rect7399"/><use id="use7725" width="100%" height="100%" x="0" y="0" transform="translate(-197.83889,-102.27257)" xlink:href="#rect7399"/><use id="use7727" width="100%" height="100%" x="0" y="0" transform="translate(-204.59253,-81.77834)" xlink:href="#rect7399"/><use id="use7729" width="100%" height="100%" x="0" y="0" transform="translate(103.29178,-83.910815)" xlink:href="#rect7399" style="fill:none"/><use id="use7731" width="100%" height="100%" x="0" y="0" transform="translate(97.065542,-83.578454)" xlink:href="#rect7399" style="fill:none"/><use id="use7733" width="100%" height="100%" x="0" y="0" transform="translate(98.261632,-90.561909)" xlink:href="#rect7399" style="fill:none"/><use id="use7735" width="100%" height="100%" x="0" y="0" transform="translate(-204.31185,-90.300805)" xlink:href="#rect7399"/><use id="use7737" width="100%" height="100%" x="0" y="0" transform="translate(-186.29916,-94.246255)" xlink:href="#rect7399"/><use id="use7739" width="100%" height="100%" x="0" y="0" transform="translate(-192.38341,-116.793)" xlink:href="#rect7399"/><use id="use7741" width="100%" height="100%" x="0" y="0" transform="translate(-201.39616,-108.38936)" xlink:href="#rect7399"/><use id="use7743" width="100%" height="100%" x="0" y="0" transform="translate(-198.49941,-95.19753)" xlink:href="#rect7399"/><use id="use7745" width="100%" height="100%" x="0" y="0" transform="translate(-182.58904,-121.54104)" xlink:href="#rect7399"/><use id="use7747" width="100%" height="100%" x="0" y="0" transform="translate(-185.55465,-102.20825)" xlink:href="#rect7399"/><use id="use7749" width="100%" height="100%" x="0" y="0" transform="translate(-141.65983,-112.10993)" xlink:href="#rect7399"/><use id="use7751" width="100%" height="100%" x="0" y="0" transform="translate(102.40824,-82.500289)" xlink:href="#rect7399" style="fill:none"/><use id="use7753" width="100%" height="100%" x="0" y="0" transform="translate(95.273922,-78.622767)" xlink:href="#rect7399" style="fill:none"/><use id="use7755" width="100%" height="100%" x="0" y="0" transform="translate(88.019802,-64.720062)" xlink:href="#rect7399" style="fill:none"/><use id="use7757" width="100%" height="100%" x="0" y="0" transform="translate(97.724052,-50.554684)" xlink:href="#rect7399" style="fill:none"/><use id="use7759" width="100%" height="100%" x="0" y="0" transform="translate(75.964582,1.0617493)" xlink:href="#rect7399" style="fill:none"/><use id="use7761" width="100%" height="100%" x="0" y="0" transform="translate(100.19318,-29.836403)" xlink:href="#rect7399" style="fill:none"/><use id="use7763" width="100%" height="100%" x="0" y="0" transform="translate(92.215932,-37.397243)" xlink:href="#rect7399" style="fill:none"/><use id="use7765" width="100%" height="100%" x="0" y="0" transform="translate(-201.16454,-93.983838)" xlink:href="#rect7399"/><use id="use7767" width="100%" height="100%" x="0" y="0" transform="translate(-192.99713,-76.647079)" xlink:href="#rect7399"/><use id="use7769" width="100%" height="100%" x="0" y="0" transform="translate(102.54503,-69.376102)" xlink:href="#rect7399" style="fill:none"/><use id="use7771" width="100%" height="100%" x="0" y="0" transform="translate(-201.68025,-66.945875)" xlink:href="#rect7399"/><use id="use7773" width="100%" height="100%" x="0" y="0" transform="translate(101.72874,-71.529591)" xlink:href="#rect7399" style="fill:none"/><use id="use7775" width="100%" height="100%" x="0" y="0" transform="translate(83.446442,-18.17492)" xlink:href="#rect7399" style="fill:none"/><use id="use7777" width="100%" height="100%" x="0" y="0" transform="translate(84.082282,-34.26385)" xlink:href="#rect7399" style="fill:none"/><use id="use7779" width="100%" height="100%" x="0" y="0" transform="translate(63.573602,25.081506)" xlink:href="#rect7399" style="fill:none"/><use id="use7781" width="100%" height="100%" x="0" y="0" transform="translate(81.793172,-14.960432)" xlink:href="#rect7399" style="fill:none"/><use id="use7783" width="100%" height="100%" x="0" y="0" transform="translate(52.161132,-57.954229)" xlink:href="#rect7399" style="fill:none"/><use id="use7785" width="100%" height="100%" x="0" y="0" transform="translate(55.473292,-30.183602)" xlink:href="#rect7399" style="fill:none"/><use id="use7787" width="100%" height="100%" x="0" y="0" transform="translate(64.050392,-26.10261)" xlink:href="#rect7399" style="fill:none"/><use id="use7789" width="100%" height="100%" x="0" y="0" transform="translate(44.804372,-45.309833)" xlink:href="#rect7399" style="fill:none"/><use id="use7791" width="100%" height="100%" x="0" y="0" transform="translate(67.665852,-41.773174)" xlink:href="#rect7399" style="fill:none"/><use id="use7793" width="100%" height="100%" x="0" y="0" transform="translate(66.862392,-33.135062)" xlink:href="#rect7399" style="fill:none"/><use id="use7795" width="100%" height="100%" x="0" y="0" transform="translate(44.932042,7.5836812)" xlink:href="#rect7399" style="fill:none"/><use id="use7797" width="100%" height="100%" x="0" y="0" transform="translate(53.711882,19.022767)" xlink:href="#rect7399" style="fill:none"/><use id="use7799" width="100%" height="100%" x="0" y="0" transform="translate(54.106182,2.0032623)" xlink:href="#rect7399" style="fill:none"/><rect style="opacity:.24800002;fill:#281700;fill-opacity:0;fill-rule:evenodd;stroke:#b50000;stroke-width:21;stroke-miterlimit:4;stroke-dasharray:none;stroke-opacity:0" id="rect7843" width="188.77" height="45.226" x="-262.611" y="295.958" ry="7.435"/><path style="display:inline;fill:none;fill-rule:evenodd;stroke:#000;stroke-width:1.47666681px;stroke-linecap:butt;stroke-linejoin:miter;stroke-opacity:1" id="path7873-6" d="m 218.1885,285.5699 0,0"/><path style="fill:none;fill-rule:evenodd;stroke:#000;stroke-width:1px;stroke-linecap:butt;stroke-linejoin:miter;stroke-opacity:1" id="path7969" d="M 57.298382,253.67222 Z"/><rect style="opacity:.24800002;fill:none;fill-opacity:0;fill-rule:evenodd;stroke:#b50000;stroke-width:20.82883263;stroke-miterlimit:4;stroke-dasharray:none;stroke-opacity:0" id="rect7991" width="15.713" height="28.142" x="257.186" y="245.188" ry=".521"/><rect style="opacity:.24800002;fill:none;fill-opacity:0;fill-rule:evenodd;stroke:#b50000;stroke-width:20.82883263;stroke-miterlimit:4;stroke-dasharray:none;stroke-opacity:0" id="rect8007" width="14.826" height="32.102" x="256.679" y="248.941" ry="6.149"/><path style="fill:none;fill-rule:evenodd;stroke:#000;stroke-width:1.6953969;stroke-linecap:butt;stroke-linejoin:miter;stroke-miterlimit:4;stroke-dasharray:none;stroke-opacity:1" id="path4313" d="m 196.1274,229.63915 c 39.27023,0 39.27023,0 39.27023,0 l 0,0"/><path style="fill:none;fill-rule:evenodd;stroke:#000;stroke-width:2.0356729;stroke-linecap:butt;stroke-linejoin:miter;stroke-miterlimit:4;stroke-dasharray:none;stroke-opacity:1" id="path4315" d="m 195.92222,238.11506 42.62158,0.46455 c -0.79026,41.55882 16.44411,51.98916 17.90913,61.58747 l 0,0 0,0"/><path style="display:inline;fill:none;fill-rule:evenodd;stroke:#000;stroke-width:1.59135497;stroke-linecap:butt;stroke-linejoin:miter;stroke-miterlimit:4;stroke-dasharray:none;stroke-opacity:1" id="path7965" d="m 196.00717,301.48177 61.37477,-0.78914"/><path style="display:inline;fill:none;fill-rule:evenodd;stroke:#000;stroke-width:1.59849584;stroke-linecap:butt;stroke-linejoin:miter;stroke-miterlimit:4;stroke-dasharray:none;stroke-opacity:1" id="path7967" d="m 257.49669,308.68476 -61.53936,0 c 1.19108,0 1.1565,-0.11587 1.1565,-0.11587"/><path style="display:inline;opacity:1;fill:none;fill-rule:evenodd;stroke:#000;stroke-width:1.15072513;stroke-linecap:butt;stroke-linejoin:miter;stroke-miterlimit:4;stroke-dasharray:none;stroke-opacity:1" id="path4313-9" d="m 195.66729,167.17868 c 30.84653,0 30.84653,0 30.84653,0 l 0,0"/><path style="display:inline;opacity:1;fill:none;fill-rule:evenodd;stroke:#000;stroke-width:1.20177352;stroke-linecap:butt;stroke-linejoin:miter;stroke-miterlimit:4;stroke-dasharray:none;stroke-opacity:1" id="path4315-3" d="m 195.79701,174.09455 c 30.3544,0 30.40425,0 30.40425,0"/><path style="fill:none;fill-rule:evenodd;stroke:#000;stroke-width:.54104573px;stroke-linecap:butt;stroke-linejoin:miter;stroke-opacity:1" id="path4354" d="m 217.4368,166.52772 c -10.88105,-3.68434 -15.72886,-7.85588 -10.39131,-12.8499"/><path style="display:inline;opacity:1;fill:none;fill-rule:evenodd;stroke:#000;stroke-width:1.11905766;stroke-linecap:butt;stroke-linejoin:miter;stroke-miterlimit:4;stroke-dasharray:none;stroke-opacity:1" id="path4360-1" d="m 224.33652,167.14196 c 5.14999,-0.21208 4.92279,3.58093 3.53328,5.66911 -0.7734,1.16227 -2.82137,1.59018 -3.26625,0.93625"/><path style="fill:none;fill-rule:evenodd;stroke:#000;stroke-width:1.06043947px;stroke-linecap:butt;stroke-linejoin:miter;stroke-opacity:1" id="path4586" d="m 212.27449,173.55447 16.21396,55.20222"/><path style="display:inline;opacity:1;fill:none;fill-rule:evenodd;stroke:#000;stroke-width:1.51551688;stroke-linecap:butt;stroke-linejoin:miter;stroke-miterlimit:4;stroke-dasharray:none;stroke-opacity:1" id="path4360-1-9" d="m 255.19838,300.8581 c 7.04719,-0.28425 6.90016,3.8164 4.99876,6.61522 -1.05831,1.55781 -4.84389,1.63975 -5.45267,0.76329"/><path style="display:inline;opacity:1;fill:none;fill-rule:evenodd;stroke:#000;stroke-width:1.5;stroke-linecap:butt;stroke-linejoin:miter;stroke-miterlimit:4;stroke-dasharray:none;stroke-opacity:1" id="path4360-1-2" d="m 234.98669,229.54127 c 7.07765,-0.27456 7.09313,4.47208 5.18352,7.17549 -1.06288,1.5047 -3.87741,2.05868 -4.48882,1.2121"/><path style="display:inline;opacity:1;fill:none;fill-rule:evenodd;stroke:#000;stroke-width:1.47666681px;stroke-linecap:butt;stroke-linejoin:miter;stroke-opacity:1" id="path7873-6-0" d="m 174.12907,285.57412 0,0"/><path style="display:inline;opacity:1;fill:none;fill-rule:evenodd;stroke:#000;stroke-width:1.6953969;stroke-linecap:butt;stroke-linejoin:miter;stroke-miterlimit:4;stroke-dasharray:none;stroke-opacity:1" id="path4313-1" d="m 196.19017,229.64337 c -39.27023,0 -39.27023,0 -39.27023,0 l 0,0"/><path style="display:inline;opacity:1;fill:none;fill-rule:evenodd;stroke:#000;stroke-width:2.0356729;stroke-linecap:butt;stroke-linejoin:miter;stroke-miterlimit:4;stroke-dasharray:none;stroke-opacity:1" id="path4315-8" d="m 196.39535,238.11928 -42.62158,0.46455 c 0.79026,41.55882 -16.44411,51.98916 -17.90913,61.58747 l 0,0 0,0"/><path style="display:inline;opacity:1;fill:none;fill-rule:evenodd;stroke:#000;stroke-width:1.59135497;stroke-linecap:butt;stroke-linejoin:miter;stroke-miterlimit:4;stroke-dasharray:none;stroke-opacity:1" id="path7965-2" d="m 196.3104,301.48599 -61.37477,-0.78914"/><path style="display:inline;opacity:1;fill:none;fill-rule:evenodd;stroke:#000;stroke-width:1.59849584;stroke-linecap:butt;stroke-linejoin:miter;stroke-miterlimit:4;stroke-dasharray:none;stroke-opacity:1" id="path7967-9" d="m 134.82088,308.68898 61.53936,0 c -1.19108,0 -1.1565,-0.11587 -1.1565,-0.11587"/><path style="display:inline;opacity:1;fill:none;fill-rule:evenodd;stroke:#000;stroke-width:1.15072513;stroke-linecap:butt;stroke-linejoin:miter;stroke-miterlimit:4;stroke-dasharray:none;stroke-opacity:1" id="path4313-9-7" d="m 196.1868,167.18184 c -30.84653,0 -30.84653,0 -30.84653,0 l 0,0"/><path style="display:inline;opacity:1;fill:none;fill-rule:evenodd;stroke:#000;stroke-width:1.20177352;stroke-linecap:butt;stroke-linejoin:miter;stroke-miterlimit:4;stroke-dasharray:none;stroke-opacity:1" id="path4315-3-6" d="m 196.05707,174.09771 c -30.35439,0 -30.40424,0 -30.40424,0"/><path style="display:inline;opacity:1;fill:none;fill-rule:evenodd;stroke:#000;stroke-width:.56877738px;stroke-linecap:butt;stroke-linejoin:miter;stroke-opacity:1" id="path4354-8" d="m 172.10979,166.98284 c 10.86418,-4.07803 15.70448,-8.69532 10.3752,-14.22296"/><path style="display:inline;opacity:1;fill:none;fill-rule:evenodd;stroke:#000;stroke-width:1.11905766;stroke-linecap:butt;stroke-linejoin:miter;stroke-miterlimit:4;stroke-dasharray:none;stroke-opacity:1" id="path4360-1-5" d="m 167.51757,167.14512 c -5.14999,-0.21208 -4.92279,3.58092 -3.53328,5.6691 0.7734,1.16228 2.82136,1.59019 3.26625,0.93626"/><path style="display:inline;opacity:1;fill:none;fill-rule:evenodd;stroke:#000;stroke-width:1.06049228px;stroke-linecap:butt;stroke-linejoin:miter;stroke-opacity:1" id="path4586-5" d="m 180.04389,173.55871 -16.21558,55.2022"/><path style="display:inline;opacity:1;fill:none;fill-rule:evenodd;stroke:#000;stroke-width:1.51551688;stroke-linecap:butt;stroke-linejoin:miter;stroke-miterlimit:4;stroke-dasharray:none;stroke-opacity:1" id="path4360-1-9-2" d="m 137.11919,300.86232 c -7.04719,-0.28425 -6.90016,3.8164 -4.99876,6.61522 1.05831,1.55781 4.84389,1.63975 5.45267,0.76329"/><path style="display:inline;opacity:1;fill:none;fill-rule:evenodd;stroke:#000;stroke-width:1.5;stroke-linecap:butt;stroke-linejoin:miter;stroke-miterlimit:4;stroke-dasharray:none;stroke-opacity:1" id="path4360-1-2-8" d="m 157.33088,229.54549 c -7.07765,-0.27456 -7.09313,4.47208 -5.18352,7.17549 1.06288,1.5047 3.87741,2.05868 4.48882,1.2121"/><ellipse style="opacity:.24800002;fill:#fff;fill-opacity:1;fill-rule:evenodd;stroke:#000;stroke-width:1.60000002;stroke-miterlimit:4;stroke-dasharray:none;stroke-opacity:1" id="path6731" cx="195.354" cy="138.81" rx="19.234" ry="18.307"/></g></svg>