<svg xmlns="http://www.w3.org/2000/svg" xmlns:svg="http://www.w3.org/2000/svg" id="svg2" width="100%" height="100%" version="1.1" viewBox="0 0 2048 2048"><metadata id="metadata12"/><g id="g4" transform="matrix(1 0 0 -1 0 2048)"><path id="path6" fill="#000" d="M1024 547h-381l5 74h376h376l5 -74h-381zM1024 1208h-332l5 74h327h327l5 -74h-332zM1024 205h-641l29 264l159 118l50 659l-149 107l-17 341h289v-147h137v147h143h143v-147h137v147h289l-17 -341l-149 -107l50 -659l159 -118l29 -264h-641zM1024 279h557l-15 149 l-161 119l-54 735l152 109l13 230h-138v-148h-285v148h-69h-69v-148h-285v148h-138l13 -230l152 -109l-54 -735l-161 -119l-15 -149h557z"/></g><path style="fill:#f9f9f9;fill-opacity:1;stroke:#000;stroke-width:0;stroke-linecap:round;stroke-linejoin:miter;stroke-miterlimit:3.79999995;stroke-opacity:1;stroke-dasharray:none;stroke-dashoffset:0" id="path2989" d="m 655.83219,1378.4949 c 5.02264,-49.6842 38.4051,-500.56736 38.4051,-518.72181 0,-11.06153 44.86783,-12.8036 329.76271,-12.8036 284.8949,0 329.7627,1.74207 329.7627,12.8036 0,18.15445 33.3825,469.03761 38.4051,518.72181 l 4.167,41.2204 -372.3348,0 -372.33482,0 4.16701,-41.2204 z"/><path style="fill:#f9f9f9;fill-opacity:1;stroke:#000;stroke-width:0;stroke-linecap:round;stroke-linejoin:miter;stroke-miterlimit:3.79999995;stroke-opacity:1;stroke-dasharray:none;stroke-dashoffset:0" id="path2991" d="m 624.78434,707.64711 -73.73349,-52.54273 -5.64719,-71.11829 c -3.10595,-39.11507 -6.03477,-89.66745 -6.50847,-112.33863 l -0.86129,-41.22034 65.08474,0 65.08475,0 0,73.76271 0,73.76271 147.52542,0 147.52543,0 0,-73.76271 0,-73.76271 60.74576,0 60.7458,0 0,73.76271 0,73.76271 147.5254,0 147.5254,0 0,-73.76271 0,-73.76271 65.0848,0 65.0847,0 -0.8609,41.22034 c -0.4738,22.67118 -3.4025,73.22356 -6.5084,112.33863 l -5.6476,71.11829 -73.7335,52.54273 -73.7335,52.54272 -325.4822,0 -325.48217,0 -73.73349,-52.54272 z"/><path style="fill:#f9f9f9;fill-opacity:1;stroke:#000;stroke-width:0;stroke-linecap:round;stroke-linejoin:miter;stroke-miterlimit:3.79999995;stroke-opacity:1;stroke-dasharray:none;stroke-dashoffset:0" id="path2993" d="m 471.66675,1751.6475 c 2.32439,-8.3526 6.75144,-41.0601 9.83789,-72.6835 l 5.61173,-57.497 79.33462,-57.486 79.33463,-57.4861 378.21438,0 378.2144,0 79.3346,57.4861 79.3346,57.486 5.6117,57.497 c 3.0865,31.6234 7.5136,64.3309 9.838,72.6835 3.9931,14.3493 -26.4521,15.1864 -552.3333,15.1864 -525.88123,0 -556.32646,-0.8371 -552.33325,-15.1864 z"/></svg>