<svg xmlns="http://www.w3.org/2000/svg" xmlns:svg="http://www.w3.org/2000/svg" xmlns:xlink="http://www.w3.org/1999/xlink" id="svg2" width="353.63" height="353.63" version="1.0"><defs id="defs4"><linearGradient id="linearGradient10057"><stop style="stop-color:#5a0000;stop-opacity:1" id="stop10059" offset="0"/><stop style="stop-color:#5a0000;stop-opacity:0" id="stop10061" offset="1"/></linearGradient><linearGradient id="linearGradient10049"><stop style="stop-color:#5a0000;stop-opacity:1" id="stop10051" offset="0"/><stop style="stop-color:#5a0000;stop-opacity:0" id="stop10053" offset="1"/></linearGradient><linearGradient id="linearGradient10041"><stop style="stop-color:#5a0000;stop-opacity:1" id="stop10043" offset="0"/><stop style="stop-color:#5a0000;stop-opacity:0" id="stop10045" offset="1"/></linearGradient><linearGradient id="linearGradient10033"><stop style="stop-color:#5a0000;stop-opacity:1" id="stop10035" offset="0"/><stop style="stop-color:#5a0000;stop-opacity:0" id="stop10037" offset="1"/></linearGradient><linearGradient id="linearGradient10025"><stop style="stop-color:#5a0000;stop-opacity:1" id="stop10027" offset="0"/><stop style="stop-color:#5a0000;stop-opacity:0" id="stop10029" offset="1"/></linearGradient><linearGradient id="linearGradient3693"><stop style="stop-color:#ffff82;stop-opacity:1" id="stop3695" offset="0"/><stop style="stop-color:#ffff82;stop-opacity:0" id="stop3697" offset="1"/></linearGradient><linearGradient id="linearGradient3645"><stop style="stop-color:#ffff23;stop-opacity:.49803922" id="stop3649" offset="0"/><stop id="stop3651" offset="1" style="stop-color:#ffff23;stop-opacity:0"/></linearGradient><linearGradient id="linearGradient3635"><stop style="stop-color:#ffff23;stop-opacity:1" id="stop3637" offset="0"/><stop id="stop3643" offset=".5" style="stop-color:#ffff23;stop-opacity:.49803922"/><stop style="stop-color:#ffff23;stop-opacity:0" id="stop3639" offset="1"/></linearGradient><linearGradient id="linearGradient3721" x1="212.179" x2="145.873" y1="114.928" y2="79.565" gradientUnits="userSpaceOnUse" xlink:href="#linearGradient3693"/><linearGradient id="linearGradient10031" x1="194.902" x2="119.756" y1="88.406" y2="39.782" gradientUnits="userSpaceOnUse" xlink:href="#linearGradient10025"/><linearGradient id="linearGradient10039" x1="185.657" x2="82.035" y1="212.177" y2="176.815" gradientUnits="userSpaceOnUse" xlink:href="#linearGradient10033"/><linearGradient id="linearGradient10047" x1="181.236" x2="0" y1="274.063" y2="190.075" gradientUnits="userSpaceOnUse" xlink:href="#linearGradient10041"/><linearGradient id="linearGradient10055" x1="167.975" x2="-30.943" y1="296.165" y2="198.916" gradientUnits="userSpaceOnUse" xlink:href="#linearGradient10049"/><linearGradient id="linearGradient10063" x1="137.032" x2="-22.102" y1="313.846" y2="247.54" gradientUnits="userSpaceOnUse" xlink:href="#linearGradient10057"/></defs><metadata id="metadata7"/><g id="layer1" style="display:inline"><g style="display:inline;fill:#fff" id="g3020"><path id="path3022" d="M 212.1792,70.724503 A 39.581203,39.783501 0 1 1 133.01679,70.724503 A 39.581203,39.783501 0 1 1 212.1792,70.724503 z" transform="translate(4.0156115,8.4203023)" style="opacity:1;fill:#fff;fill-opacity:1;fill-rule:nonzero;stroke:#000;stroke-width:8;stroke-linecap:round;stroke-linejoin:miter;stroke-miterlimit:4;stroke-dasharray:none;stroke-opacity:1"/><path id="path3024" d="M 158.85527,118.61 C 194.70553,118.61 194.70553,118.61 194.70553,118.61" style="fill:#fff;fill-rule:evenodd;stroke:#000;stroke-width:5.0943689299999999;stroke-linecap:round;stroke-linejoin:miter;stroke-miterlimit:4;stroke-dasharray:none;stroke-opacity:1"/><path id="path3026" d="M 114.9304,237.4384 C 132.612,221.018 142.56318,213.26644 150.714,188.814 C 159.1344,163.5528 159.1344,132.61 159.1344,119.3488 C 163.5548,119.3488 190.0772,119.3488 194.4976,119.3488 C 194.4976,132.61 194.4976,163.5528 202.918,188.814 C 211.06882,213.26644 221.02,221.018 238.7016,237.4384 C 198.918,237.4384 190.0772,237.4384 176.816,237.4384 C 163.5548,237.4384 114.9304,237.4384 114.9304,237.4384 z" style="fill:#fff;fill-opacity:1;fill-rule:evenodd;stroke:#000;stroke-width:8;stroke-linecap:butt;stroke-linejoin:miter;stroke-miterlimit:4;stroke-dasharray:none;stroke-opacity:1"/><rect id="rect3028" width="221.02" height="13.261" x="66.306" y="305.846" style="opacity:1;fill:#fff;fill-opacity:1;fill-rule:nonzero;stroke:#000;stroke-width:8;stroke-linecap:butt;stroke-linejoin:miter;stroke-miterlimit:4;stroke-dasharray:none;stroke-opacity:1;display:inline"/><rect id="rect3030" width="212.179" height="17.682" x="70.726" y="287.744" style="opacity:1;fill:#fff;fill-opacity:1;fill-rule:nonzero;stroke:#000;stroke-width:8;stroke-linecap:butt;stroke-linejoin:round;stroke-miterlimit:4;stroke-dasharray:none;stroke-opacity:1;display:inline"/><path id="path3032" d="M 274.0648,286.90359 C 185.6568,286.90359 176.816,286.90359 79.567195,286.90359 C 92.828395,273.64239 110.51,255.96079 106.0896,238.27919 C 159.1344,238.27919 119.3508,238.27919 176.816,238.27919 C 234.2812,238.27919 225.4404,238.27919 247.5424,238.27919 C 243.122,255.96079 260.8036,273.64239 274.0648,286.90359 z" style="fill:#fff;fill-opacity:1;fill-rule:evenodd;stroke:#000;stroke-width:8;stroke-linecap:butt;stroke-linejoin:miter;stroke-miterlimit:4;stroke-dasharray:none;stroke-opacity:1;display:inline"/><path id="path3034" d="M 104.24874,236.17719 C 249.615,236.17719 249.615,236.17719 249.615,236.17719" style="fill:#fff;fill-rule:evenodd;stroke:#000;stroke-width:7.25372314;stroke-linecap:round;stroke-linejoin:miter;stroke-miterlimit:4;stroke-dasharray:none;stroke-opacity:1;display:inline"/></g></g><g id="layer2" style="display:inline"><g id="g3011"><path id="path9961" d="M 212.1792,70.724503 A 39.581203,39.783501 0 1 1 133.01679,70.724503 A 39.581203,39.783501 0 1 1 212.1792,70.724503 z" transform="translate(4.0156115,8.4203023)" style="opacity:1;fill:url(#linearGradient10031);fill-opacity:1;fill-rule:nonzero;stroke:#000;stroke-width:8;stroke-linecap:round;stroke-linejoin:miter;stroke-miterlimit:4;stroke-dasharray:none;stroke-opacity:1"/><path id="path9963" d="M 158.85527,118.61 C 194.70553,118.61 194.70553,118.61 194.70553,118.61" style="fill:none;fill-rule:evenodd;stroke:#000;stroke-width:5.09436893;stroke-linecap:round;stroke-linejoin:miter;stroke-miterlimit:4;stroke-dasharray:none;stroke-opacity:1"/><path id="path9967" d="M 114.9304,237.4384 C 132.612,221.018 142.56318,213.26644 150.714,188.814 C 159.1344,163.5528 159.1344,132.61 159.1344,119.3488 C 163.5548,119.3488 190.0772,119.3488 194.4976,119.3488 C 194.4976,132.61 194.4976,163.5528 202.918,188.814 C 211.06882,213.26644 221.02,221.018 238.7016,237.4384 C 198.918,237.4384 190.0772,237.4384 176.816,237.4384 C 163.5548,237.4384 114.9304,237.4384 114.9304,237.4384 z" style="fill:url(#linearGradient10039);fill-opacity:1;fill-rule:evenodd;stroke:#000;stroke-width:8;stroke-linecap:butt;stroke-linejoin:miter;stroke-miterlimit:4;stroke-dasharray:none;stroke-opacity:1"/><rect id="rect3284" width="221.02" height="13.261" x="66.306" y="305.846" style="opacity:1;fill:url(#linearGradient10063);fill-opacity:1;fill-rule:nonzero;stroke:#000;stroke-width:8;stroke-linecap:butt;stroke-linejoin:miter;stroke-miterlimit:4;stroke-dasharray:none;stroke-opacity:1;display:inline"/><rect id="rect3288" width="212.179" height="17.682" x="70.726" y="287.744" style="opacity:1;fill:url(#linearGradient10055);fill-opacity:1;fill-rule:nonzero;stroke:#000;stroke-width:8;stroke-linecap:butt;stroke-linejoin:round;stroke-miterlimit:4;stroke-dasharray:none;stroke-opacity:1;display:inline"/><path id="path2481" d="M 274.0648,286.90359 C 185.6568,286.90359 176.816,286.90359 79.567195,286.90359 C 92.828395,273.64239 110.51,255.96079 106.0896,238.27919 C 159.1344,238.27919 119.3508,238.27919 176.816,238.27919 C 234.2812,238.27919 225.4404,238.27919 247.5424,238.27919 C 243.122,255.96079 260.8036,273.64239 274.0648,286.90359 z" style="fill:url(#linearGradient10047);fill-opacity:1;fill-rule:evenodd;stroke:#000;stroke-width:8;stroke-linecap:butt;stroke-linejoin:miter;stroke-miterlimit:4;stroke-dasharray:none;stroke-opacity:1;display:inline"/><path id="path3253" d="M 104.24874,236.17719 C 249.615,236.17719 249.615,236.17719 249.615,236.17719" style="fill:none;fill-rule:evenodd;stroke:#000;stroke-width:7.25372314;stroke-linecap:round;stroke-linejoin:miter;stroke-miterlimit:4;stroke-dasharray:none;stroke-opacity:1;display:inline"/></g></g></svg>