<svg xmlns="http://www.w3.org/2000/svg" xmlns:svg="http://www.w3.org/2000/svg" xmlns:xlink="http://www.w3.org/1999/xlink" id="svg2" width="353.63" height="353.63" version="1.0"><defs id="defs4"><linearGradient id="linearGradient7638"><stop style="stop-color:#5b0000;stop-opacity:1" id="stop7640" offset="0"/><stop style="stop-color:#5a0000;stop-opacity:0" id="stop7642" offset="1"/></linearGradient><linearGradient id="linearGradient6811"><stop style="stop-color:#5a0000;stop-opacity:1" id="stop6813" offset="0"/><stop style="stop-color:#5a0000;stop-opacity:0" id="stop6815" offset="1"/></linearGradient><linearGradient id="linearGradient6803"><stop style="stop-color:#5a0000;stop-opacity:1" id="stop6805" offset="0"/><stop style="stop-color:#5a0000;stop-opacity:0" id="stop6807" offset="1"/></linearGradient><linearGradient id="linearGradient6795"><stop style="stop-color:#5a0000;stop-opacity:1" id="stop6797" offset="0"/><stop style="stop-color:#5a0000;stop-opacity:0" id="stop6799" offset="1"/></linearGradient><linearGradient id="linearGradient6775"><stop style="stop-color:#5a0000;stop-opacity:1" id="stop6777" offset="0"/><stop style="stop-color:#5a0000;stop-opacity:0" id="stop6779" offset="1"/></linearGradient><linearGradient id="linearGradient6767"><stop style="stop-color:#5a0000;stop-opacity:1" id="stop6769" offset="0"/><stop style="stop-color:#5a0000;stop-opacity:0" id="stop6771" offset="1"/></linearGradient><linearGradient id="linearGradient6759"><stop style="stop-color:#5a0000;stop-opacity:1" id="stop6761" offset="0"/><stop style="stop-color:#5a0000;stop-opacity:0" id="stop6763" offset="1"/></linearGradient><linearGradient id="linearGradient6751"><stop style="stop-color:#5a0000;stop-opacity:1" id="stop6753" offset="0"/><stop style="stop-color:#5a0000;stop-opacity:0" id="stop6755" offset="1"/></linearGradient><linearGradient id="linearGradient6743"><stop style="stop-color:#5a0000;stop-opacity:1" id="stop6745" offset="0"/><stop style="stop-color:#5a0000;stop-opacity:0" id="stop6747" offset="1"/></linearGradient><linearGradient id="linearGradient6573"><stop style="stop-color:#5a0000;stop-opacity:1" id="stop6575" offset="0"/><stop style="stop-color:#5a0000;stop-opacity:0" id="stop6577" offset="1"/></linearGradient><linearGradient id="linearGradient3693"><stop style="stop-color:#ffff82;stop-opacity:1" id="stop3695" offset="0"/><stop style="stop-color:#ffff82;stop-opacity:0" id="stop3697" offset="1"/></linearGradient><linearGradient id="linearGradient3645"><stop style="stop-color:#ffff23;stop-opacity:.49803922" id="stop3649" offset="0"/><stop id="stop3651" offset="1" style="stop-color:#ffff23;stop-opacity:0"/></linearGradient><linearGradient id="linearGradient3635"><stop style="stop-color:#ffff23;stop-opacity:1" id="stop3637" offset="0"/><stop id="stop3643" offset=".5" style="stop-color:#ffff23;stop-opacity:.49803922"/><stop style="stop-color:#ffff23;stop-opacity:0" id="stop3639" offset="1"/></linearGradient><linearGradient id="linearGradient3721" x1="212.179" x2="145.873" y1="114.928" y2="79.565" gradientUnits="userSpaceOnUse" xlink:href="#linearGradient3693"/><linearGradient id="linearGradient6749" x1="190.077" x2="154.714" y1="154.712" y2="114.928" gradientUnits="userSpaceOnUse" xlink:href="#linearGradient6743"/><linearGradient id="linearGradient6757" x1="225.44" x2="198.918" y1="150.292" y2="114.928" gradientUnits="userSpaceOnUse" xlink:href="#linearGradient6751"/><linearGradient id="linearGradient6765" x1="256.383" x2="247.542" y1="159.132" y2="128.19" gradientUnits="userSpaceOnUse" xlink:href="#linearGradient6759"/><linearGradient id="linearGradient6773" x1="141.453" x2="97.249" y1="159.132" y2="128.19" gradientUnits="userSpaceOnUse" xlink:href="#linearGradient6767"/><linearGradient id="linearGradient6781" x1="114.93" x2="66.306" y1="163.553" y2="141.451" gradientUnits="userSpaceOnUse" xlink:href="#linearGradient6775"/><linearGradient id="linearGradient6793" x1="183.447" x2="152.504" y1="70.724" y2="48.622" gradientUnits="userSpaceOnUse" xlink:href="#linearGradient6573"/><linearGradient id="linearGradient6801" x1="172.396" x2="70.726" y1="225.438" y2="154.712" gradientUnits="userSpaceOnUse" xlink:href="#linearGradient6795"/><linearGradient id="linearGradient6809" x1="181.236" x2="35.363" y1="274.063" y2="212.177" gradientUnits="userSpaceOnUse" xlink:href="#linearGradient6803"/><linearGradient id="linearGradient6817" x1="172.396" x2="35.363" y1="300.585" y2="203.336" gradientUnits="userSpaceOnUse" xlink:href="#linearGradient6811"/><linearGradient id="linearGradient6819" x1="167.975" x2="44.204" y1="313.846" y2="225.438" gradientUnits="userSpaceOnUse" xlink:href="#linearGradient6811"/><linearGradient id="linearGradient7644" x1="217.02" x2="264.804" y1="61.884" y2="61.884" gradientUnits="userSpaceOnUse" xlink:href="#linearGradient7638"/><linearGradient id="linearGradient7664" x1="183.447" x2="152.504" y1="70.724" y2="48.622" gradientUnits="userSpaceOnUse" xlink:href="#linearGradient6573"/><linearGradient id="linearGradient7668" x1="183.447" x2="152.504" y1="70.724" y2="48.622" gradientUnits="userSpaceOnUse" xlink:href="#linearGradient6573"/><linearGradient id="linearGradient7672" x1="183.447" x2="152.504" y1="70.724" y2="48.622" gradientUnits="userSpaceOnUse" xlink:href="#linearGradient6573"/><linearGradient id="linearGradient7676" x1="183.447" x2="152.504" y1="70.724" y2="48.622" gradientUnits="userSpaceOnUse" xlink:href="#linearGradient6573"/><linearGradient id="linearGradient7680" x1="183.447" x2="152.504" y1="70.724" y2="48.622" gradientUnits="userSpaceOnUse" xlink:href="#linearGradient6573"/><linearGradient id="linearGradient7684" x1="183.447" x2="152.504" y1="70.724" y2="48.622" gradientUnits="userSpaceOnUse" xlink:href="#linearGradient6573"/></defs><metadata id="metadata7"/><g id="layer1" style="display:inline"><path style="opacity:1;fill:#fff;fill-opacity:1;fill-rule:nonzero;stroke:#000;stroke-width:8;stroke-miterlimit:4;stroke-dasharray:none;stroke-opacity:1;display:inline" id="path5414" d="M 194.4976,64.093803 A 19.8918,19.8918 0 1 1 154.714,64.093803 A 19.8918,19.8918 0 1 1 194.4976,64.093803 z" transform="translate(2.2101956,-8.8407986)"/><path style="fill:#fff;fill-opacity:1;fill-rule:evenodd;stroke:#000;stroke-width:8;stroke-linecap:butt;stroke-linejoin:miter;stroke-miterlimit:4;stroke-dasharray:none;stroke-opacity:1;display:inline" id="path5424" d="M 176.815,78.458738 C 172.3956,119.3488 167.9752,148.916 163.5548,184.2792 C 172.3956,184.2792 167.9752,184.2792 176.816,184.2792 C 185.6568,184.2792 181.2364,184.2792 190.0772,184.2792 C 185.6568,148.916 181.2364,119.3488 176.815,78.458738 z"/><path style="fill:#fff;fill-opacity:1;fill-rule:evenodd;stroke:#000;stroke-width:8;stroke-linecap:butt;stroke-linejoin:miter;stroke-miterlimit:4;stroke-dasharray:none;stroke-opacity:1;display:inline" id="path5426" d="M 238.7016,79.565205 C 225.4404,119.3488 203.3384,148.916 195.37237,183.93422 C 204.21317,183.93422 199.79277,183.93422 208.63357,183.93422 C 217.47437,183.93422 213.05397,183.93422 221.89477,183.93422 C 225.4404,148.916 234.2812,123.7692 238.7016,79.565205 z"/><path style="fill:#fff;fill-opacity:1;fill-rule:evenodd;stroke:#000;stroke-width:8;stroke-linecap:butt;stroke-linejoin:miter;stroke-miterlimit:4;stroke-dasharray:none;stroke-opacity:1;display:inline" id="path5428" d="M 291.7464,101.6672 C 269.6444,141.4508 239.122,150.916 222.66218,185.03242 C 231.50298,185.03242 227.08258,185.03242 235.92338,185.03242 C 244.76418,185.03242 240.34378,185.03242 249.18458,185.03242 C 261.224,150.916 278.4852,145.8712 291.7464,101.6672 z"/><path style="fill:#fff;fill-opacity:1;fill-rule:evenodd;stroke:#000;stroke-width:8;stroke-linecap:butt;stroke-linejoin:miter;stroke-miterlimit:4;stroke-dasharray:none;stroke-opacity:1;display:inline" id="path5430" d="M 114.9304,79.565205 C 119.3508,123.7692 128.1916,148.916 132.66218,185.03242 C 141.50298,185.03242 137.08258,185.03242 145.92338,185.03242 C 154.76418,185.03242 150.34378,185.03242 159.18458,185.03242 C 145.8732,144.4956 123.7712,119.3488 114.9304,79.565205 z"/><path style="fill:#fff;fill-opacity:1;fill-rule:evenodd;stroke:#000;stroke-width:8;stroke-linecap:butt;stroke-linejoin:miter;stroke-miterlimit:4;stroke-dasharray:none;stroke-opacity:1;display:inline" id="path5432" d="M 61.8856,101.6672 C 75.1468,150.2916 92.408,144.4956 104.66218,185.03242 C 113.50298,185.03242 109.08258,185.03242 117.92338,185.03242 C 126.76418,185.03242 122.34378,185.03242 131.18458,185.03242 C 114.51,148.916 79.5672,141.4508 61.8856,101.6672 z"/><rect style="opacity:1;fill:#fff;fill-opacity:1;fill-rule:nonzero;stroke:#000;stroke-width:8;stroke-linejoin:bevel;stroke-miterlimit:4;stroke-dasharray:none;stroke-opacity:1;display:inline" id="rect5434" width="148.826" height="45.888" x="102.403" y="189.658"/><rect style="opacity:1;fill:#fff;fill-opacity:1;fill-rule:nonzero;stroke:#000;stroke-width:8;stroke-linecap:butt;stroke-linejoin:miter;stroke-miterlimit:4;stroke-dasharray:none;stroke-opacity:1;display:inline" id="rect5436" width="221.02" height="13.261" x="66.306" y="305.846"/><rect style="opacity:1;fill:#fff;fill-opacity:1;fill-rule:nonzero;stroke:#000;stroke-width:8;stroke-linecap:butt;stroke-linejoin:round;stroke-miterlimit:4;stroke-dasharray:none;stroke-opacity:1;display:inline" id="rect5438" width="212.179" height="17.682" x="70.726" y="287.744"/><path style="fill:#fff;fill-opacity:1;fill-rule:evenodd;stroke:#000;stroke-width:8;stroke-linecap:butt;stroke-linejoin:miter;stroke-miterlimit:4;stroke-dasharray:none;stroke-opacity:1;display:inline" id="path5440" d="M 274.0648,286.90359 C 185.6568,286.90359 176.816,286.90359 79.567195,286.90359 C 92.828395,273.64239 110.51,255.96079 106.0896,238.27919 C 159.1344,238.27919 119.3508,238.27919 176.816,238.27919 C 234.2812,238.27919 225.4404,238.27919 247.5424,238.27919 C 243.122,255.96079 260.8036,273.64239 274.0648,286.90359 z"/><path style="fill:#fff;fill-opacity:1;fill-rule:evenodd;stroke:#000;stroke-width:7.04245234;stroke-linecap:butt;stroke-linejoin:miter;stroke-miterlimit:4;stroke-dasharray:none;stroke-opacity:1;display:inline" id="path5442" d="M 109.00936,236.17719 C 246.03109,236.17719 246.03109,236.17719 246.03109,236.17719"/><path style="opacity:1;fill:#fff;fill-opacity:1;fill-rule:nonzero;stroke:#000;stroke-width:8;stroke-miterlimit:4;stroke-dasharray:none;stroke-opacity:1;display:inline" id="path5953" d="M 194.4976,64.093803 A 19.8918,19.8918 0 1 1 154.714,64.093803 A 19.8918,19.8918 0 1 1 194.4976,64.093803 z" transform="translate(-61.981829,-1.9884087)"/><path style="opacity:1;fill:#fff;fill-opacity:1;fill-rule:nonzero;stroke:#000;stroke-width:8;stroke-miterlimit:4;stroke-dasharray:none;stroke-opacity:1;display:inline" id="path5955" d="M 194.4976,64.093803 A 19.8918,19.8918 0 1 1 154.714,64.093803 A 19.8918,19.8918 0 1 1 194.4976,64.093803 z" transform="translate(-118.98903,19.331356)"/><path style="opacity:1;fill:#fff;fill-opacity:1;fill-rule:nonzero;stroke:#000;stroke-width:8;stroke-miterlimit:4;stroke-dasharray:none;stroke-opacity:1;display:inline" id="path5957" d="M 194.4976,64.093803 A 19.8918,19.8918 0 1 1 154.714,64.093803 A 19.8918,19.8918 0 1 1 194.4976,64.093803 z" transform="translate(66.400233,-1.5249356)"/><path style="opacity:1;fill:#fff;fill-opacity:1;fill-rule:nonzero;stroke:#000;stroke-width:8;stroke-miterlimit:4;stroke-dasharray:none;stroke-opacity:1;display:inline" id="path5959" d="M 194.4976,64.093803 A 19.8918,19.8918 0 1 1 154.714,64.093803 A 19.8918,19.8918 0 1 1 194.4976,64.093803 z" transform="translate(125.26132,21.648722)"/></g><g id="layer2" style="display:inline"><path style="opacity:1;fill:url(#linearGradient6793);fill-opacity:1;fill-rule:nonzero;stroke:#000;stroke-width:8;stroke-miterlimit:4;stroke-dasharray:none;stroke-opacity:1" id="path4206" d="M 194.4976,64.093803 A 19.8918,19.8918 0 1 1 154.714,64.093803 A 19.8918,19.8918 0 1 1 194.4976,64.093803 z" transform="translate(2.2101956,-8.8407986)"/><path style="fill:url(#linearGradient6749);fill-opacity:1;fill-rule:evenodd;stroke:#000;stroke-width:8;stroke-linecap:butt;stroke-linejoin:miter;stroke-miterlimit:4;stroke-dasharray:none;stroke-opacity:1" id="path6417" d="M 176.815,78.458738 C 172.3956,119.3488 167.9752,148.916 163.5548,184.2792 C 172.3956,184.2792 167.9752,184.2792 176.816,184.2792 C 185.6568,184.2792 181.2364,184.2792 190.0772,184.2792 C 185.6568,148.916 181.2364,119.3488 176.815,78.458738 z"/><path style="fill:url(#linearGradient6757);fill-opacity:1;fill-rule:evenodd;stroke:#000;stroke-width:8;stroke-linecap:butt;stroke-linejoin:miter;stroke-miterlimit:4;stroke-dasharray:none;stroke-opacity:1;display:inline" id="path6463" d="M 238.7016,79.565205 C 225.4404,119.3488 203.3384,148.916 195.37237,183.93422 C 204.21317,183.93422 199.79277,183.93422 208.63357,183.93422 C 217.47437,183.93422 213.05397,183.93422 221.89477,183.93422 C 225.4404,148.916 234.2812,123.7692 238.7016,79.565205 z"/><path style="fill:url(#linearGradient6765);fill-opacity:1;fill-rule:evenodd;stroke:#000;stroke-width:8;stroke-linecap:butt;stroke-linejoin:miter;stroke-miterlimit:4;stroke-dasharray:none;stroke-opacity:1;display:inline" id="path6467" d="M 291.7464,101.6672 C 269.6444,141.4508 239.122,150.916 222.66218,185.03242 C 231.50298,185.03242 227.08258,185.03242 235.92338,185.03242 C 244.76418,185.03242 240.34378,185.03242 249.18458,185.03242 C 261.224,150.916 278.4852,145.8712 291.7464,101.6672 z"/><path style="fill:url(#linearGradient6773);fill-opacity:1;fill-rule:evenodd;stroke:#000;stroke-width:8;stroke-linecap:butt;stroke-linejoin:miter;stroke-miterlimit:4;stroke-dasharray:none;stroke-opacity:1;display:inline" id="path6471" d="M 114.9304,79.565205 C 119.3508,123.7692 128.1916,148.916 132.66218,185.03242 C 141.50298,185.03242 137.08258,185.03242 145.92338,185.03242 C 154.76418,185.03242 150.34378,185.03242 159.18458,185.03242 C 145.8732,144.4956 123.7712,119.3488 114.9304,79.565205 z"/><path style="fill:url(#linearGradient6781);fill-opacity:1;fill-rule:evenodd;stroke:#000;stroke-width:8;stroke-linecap:butt;stroke-linejoin:miter;stroke-miterlimit:4;stroke-dasharray:none;stroke-opacity:1;display:inline" id="path6475" d="M 61.8856,101.6672 C 75.1468,150.2916 92.408,144.4956 104.66218,185.03242 C 113.50298,185.03242 109.08258,185.03242 117.92338,185.03242 C 126.76418,185.03242 122.34378,185.03242 131.18458,185.03242 C 114.51,148.916 79.5672,141.4508 61.8856,101.6672 z"/><rect style="opacity:1;fill:url(#linearGradient6801);fill-opacity:1;fill-rule:nonzero;stroke:#000;stroke-width:8;stroke-linejoin:bevel;stroke-miterlimit:4;stroke-dasharray:none;stroke-opacity:1" id="rect6479" width="148.826" height="45.888" x="102.403" y="189.658"/><rect style="opacity:1;fill:url(#linearGradient6819);fill-opacity:1;fill-rule:nonzero;stroke:#000;stroke-width:8;stroke-linecap:butt;stroke-linejoin:miter;stroke-miterlimit:4;stroke-dasharray:none;stroke-opacity:1;display:inline" id="rect3284" width="221.02" height="13.261" x="66.306" y="305.846"/><rect style="opacity:1;fill:url(#linearGradient6817);fill-opacity:1;fill-rule:nonzero;stroke:#000;stroke-width:8;stroke-linecap:butt;stroke-linejoin:round;stroke-miterlimit:4;stroke-dasharray:none;stroke-opacity:1;display:inline" id="rect3288" width="212.179" height="17.682" x="70.726" y="287.744"/><path style="fill:url(#linearGradient6809);fill-opacity:1;fill-rule:evenodd;stroke:#000;stroke-width:8;stroke-linecap:butt;stroke-linejoin:miter;stroke-miterlimit:4;stroke-dasharray:none;stroke-opacity:1;display:inline" id="path2481" d="M 274.0648,286.90359 C 185.6568,286.90359 176.816,286.90359 79.567195,286.90359 C 92.828395,273.64239 110.51,255.96079 106.0896,238.27919 C 159.1344,238.27919 119.3508,238.27919 176.816,238.27919 C 234.2812,238.27919 225.4404,238.27919 247.5424,238.27919 C 243.122,255.96079 260.8036,273.64239 274.0648,286.90359 z"/><path style="fill:#5a0000;fill-opacity:1;fill-rule:evenodd;stroke:#000;stroke-width:7.04245234;stroke-linecap:butt;stroke-linejoin:miter;stroke-miterlimit:4;stroke-dasharray:none;stroke-opacity:1;display:inline" id="path3253" d="M 109.00936,236.17719 C 246.03109,236.17719 246.03109,236.17719 246.03109,236.17719"/><path style="opacity:1;fill:url(#linearGradient7668);fill-opacity:1;fill-rule:nonzero;stroke:#000;stroke-width:8;stroke-miterlimit:4;stroke-dasharray:none;stroke-opacity:1;display:inline" id="path7666" d="M 194.4976,64.093803 A 19.8918,19.8918 0 1 1 154.714,64.093803 A 19.8918,19.8918 0 1 1 194.4976,64.093803 z" transform="translate(-61.981829,-1.9884087)"/><path style="opacity:1;fill:url(#linearGradient7676);fill-opacity:1;fill-rule:nonzero;stroke:#000;stroke-width:8;stroke-miterlimit:4;stroke-dasharray:none;stroke-opacity:1;display:inline" id="path7674" d="M 194.4976,64.093803 A 19.8918,19.8918 0 1 1 154.714,64.093803 A 19.8918,19.8918 0 1 1 194.4976,64.093803 z" transform="translate(-118.98903,19.331356)"/><path style="opacity:1;fill:url(#linearGradient7680);fill-opacity:1;fill-rule:nonzero;stroke:#000;stroke-width:8;stroke-miterlimit:4;stroke-dasharray:none;stroke-opacity:1;display:inline" id="path7678" d="M 194.4976,64.093803 A 19.8918,19.8918 0 1 1 154.714,64.093803 A 19.8918,19.8918 0 1 1 194.4976,64.093803 z" transform="translate(66.191155,-2.2733991)"/><path style="opacity:1;fill:url(#linearGradient7684);fill-opacity:1;fill-rule:nonzero;stroke:#000;stroke-width:8;stroke-miterlimit:4;stroke-dasharray:none;stroke-opacity:1;display:inline" id="path7682" d="M 194.4976,64.093803 A 19.8918,19.8918 0 1 1 154.714,64.093803 A 19.8918,19.8918 0 1 1 194.4976,64.093803 z" transform="translate(124.12076,20.206748)"/></g></svg>