<svg xmlns="http://www.w3.org/2000/svg" xmlns:svg="http://www.w3.org/2000/svg" xmlns:xlink="http://www.w3.org/1999/xlink" id="svg2" width="353.63" height="353.63" version="1.0"><defs id="defs4"><linearGradient id="linearGradient7601"><stop style="stop-color:#5a0000;stop-opacity:1" id="stop7603" offset="0"/><stop style="stop-color:#5a0000;stop-opacity:0" id="stop7605" offset="1"/></linearGradient><linearGradient id="linearGradient7591"><stop style="stop-color:#5a0000;stop-opacity:1" id="stop7593" offset="0"/><stop style="stop-color:#5a0000;stop-opacity:0" id="stop7595" offset="1"/></linearGradient><linearGradient id="linearGradient7583"><stop style="stop-color:#5a0000;stop-opacity:1" id="stop7585" offset="0"/><stop style="stop-color:#5a0000;stop-opacity:0" id="stop7587" offset="1"/></linearGradient><linearGradient id="linearGradient7569"><stop style="stop-color:#5a0000;stop-opacity:1" id="stop7571" offset="0"/><stop style="stop-color:#5a0000;stop-opacity:0" id="stop7573" offset="1"/></linearGradient><linearGradient id="linearGradient3693"><stop style="stop-color:#ffff82;stop-opacity:1" id="stop3695" offset="0"/><stop style="stop-color:#ffff82;stop-opacity:0" id="stop3697" offset="1"/></linearGradient><linearGradient id="linearGradient3645"><stop style="stop-color:#ffff23;stop-opacity:.49803922" id="stop3649" offset="0"/><stop id="stop3651" offset="1" style="stop-color:#ffff23;stop-opacity:0"/></linearGradient><linearGradient id="linearGradient3635"><stop style="stop-color:#ffff23;stop-opacity:1" id="stop3637" offset="0"/><stop id="stop3643" offset=".5" style="stop-color:#ffff23;stop-opacity:.49803922"/><stop style="stop-color:#ffff23;stop-opacity:0" id="stop3639" offset="1"/></linearGradient><linearGradient id="linearGradient3721" x1="212.179" x2="145.873" y1="114.928" y2="79.565" gradientUnits="userSpaceOnUse" xlink:href="#linearGradient3693"/><linearGradient id="linearGradient7575" x1="176.815" x2="48.624" y1="160.362" y2="137.03" gradientTransform="matrix(1.0039343,0,0,0.88591,-0.6954745,27.115721)" gradientUnits="userSpaceOnUse" xlink:href="#linearGradient7569"/><linearGradient id="linearGradient7589" x1="167.975" x2="4.42" y1="265.222" y2="181.234" gradientUnits="userSpaceOnUse" xlink:href="#linearGradient7583"/><linearGradient id="linearGradient7597" x1="154.714" x2="4.42" y1="296.165" y2="198.916" gradientUnits="userSpaceOnUse" xlink:href="#linearGradient7591"/><linearGradient id="linearGradient7599" x1="137.032" x2="13.261" y1="313.846" y2="216.598" gradientUnits="userSpaceOnUse" xlink:href="#linearGradient7591"/><linearGradient id="linearGradient7607" x1="185.657" x2="44.204" y1="70.724" y2="4.418" gradientTransform="translate(0,18)" gradientUnits="userSpaceOnUse" xlink:href="#linearGradient7601"/></defs><metadata id="metadata7"/><g id="layer1" style="display:inline"><g style="display:inline;fill:#fff;fill-opacity:1" id="g6164"><path id="path6166" d="M 265.224,97.144805 C 225.4404,97.144805 137.0324,97.144805 88.408,97.144805 C 88.408,52.94081 88.408,66.202005 88.408,52.940805 C 106.0896,52.940805 110.51,52.940805 123.7712,52.940805 C 123.7712,66.202005 123.7712,57.361205 123.7712,75.042805 C 141.4528,75.042805 150.2936,75.042805 159.1344,75.042805 C 159.1344,57.361205 159.98626,66.201805 159.1344,52.940805 C 185.6568,52.940805 167.9752,52.940805 194.4976,52.940805 C 194.4976,79.463205 194.4966,59.284718 194.4976,75.042805 C 212.1792,75.042805 212.1792,75.042805 229.8608,75.042805 C 229.8608,52.940805 229.8608,66.202005 229.8608,52.940805 C 260.8036,52.940805 225.4404,52.940805 265.224,52.940805 C 265.224,92.724405 265.224,66.202005 265.224,97.144805 z" style="fill:#fff;fill-opacity:1;fill-rule:evenodd;stroke:#000;stroke-width:8;stroke-linecap:butt;stroke-linejoin:miter;stroke-miterlimit:4;stroke-dasharray:none;stroke-opacity:1"/><rect id="rect6168" width="132.404" height="138.027" x="110.574" y="97.628" style="opacity:1;fill:#fff;fill-opacity:1;fill-rule:nonzero;stroke:#000;stroke-width:8.5964565299999993;stroke-linejoin:miter;stroke-miterlimit:4;stroke-dasharray:none;stroke-opacity:1"/><rect id="rect6170" width="221.02" height="13.261" x="66.306" y="305.846" style="opacity:1;fill:#fff;fill-opacity:1;fill-rule:nonzero;stroke:#000;stroke-width:8;stroke-linecap:butt;stroke-linejoin:miter;stroke-miterlimit:4;stroke-dasharray:none;stroke-opacity:1;display:inline"/><rect id="rect6172" width="212.179" height="17.682" x="70.726" y="287.744" style="opacity:1;fill:#fff;fill-opacity:1;fill-rule:nonzero;stroke:#000;stroke-width:8;stroke-linecap:butt;stroke-linejoin:round;stroke-miterlimit:4;stroke-dasharray:none;stroke-opacity:1;display:inline"/><path id="path6174" d="M 274.0648,286.90359 C 185.6568,286.90359 176.816,286.90359 79.567195,286.90359 C 92.828395,273.64239 110.51,255.96079 106.0896,238.27919 C 159.1344,238.27919 119.3508,238.27919 176.816,238.27919 C 234.2812,238.27919 225.4404,238.27919 247.5424,238.27919 C 243.122,255.96079 260.8036,273.64239 274.0648,286.90359 z" style="fill:#fff;fill-opacity:1;fill-rule:evenodd;stroke:#000;stroke-width:8;stroke-linecap:butt;stroke-linejoin:miter;stroke-miterlimit:4;stroke-dasharray:none;stroke-opacity:1;display:inline"/><path id="path6176" d="M 104.13812,236.17719 C 249.72561,236.17719 249.72561,236.17719 249.72561,236.17719" style="fill:#fff;fill-rule:evenodd;stroke:#000;stroke-width:7.2592410999999988;stroke-linecap:round;stroke-linejoin:miter;stroke-miterlimit:4;stroke-dasharray:none;stroke-opacity:1;display:inline;fill-opacity:1"/></g></g><g id="layer2" style="display:inline"><g id="g6156"><path id="path6992" d="M 265.224,97.144805 C 225.4404,97.144805 137.0324,97.144805 88.408,97.144805 C 88.408,52.94081 88.408,66.202005 88.408,52.940805 C 106.0896,52.940805 110.51,52.940805 123.7712,52.940805 C 123.7712,66.202005 123.7712,57.361205 123.7712,75.042805 C 141.4528,75.042805 150.2936,75.042805 159.1344,75.042805 C 159.1344,57.361205 159.98626,66.201805 159.1344,52.940805 C 185.6568,52.940805 167.9752,52.940805 194.4976,52.940805 C 194.4976,79.463205 194.4966,59.284718 194.4976,75.042805 C 212.1792,75.042805 212.1792,75.042805 229.8608,75.042805 C 229.8608,52.940805 229.8608,66.202005 229.8608,52.940805 C 260.8036,52.940805 225.4404,52.940805 265.224,52.940805 C 265.224,92.724405 265.224,66.202005 265.224,97.144805 z" style="fill:url(#linearGradient7607);fill-opacity:1;fill-rule:evenodd;stroke:#000;stroke-width:8;stroke-linecap:butt;stroke-linejoin:miter;stroke-miterlimit:4;stroke-dasharray:none;stroke-opacity:1"/><rect id="rect6994" width="132.404" height="138.027" x="110.574" y="97.628" style="opacity:1;fill:url(#linearGradient7575);fill-opacity:1;fill-rule:nonzero;stroke:#000;stroke-width:8.59645653;stroke-linejoin:miter;stroke-miterlimit:4;stroke-dasharray:none;stroke-opacity:1"/><rect id="rect3284" width="221.02" height="13.261" x="66.306" y="305.846" style="opacity:1;fill:url(#linearGradient7599);fill-opacity:1;fill-rule:nonzero;stroke:#000;stroke-width:8;stroke-linecap:butt;stroke-linejoin:miter;stroke-miterlimit:4;stroke-dasharray:none;stroke-opacity:1;display:inline"/><rect id="rect3288" width="212.179" height="17.682" x="70.726" y="287.744" style="opacity:1;fill:url(#linearGradient7597);fill-opacity:1;fill-rule:nonzero;stroke:#000;stroke-width:8;stroke-linecap:butt;stroke-linejoin:round;stroke-miterlimit:4;stroke-dasharray:none;stroke-opacity:1;display:inline"/><path id="path2481" d="M 274.0648,286.90359 C 185.6568,286.90359 176.816,286.90359 79.567195,286.90359 C 92.828395,273.64239 110.51,255.96079 106.0896,238.27919 C 159.1344,238.27919 119.3508,238.27919 176.816,238.27919 C 234.2812,238.27919 225.4404,238.27919 247.5424,238.27919 C 243.122,255.96079 260.8036,273.64239 274.0648,286.90359 z" style="fill:url(#linearGradient7589);fill-opacity:1;fill-rule:evenodd;stroke:#000;stroke-width:8;stroke-linecap:butt;stroke-linejoin:miter;stroke-miterlimit:4;stroke-dasharray:none;stroke-opacity:1;display:inline"/><path id="path3253" d="M 104.13812,236.17719 C 249.72561,236.17719 249.72561,236.17719 249.72561,236.17719" style="fill:none;fill-rule:evenodd;stroke:#000;stroke-width:7.2592411;stroke-linecap:round;stroke-linejoin:miter;stroke-miterlimit:4;stroke-dasharray:none;stroke-opacity:1;display:inline"/></g></g></svg>