<svg xmlns="http://www.w3.org/2000/svg" xmlns:svg="http://www.w3.org/2000/svg" xmlns:xlink="http://www.w3.org/1999/xlink" id="svg2" width="353.63" height="353.63" version="1.0"><defs id="defs4"><linearGradient id="linearGradient10492"><stop style="stop-color:#ffffe6;stop-opacity:1" id="stop10494" offset="0"/><stop style="stop-color:#ffffe6;stop-opacity:0" id="stop10496" offset="1"/></linearGradient><linearGradient id="linearGradient10484"><stop style="stop-color:#ffffe6;stop-opacity:1" id="stop10486" offset="0"/><stop style="stop-color:#ffffe6;stop-opacity:0" id="stop10488" offset="1"/></linearGradient><linearGradient id="linearGradient10476"><stop style="stop-color:#ffffe6;stop-opacity:1" id="stop10478" offset="0"/><stop style="stop-color:#ffffe6;stop-opacity:0" id="stop10480" offset="1"/></linearGradient><linearGradient id="linearGradient9614"><stop style="stop-color:#d7a127;stop-opacity:.6796875" id="stop9616" offset="0"/><stop style="stop-color:#ffffe6;stop-opacity:0" id="stop9618" offset="1"/></linearGradient><linearGradient id="linearGradient9604"><stop style="stop-color:#d7a127;stop-opacity:.6796875" id="stop9606" offset="0"/><stop style="stop-color:#ffffe6;stop-opacity:0" id="stop9608" offset="1"/></linearGradient><linearGradient id="linearGradient9596"><stop style="stop-color:#d7a127;stop-opacity:.6796875" id="stop9598" offset="0"/><stop style="stop-color:#ffffe6;stop-opacity:0" id="stop9600" offset="1"/></linearGradient><linearGradient id="linearGradient9588"><stop style="stop-color:#d7a127;stop-opacity:.6796875" id="stop9590" offset="0"/><stop style="stop-color:#ffffe6;stop-opacity:0" id="stop9592" offset="1"/></linearGradient><linearGradient id="linearGradient9580"><stop style="stop-color:#d7a127;stop-opacity:.67843139" id="stop9582" offset="0"/><stop style="stop-color:#ffffe6;stop-opacity:0" id="stop9584" offset="1"/></linearGradient><linearGradient id="linearGradient3645"><stop style="stop-color:#ffff23;stop-opacity:.49803922" id="stop3649" offset="0"/><stop id="stop3651" offset="1" style="stop-color:#ffff23;stop-opacity:0"/></linearGradient><linearGradient id="linearGradient3635"><stop style="stop-color:#ffff23;stop-opacity:1" id="stop3637" offset="0"/><stop id="stop3643" offset=".5" style="stop-color:#ffff23;stop-opacity:.49803922"/><stop style="stop-color:#ffff23;stop-opacity:0" id="stop3639" offset="1"/></linearGradient><linearGradient id="linearGradient9586" x1="196.976" x2="133.017" y1="102.16" y2="71.567" gradientUnits="userSpaceOnUse" xlink:href="#linearGradient9580"/><linearGradient id="linearGradient9594" x1="157.581" x2="40.11" y1="183.535" y2="133.48" gradientUnits="userSpaceOnUse" xlink:href="#linearGradient9588"/><linearGradient id="linearGradient9602" x1="284.109" x2="190.024" y1="172.875" y2="103.818" gradientUnits="userSpaceOnUse" xlink:href="#linearGradient9596"/><linearGradient id="linearGradient9610" x1="236.371" x2="21.32" y1="289.207" y2="225.248" gradientUnits="userSpaceOnUse" xlink:href="#linearGradient9604"/><linearGradient id="linearGradient9612" x1="236.371" x2="21.32" y1="289.207" y2="225.248" gradientUnits="userSpaceOnUse" xlink:href="#linearGradient9604"/><linearGradient id="linearGradient9620" x1="215.978" x2="97.329" y1="323.108" y2="295.696" gradientUnits="userSpaceOnUse" xlink:href="#linearGradient9614"/><linearGradient id="linearGradient10482" x1="100.754" x2="252.68" y1="236.177" y2="236.177" gradientUnits="userSpaceOnUse" xlink:href="#linearGradient10476"/><linearGradient id="linearGradient10490" x1="172.815" x2="180.816" y1="53.623" y2="53.623" gradientUnits="userSpaceOnUse" xlink:href="#linearGradient10484"/><linearGradient id="linearGradient10498" x1="155.134" x2="198.497" y1="48.622" y2="48.622" gradientUnits="userSpaceOnUse" xlink:href="#linearGradient10492"/></defs><metadata id="metadata7"/><g id="layer1" style="display:inline"><g id="g9044"><rect id="rect9022" width="221.02" height="13.261" x="66.306" y="305.846" style="display:inline;fill:#fff;fill-opacity:1;fill-rule:nonzero;stroke:#000;stroke-width:8;stroke-linecap:butt;stroke-linejoin:miter;stroke-miterlimit:4;stroke-dasharray:none;stroke-opacity:1"/><rect id="rect9024" width="212.179" height="17.682" x="70.726" y="287.744" style="display:inline;fill:#fff;fill-opacity:1;fill-rule:nonzero;stroke:#000;stroke-width:8;stroke-linecap:butt;stroke-linejoin:round;stroke-miterlimit:4;stroke-dasharray:none;stroke-opacity:1"/><path id="path9026" d="m 274.0648,286.90359 c -88.408,0 -97.2488,0 -194.497605,0 13.2612,-13.2612 30.942805,-30.9428 26.522405,-48.6244 53.0448,0 13.2612,0 70.7264,0 57.4652,0 48.6244,0 70.7264,0 -4.4204,17.6816 13.2612,35.3632 26.5224,48.6244 z" style="display:inline;fill:#fff;fill-opacity:1;fill-rule:evenodd;stroke:#000;stroke-width:8;stroke-linecap:butt;stroke-linejoin:miter;stroke-miterlimit:4;stroke-dasharray:none;stroke-opacity:1"/><path id="path9028" d="m 104.37233,236.17719 c 144.6894,0 144.6894,0 144.6894,0" style="display:inline;fill:#ffffe6;fill-opacity:1;fill-rule:evenodd;stroke:#000;stroke-width:7.23681688;stroke-linecap:round;stroke-linejoin:miter;stroke-miterlimit:4;stroke-dasharray:none;stroke-opacity:1"/><path id="path9030" d="m 176.816,231.018 c 0,-35.3632 0,-70.7264 8.8408,-88.408 8.8408,-17.6816 30.9428,-48.624395 70.7264,-48.624395 24.41246,0 61.8856,17.681595 61.8856,57.465195 0,11.051 -2.2102,20.9969 -7.18315,30.39025 -4.97295,9.39335 -32.60045,35.91575 -67.96365,44.75655 -19.17839,4.7946 -66.306,4.4204 -66.306,4.4204 z" style="display:inline;fill:#fff;fill-opacity:1;fill-rule:evenodd;stroke:#000;stroke-width:8;stroke-linecap:butt;stroke-linejoin:miter;stroke-miterlimit:4;stroke-dasharray:none;stroke-opacity:1"/><path id="path9032" d="m 176.815,30.941005 c 0.001,35.363 0.001,45.363 0.001,45.363" style="display:inline;fill:#ffffe6;fill-opacity:1;fill-rule:evenodd;stroke:#000;stroke-width:8;stroke-linecap:round;stroke-linejoin:miter;stroke-miterlimit:4;stroke-dasharray:none;stroke-opacity:1"/><path id="path9034" d="m 194.4974,48.621405 c -35.363,10e-4 -35.363,10e-4 -35.363,10e-4" style="display:inline;fill:#ffffe6;fill-opacity:1;fill-rule:evenodd;stroke:#000;stroke-width:8;stroke-linecap:round;stroke-linejoin:miter;stroke-miterlimit:4;stroke-dasharray:none;stroke-opacity:1"/><g style="display:inline;fill:#ffffe6;fill-opacity:1" id="g9036" transform="translate(0,10)"><path style="fill:#fff;fill-opacity:1;fill-rule:evenodd;stroke:#000;stroke-width:8;stroke-linecap:butt;stroke-linejoin:miter;stroke-miterlimit:4;stroke-dasharray:none;stroke-opacity:1" id="path9038" d="m 176.816,66.304005 c 17.6816,0 22.102,3.703068 22.102,17.6816 0,13.2612 -2.58941,27.280825 -8.8408,39.783595 -4.4204,8.8408 -4.4204,8.8408 -13.2612,30.9428"/><path style="display:inline;fill:#fff;fill-opacity:1;fill-rule:evenodd;stroke:#000;stroke-width:8.10000038;stroke-linecap:butt;stroke-linejoin:miter;stroke-miterlimit:4;stroke-dasharray:none;stroke-opacity:1" id="path9040" d="m 176.51,65.883605 c -17.6816,0 -22.102,3.70307 -22.102,17.6816 0,13.2612 2.58941,27.280825 8.8408,39.783595 4.4204,8.8408 4.4204,8.8408 13.2612,30.9428"/></g><path id="path9042" d="m 176.2936,231.018 c 0,-35.3632 0,-70.72639 -8.8408,-88.40799 -8.8408,-17.6816 -30.9428,-48.624396 -70.7264,-48.624396 -24.41246,0 -61.8856,17.681596 -61.8856,57.465196 0,11.051 2.2102,20.9969 7.18315,30.39024 4.97295,9.39335 32.60045,35.91575 67.96365,44.75655 19.17839,4.7946 66.306,4.4204 66.306,4.4204 z" style="display:inline;fill:#fff;fill-opacity:1;fill-rule:evenodd;stroke:#000;stroke-width:8;stroke-linecap:butt;stroke-linejoin:miter;stroke-miterlimit:4;stroke-dasharray:none;stroke-opacity:1"/></g></g><g id="layer2" style="display:inline"><rect style="display:inline;fill:url(#linearGradient9620);fill-opacity:1;fill-rule:nonzero;stroke:#000;stroke-width:8;stroke-linecap:butt;stroke-linejoin:miter;stroke-miterlimit:4;stroke-dasharray:none;stroke-opacity:1" id="rect3284" width="221.02" height="13.261" x="66.306" y="305.846"/><rect style="display:inline;fill:url(#linearGradient9610);fill-opacity:1;fill-rule:nonzero;stroke:#000;stroke-width:8;stroke-linecap:butt;stroke-linejoin:round;stroke-miterlimit:4;stroke-dasharray:none;stroke-opacity:1" id="rect3288" width="212.179" height="17.682" x="70.726" y="287.744"/><path style="display:inline;fill:url(#linearGradient9612);fill-opacity:1;fill-rule:evenodd;stroke:#000;stroke-width:8;stroke-linecap:butt;stroke-linejoin:miter;stroke-miterlimit:4;stroke-dasharray:none;stroke-opacity:1" id="path2481" d="m 274.0648,286.90359 c -88.408,0 -97.2488,0 -194.497605,0 13.2612,-13.2612 30.942805,-30.9428 26.522405,-48.6244 53.0448,0 13.2612,0 70.7264,0 57.4652,0 48.6244,0 70.7264,0 -4.4204,17.6816 13.2612,35.3632 26.5224,48.6244 z"/><path style="display:inline;fill:url(#linearGradient10482);fill-opacity:1;fill-rule:evenodd;stroke:#000;stroke-width:7.23681688;stroke-linecap:round;stroke-linejoin:miter;stroke-miterlimit:4;stroke-dasharray:none;stroke-opacity:1" id="path3253" d="m 104.37233,236.17719 c 144.6894,0 144.6894,0 144.6894,0"/><path style="fill:url(#linearGradient9602);fill-opacity:1;fill-rule:evenodd;stroke:#000;stroke-width:8;stroke-linecap:butt;stroke-linejoin:miter;stroke-miterlimit:4;stroke-dasharray:none;stroke-opacity:1" id="path3366" d="m 176.816,231.018 c 0,-35.3632 0,-70.7264 8.8408,-88.408 8.8408,-17.6816 30.9428,-48.624395 70.7264,-48.624395 24.41246,0 61.8856,17.681595 61.8856,57.465195 0,11.051 -2.2102,20.9969 -7.18315,30.39025 -4.97295,9.39335 -32.60045,35.91575 -67.96365,44.75655 -19.17839,4.7946 -66.306,4.4204 -66.306,4.4204 z"/><path style="fill:url(#linearGradient10490);fill-opacity:1;fill-rule:evenodd;stroke:#000;stroke-width:8;stroke-linecap:round;stroke-linejoin:miter;stroke-miterlimit:4;stroke-dasharray:none;stroke-opacity:1" id="path3370" d="m 176.815,30.941005 c 0.001,35.363 0.001,45.363 0.001,45.363"/><path style="display:inline;fill:url(#linearGradient10498);fill-opacity:1;fill-rule:evenodd;stroke:#000;stroke-width:8;stroke-linecap:round;stroke-linejoin:miter;stroke-miterlimit:4;stroke-dasharray:none;stroke-opacity:1" id="path3372" d="m 194.4974,48.621405 c -35.363,10e-4 -35.363,10e-4 -35.363,10e-4"/><g id="g3717" transform="translate(0,10)" style="fill:url(#linearGradient9586);fill-opacity:1"><path id="path3396" d="m 176.816,66.304005 c 17.6816,0 22.102,3.703068 22.102,17.6816 0,13.2612 -2.58941,27.280825 -8.8408,39.783595 -4.4204,8.8408 -4.4204,8.8408 -13.2612,30.9428" style="fill:url(#linearGradient9586);fill-opacity:1;fill-rule:evenodd;stroke:#000;stroke-width:8;stroke-linecap:butt;stroke-linejoin:miter;stroke-miterlimit:4;stroke-dasharray:none;stroke-opacity:1"/><path id="path3398" d="m 176.51,65.883605 c -17.6816,0 -22.102,3.70307 -22.102,17.6816 0,13.2612 2.58941,27.280825 8.8408,39.783595 4.4204,8.8408 4.4204,8.8408 13.2612,30.9428" style="display:inline;fill:url(#linearGradient9586);fill-opacity:1;fill-rule:evenodd;stroke:#000;stroke-width:8.10000038;stroke-linecap:butt;stroke-linejoin:miter;stroke-miterlimit:4;stroke-dasharray:none;stroke-opacity:1"/></g><path style="display:inline;fill:url(#linearGradient9594);fill-opacity:1;fill-rule:evenodd;stroke:#000;stroke-width:8;stroke-linecap:butt;stroke-linejoin:miter;stroke-miterlimit:4;stroke-dasharray:none;stroke-opacity:1" id="path3621" d="m 176.2936,231.018 c 0,-35.3632 0,-70.72639 -8.8408,-88.40799 -8.8408,-17.6816 -30.9428,-48.624396 -70.7264,-48.624396 -24.41246,0 -61.8856,17.681596 -61.8856,57.465196 0,11.051 2.2102,20.9969 7.18315,30.39024 4.97295,9.39335 32.60045,35.91575 67.96365,44.75655 19.17839,4.7946 66.306,4.4204 66.306,4.4204 z"/></g></svg>