<svg xmlns="http://www.w3.org/2000/svg" xmlns:svg="http://www.w3.org/2000/svg" xmlns:xlink="http://www.w3.org/1999/xlink" id="svg2" width="353.63" height="353.63" version="1.0"><defs id="defs4"><linearGradient id="linearGradient11330"><stop style="stop-color:#d7a127;stop-opacity:.6796875" id="stop11332" offset="0"/><stop style="stop-color:#ffffe6;stop-opacity:0" id="stop11334" offset="1"/></linearGradient><linearGradient id="linearGradient11312"><stop style="stop-color:#d7a127;stop-opacity:.6796875" id="stop11314" offset="0"/><stop style="stop-color:#ffffe6;stop-opacity:0" id="stop11316" offset="1"/></linearGradient><linearGradient id="linearGradient9951"><stop style="stop-color:#ffff82;stop-opacity:1" id="stop9953" offset="0"/><stop style="stop-color:#ffff82;stop-opacity:0" id="stop9955" offset="1"/></linearGradient><linearGradient id="linearGradient3709"><stop style="stop-color:#ffff82;stop-opacity:1" id="stop3711" offset="0"/><stop style="stop-color:#ffff82;stop-opacity:0" id="stop3713" offset="1"/></linearGradient><linearGradient id="linearGradient3693"><stop style="stop-color:#ffff82;stop-opacity:1" id="stop3695" offset="0"/><stop style="stop-color:#ffff82;stop-opacity:0" id="stop3697" offset="1"/></linearGradient><linearGradient id="linearGradient3645"><stop style="stop-color:#ffff23;stop-opacity:.49803922" id="stop3649" offset="0"/><stop id="stop3651" offset="1" style="stop-color:#ffff23;stop-opacity:0"/></linearGradient><linearGradient id="linearGradient3635"><stop style="stop-color:#ffff23;stop-opacity:1" id="stop3637" offset="0"/><stop id="stop3643" offset=".5" style="stop-color:#ffff23;stop-opacity:.49803922"/><stop style="stop-color:#ffff23;stop-opacity:0" id="stop3639" offset="1"/></linearGradient><linearGradient id="linearGradient3699" x1="265.224" x2="190.077" y1="154.712" y2="101.667" gradientTransform="translate(0,10)" gradientUnits="userSpaceOnUse" xlink:href="#linearGradient3693"/><linearGradient id="linearGradient3715" x1="132.612" x2="57.465" y1="154.712" y2="101.667" gradientTransform="translate(0,10)" gradientUnits="userSpaceOnUse" xlink:href="#linearGradient3709"/><linearGradient id="linearGradient3721" x1="212.179" x2="145.873" y1="114.928" y2="79.565" gradientUnits="userSpaceOnUse" xlink:href="#linearGradient3693"/><linearGradient id="linearGradient3725" x1="212.179" x2="141.453" y1="114.928" y2="75.145" gradientUnits="userSpaceOnUse" xlink:href="#linearGradient3693"/><linearGradient id="linearGradient3939" x1="212.179" x2="145.873" y1="114.928" y2="79.565" gradientUnits="userSpaceOnUse" xlink:href="#linearGradient3693"/><linearGradient id="linearGradient9957" x1="172.397" x2="137.033" y1="79.994" y2="53.471" gradientUnits="userSpaceOnUse" xlink:href="#linearGradient9951"/><linearGradient id="linearGradient11318" x1="211.807" x2="79.717" y1="255.374" y2="212.734" gradientUnits="userSpaceOnUse" xlink:href="#linearGradient11312"/><linearGradient id="linearGradient11320" x1="211.807" x2="79.717" y1="255.374" y2="212.734" gradientUnits="userSpaceOnUse" xlink:href="#linearGradient11312"/><linearGradient id="linearGradient11322" x1="211.807" x2="79.717" y1="255.374" y2="212.734" gradientUnits="userSpaceOnUse" xlink:href="#linearGradient11312"/><linearGradient id="linearGradient11324" x1="211.807" x2="79.717" y1="255.374" y2="212.734" gradientUnits="userSpaceOnUse" xlink:href="#linearGradient11312"/><linearGradient id="linearGradient11326" x1="211.807" x2="79.717" y1="255.374" y2="212.734" gradientUnits="userSpaceOnUse" xlink:href="#linearGradient11312"/><linearGradient id="linearGradient11328" x1="201.147" x2="99.807" y1="156.19" y2="175.656" gradientUnits="userSpaceOnUse" xlink:href="#linearGradient11312"/><linearGradient id="linearGradient11336" x1="191.57" x2="116.024" y1="83.811" y2="59.247" gradientUnits="userSpaceOnUse" xlink:href="#linearGradient11330"/></defs><metadata id="metadata7"/><g id="layer1" style="display:inline"><g id="g10794" style="fill:#fff"><rect id="rect10780" width="221.02" height="13.261" x="66.306" y="305.846" style="fill:#fff;fill-opacity:1;fill-rule:nonzero;stroke:#000;stroke-width:8;stroke-linecap:butt;stroke-linejoin:miter;stroke-miterlimit:4;stroke-dasharray:none;stroke-opacity:1;display:inline"/><rect id="rect10782" width="212.179" height="17.682" x="70.726" y="287.744" style="fill:#fff;fill-opacity:1;fill-rule:nonzero;stroke:#000;stroke-width:8;stroke-linecap:butt;stroke-linejoin:round;stroke-miterlimit:4;stroke-dasharray:none;stroke-opacity:1;display:inline"/><path id="path10784" d="M 274.0648,286.90359 C 185.6568,286.90359 176.816,286.90359 79.567195,286.90359 C 92.828395,273.64239 110.51,255.96079 106.0896,238.27919 C 159.1344,238.27919 119.3508,238.27919 176.816,238.27919 C 234.2812,238.27919 225.4404,238.27919 247.5424,238.27919 C 243.122,255.96079 260.8036,273.64239 274.0648,286.90359 z" style="fill:#fff;fill-opacity:1;fill-rule:evenodd;stroke:#000;stroke-width:8;stroke-linecap:butt;stroke-linejoin:miter;stroke-miterlimit:4;stroke-dasharray:none;stroke-opacity:1;display:inline"/><path id="path10786" d="M 104.22529,236.17719 C 249.4067,236.17719 249.4067,236.17719 249.4067,236.17719" style="fill:#fff;fill-opacity:1;fill-rule:evenodd;stroke:#000;stroke-width:7.24911022;stroke-linecap:round;stroke-linejoin:miter;stroke-miterlimit:4;stroke-dasharray:none;stroke-opacity:1;display:inline"/><path id="path10788" d="M 212.1792,70.724503 A 39.581203,39.783501 0 1 1 133.01679,70.724503 A 39.581203,39.783501 0 1 1 212.1792,70.724503 z" transform="translate(4.0156115,8.4203023)" style="fill:#fff;fill-opacity:1;fill-rule:nonzero;stroke:#000;stroke-width:8;stroke-linecap:round;stroke-linejoin:miter;stroke-miterlimit:4;stroke-dasharray:none;stroke-opacity:1;display:inline"/><path id="path10790" d="M 159.15615,119.3488 C 194.72097,119.3488 194.72097,119.3488 194.72097,119.3488" style="fill:#fff;fill-opacity:1;fill-rule:evenodd;stroke:#000;stroke-width:5.07404709;stroke-linecap:round;stroke-linejoin:miter;stroke-miterlimit:4;stroke-dasharray:none;stroke-opacity:1;display:inline"/><path id="path10792" d="M 114.9304,237.4384 C 132.612,221.018 142.56318,213.26644 150.714,188.814 C 159.1344,163.5528 159.1344,132.61 159.1344,119.3488 C 163.5548,119.3488 190.0772,119.3488 194.4976,119.3488 C 194.4976,132.61 194.4976,163.5528 202.918,188.814 C 211.06882,213.26644 221.02,221.018 238.7016,237.4384 C 198.918,237.4384 190.0772,237.4384 176.816,237.4384 C 163.5548,237.4384 114.9304,237.4384 114.9304,237.4384 z" style="fill:#fff;fill-opacity:1;fill-rule:evenodd;stroke:#000;stroke-width:8;stroke-linecap:butt;stroke-linejoin:miter;stroke-miterlimit:4;stroke-dasharray:none;stroke-opacity:1;display:inline"/></g></g><g id="layer2" style="display:inline"><rect style="fill:url(#linearGradient11318);fill-opacity:1;fill-rule:nonzero;stroke:#000;stroke-width:8;stroke-linecap:butt;stroke-linejoin:miter;stroke-miterlimit:4;stroke-dasharray:none;stroke-opacity:1;display:inline" id="rect3284" width="221.02" height="13.261" x="66.306" y="305.846"/><rect style="fill:url(#linearGradient11320);fill-opacity:1;fill-rule:nonzero;stroke:#000;stroke-width:8;stroke-linecap:butt;stroke-linejoin:round;stroke-miterlimit:4;stroke-dasharray:none;stroke-opacity:1;display:inline" id="rect3288" width="212.179" height="17.682" x="70.726" y="287.744"/><path style="fill:url(#linearGradient11322);fill-opacity:1;fill-rule:evenodd;stroke:#000;stroke-width:8;stroke-linecap:butt;stroke-linejoin:miter;stroke-miterlimit:4;stroke-dasharray:none;stroke-opacity:1;display:inline" id="path2481" d="M 274.0648,286.90359 C 185.6568,286.90359 176.816,286.90359 79.567195,286.90359 C 92.828395,273.64239 110.51,255.96079 106.0896,238.27919 C 159.1344,238.27919 119.3508,238.27919 176.816,238.27919 C 234.2812,238.27919 225.4404,238.27919 247.5424,238.27919 C 243.122,255.96079 260.8036,273.64239 274.0648,286.90359 z"/><path style="fill:url(#linearGradient11324);fill-opacity:1;fill-rule:evenodd;stroke:#000;stroke-width:7.2491102200000004;stroke-linecap:round;stroke-linejoin:miter;stroke-miterlimit:4;stroke-dasharray:none;stroke-opacity:1;display:inline" id="path3253" d="M 104.22529,236.17719 C 249.4067,236.17719 249.4067,236.17719 249.4067,236.17719"/><path style="fill:url(#linearGradient11336);fill-opacity:1;fill-rule:nonzero;stroke:#000;stroke-width:8;stroke-linecap:round;stroke-linejoin:miter;stroke-miterlimit:4;stroke-dasharray:none;stroke-opacity:1" id="path9961" d="M 212.1792,70.724503 A 39.581203,39.783501 0 1 1 133.01679,70.724503 A 39.581203,39.783501 0 1 1 212.1792,70.724503 z" transform="translate(4.0156115,8.4203023)"/><path style="fill:url(#linearGradient11326);fill-opacity:1;fill-rule:evenodd;stroke:#000;stroke-width:5.0740470899999996;stroke-linecap:round;stroke-linejoin:miter;stroke-miterlimit:4;stroke-dasharray:none;stroke-opacity:1" id="path9963" d="M 159.15615,119.3488 C 194.72097,119.3488 194.72097,119.3488 194.72097,119.3488"/><path style="fill:url(#linearGradient11328);fill-opacity:1;fill-rule:evenodd;stroke:#000;stroke-width:8;stroke-linecap:butt;stroke-linejoin:miter;stroke-miterlimit:4;stroke-dasharray:none;stroke-opacity:1" id="path9967" d="M 114.9304,237.4384 C 132.612,221.018 142.56318,213.26644 150.714,188.814 C 159.1344,163.5528 159.1344,132.61 159.1344,119.3488 C 163.5548,119.3488 190.0772,119.3488 194.4976,119.3488 C 194.4976,132.61 194.4976,163.5528 202.918,188.814 C 211.06882,213.26644 221.02,221.018 238.7016,237.4384 C 198.918,237.4384 190.0772,237.4384 176.816,237.4384 C 163.5548,237.4384 114.9304,237.4384 114.9304,237.4384 z"/></g></svg>