<svg xmlns="http://www.w3.org/2000/svg" xmlns:svg="http://www.w3.org/2000/svg" xmlns:xlink="http://www.w3.org/1999/xlink" id="svg2" width="353.63" height="353.63" version="1.0"><defs id="defs4"><linearGradient id="linearGradient13432"><stop style="stop-color:#d7a127;stop-opacity:.6796875" id="stop13434" offset="0"/><stop style="stop-color:#fff;stop-opacity:0" id="stop13436" offset="1"/></linearGradient><linearGradient id="linearGradient3709"><stop style="stop-color:#ffff82;stop-opacity:1" id="stop3711" offset="0"/><stop style="stop-color:#ffff82;stop-opacity:0" id="stop3713" offset="1"/></linearGradient><linearGradient id="linearGradient3693"><stop style="stop-color:#ffff82;stop-opacity:1" id="stop3695" offset="0"/><stop style="stop-color:#ffff82;stop-opacity:0" id="stop3697" offset="1"/></linearGradient><linearGradient id="linearGradient3645"><stop style="stop-color:#ffff23;stop-opacity:.49803922" id="stop3649" offset="0"/><stop id="stop3651" offset="1" style="stop-color:#ffff23;stop-opacity:0"/></linearGradient><linearGradient id="linearGradient3635"><stop style="stop-color:#ffff23;stop-opacity:1" id="stop3637" offset="0"/><stop id="stop3643" offset=".5" style="stop-color:#ffff23;stop-opacity:.49803922"/><stop style="stop-color:#ffff23;stop-opacity:0" id="stop3639" offset="1"/></linearGradient><linearGradient id="linearGradient3699" x1="265.224" x2="190.077" y1="154.712" y2="101.667" gradientTransform="translate(0,10)" gradientUnits="userSpaceOnUse" xlink:href="#linearGradient3693"/><linearGradient id="linearGradient3715" x1="132.612" x2="57.465" y1="154.712" y2="101.667" gradientTransform="translate(0,10)" gradientUnits="userSpaceOnUse" xlink:href="#linearGradient3709"/><linearGradient id="linearGradient3721" x1="212.179" x2="145.873" y1="114.928" y2="79.565" gradientUnits="userSpaceOnUse" xlink:href="#linearGradient3693"/><linearGradient id="linearGradient3725" x1="212.179" x2="141.453" y1="114.928" y2="75.145" gradientUnits="userSpaceOnUse" xlink:href="#linearGradient3693"/><linearGradient id="linearGradient3939" x1="212.179" x2="145.873" y1="114.928" y2="79.565" gradientUnits="userSpaceOnUse" xlink:href="#linearGradient3693"/><linearGradient id="linearGradient13438" x1="191.878" x2="68.594" y1="199.757" y2="168.704" gradientUnits="userSpaceOnUse" xlink:href="#linearGradient13432"/></defs><metadata id="metadata7"/><g id="layer1" style="display:inline"><g id="g12899" style="fill:#fff"><rect id="rect12887" width="221.02" height="13.261" x="66.306" y="305.846" style="display:inline;fill:#fff;fill-opacity:1;fill-rule:nonzero;stroke:#000;stroke-width:8;stroke-linecap:butt;stroke-linejoin:miter;stroke-miterlimit:4;stroke-dasharray:none;stroke-opacity:1"/><rect id="rect12889" width="212.179" height="17.682" x="70.726" y="287.744" style="display:inline;fill:#faffff;fill-opacity:1;fill-rule:nonzero;stroke:#000;stroke-width:8;stroke-linecap:butt;stroke-linejoin:round;stroke-miterlimit:4;stroke-dasharray:none;stroke-opacity:1"/><path id="path12891" d="m 274.0648,286.90359 c -88.408,0 -97.2488,0 -194.497605,0 13.2612,-13.2612 30.942805,-30.9428 26.522405,-48.6244 53.0448,0 13.2612,0 70.7264,0 57.4652,0 48.6244,0 70.7264,0 -4.4204,17.6816 13.2612,35.3632 26.5224,48.6244 z" style="display:inline;fill:#fff;fill-opacity:1;fill-rule:evenodd;stroke:#000;stroke-width:8;stroke-linecap:butt;stroke-linejoin:miter;stroke-miterlimit:4;stroke-dasharray:none;stroke-opacity:1"/><path id="path12893" d="m 104.34883,236.17719 c 144.7026,0 144.7026,0 144.7026,0" style="display:inline;fill:#fff;fill-opacity:1;fill-rule:evenodd;stroke:#000;stroke-width:7.23714638;stroke-linecap:round;stroke-linejoin:miter;stroke-miterlimit:4;stroke-dasharray:none;stroke-opacity:1"/><path id="path12895" d="m 265.224,97.144805 c -39.7836,0 -128.1916,0 -176.816,0 0,-44.203995 0,-30.9428 0,-44.204 17.6816,0 22.102,0 35.3632,0 0,13.2612 0,4.4204 0,22.102 17.6816,0 26.5224,0 35.3632,0 0,-17.6816 0.85186,-8.841 0,-22.102 26.5224,0 8.8408,0 35.3632,0 0,26.5224 -0.001,6.343913 0,22.102 17.6816,0 17.6816,0 35.3632,0 0,-22.102 0,-8.8408 0,-22.102 30.9428,0 -4.4204,0 35.3632,0 0,39.7836 0,13.2612 0,44.204 z" style="display:inline;fill:#fff;fill-opacity:1;fill-rule:evenodd;stroke:#000;stroke-width:8;stroke-linecap:butt;stroke-linejoin:miter;stroke-miterlimit:4;stroke-dasharray:none;stroke-opacity:1"/><rect id="rect12897" width="132.404" height="138.027" x="110.574" y="97.628" style="display:inline;fill:#fff;fill-opacity:1;fill-rule:nonzero;stroke:#000;stroke-width:8.59645653;stroke-linejoin:miter;stroke-miterlimit:4;stroke-dasharray:none;stroke-opacity:1"/></g></g><g id="layer2" style="display:inline"><g id="g13416" style="fill:url(#linearGradient13438);fill-opacity:1"><rect id="rect3284" width="221.02" height="13.261" x="66.306" y="305.846" style="display:inline;fill:url(#linearGradient13438);fill-opacity:1;fill-rule:nonzero;stroke:#000;stroke-width:8;stroke-linecap:butt;stroke-linejoin:miter;stroke-miterlimit:4;stroke-dasharray:none;stroke-opacity:1"/><rect id="rect3288" width="212.179" height="17.682" x="70.726" y="287.744" style="display:inline;fill:url(#linearGradient13438);fill-opacity:1;fill-rule:nonzero;stroke:#000;stroke-width:8;stroke-linecap:butt;stroke-linejoin:round;stroke-miterlimit:4;stroke-dasharray:none;stroke-opacity:1"/><path id="path2481" d="m 274.0648,286.90359 c -88.408,0 -97.2488,0 -194.497605,0 13.2612,-13.2612 30.942805,-30.9428 26.522405,-48.6244 53.0448,0 13.2612,0 70.7264,0 57.4652,0 48.6244,0 70.7264,0 -4.4204,17.6816 13.2612,35.3632 26.5224,48.6244 z" style="display:inline;fill:url(#linearGradient13438);fill-opacity:1;fill-rule:evenodd;stroke:#000;stroke-width:8;stroke-linecap:butt;stroke-linejoin:miter;stroke-miterlimit:4;stroke-dasharray:none;stroke-opacity:1"/><path id="path3253" d="m 104.34883,236.17719 c 144.7026,0 144.7026,0 144.7026,0" style="display:inline;fill:url(#linearGradient13438);fill-opacity:1;fill-rule:evenodd;stroke:#000;stroke-width:7.23714638;stroke-linecap:round;stroke-linejoin:miter;stroke-miterlimit:4;stroke-dasharray:none;stroke-opacity:1"/><path id="path6992" d="m 265.224,97.144805 c -39.7836,0 -128.1916,0 -176.816,0 0,-44.203995 0,-30.9428 0,-44.204 17.6816,0 22.102,0 35.3632,0 0,13.2612 0,4.4204 0,22.102 17.6816,0 26.5224,0 35.3632,0 0,-17.6816 0.85186,-8.841 0,-22.102 26.5224,0 8.8408,0 35.3632,0 0,26.5224 -0.001,6.343913 0,22.102 17.6816,0 17.6816,0 35.3632,0 0,-22.102 0,-8.8408 0,-22.102 30.9428,0 -4.4204,0 35.3632,0 0,39.7836 0,13.2612 0,44.204 z" style="fill:url(#linearGradient13438);fill-opacity:1;fill-rule:evenodd;stroke:#000;stroke-width:8;stroke-linecap:butt;stroke-linejoin:miter;stroke-miterlimit:4;stroke-dasharray:none;stroke-opacity:1"/><rect id="rect6994" width="132.404" height="138.027" x="110.574" y="97.628" style="fill:url(#linearGradient13438);fill-opacity:1;fill-rule:nonzero;stroke:#000;stroke-width:8.59645653;stroke-linejoin:miter;stroke-miterlimit:4;stroke-dasharray:none;stroke-opacity:1"/></g></g></svg>