<svg xmlns="http://www.w3.org/2000/svg" xmlns:xlink="http://www.w3.org/1999/xlink" id="Layer_1" x="0" y="0" version="1.1" viewBox="0 0 81 81" xml:space="preserve" style="enable-background:new 0 0 81 81"><style type="text/css">.st0{fill:none}.st1{fill:#010101}.st2{fill:#6d6e6e}</style><rect width="81" height="81" class="st0"/><polygon points="56.9 31.1 24.1 31.1 19.2 72 61.8 72 61.8 72" class="st1"/><rect width="52.5" height="13.5" x="14.2" y="58.5" class="st1"/><path d="M41.1,34.1c-0.1,7.2-6.6,24.4-14.2,24.4c-1.2,0-2.3,0-2.3,0l3.8-24.4H41.1z" class="st2"/><rect width="17.9" height="6.1" x="18.4" y="62.3" class="st2"/><polygon points="53.4 12 53.4 18.9 46.5 18.9 46.5 12 34.5 12 34.5 18.9 27.6 18.9 27.6 12 15.6 12 15.6 23.4 24.6 32.5 56.4 32.5 65.4 23.4 65.4 23.4 65.4 12" class="st1"/><g><polygon points="62.4 15 56.4 15 56.4 22.2" class="st2"/><polygon points="43.5 15 37.5 15 37.5 22.2" class="st2"/><polygon points="24.6 15 18.6 15 18.6 22.2" class="st2"/></g></svg>