<svg xmlns="http://www.w3.org/2000/svg" xmlns:svg="http://www.w3.org/2000/svg" id="svg2" width="100%" height="100%" version="1.1" viewBox="0 -100 1000 1000"><metadata id="metadata12"/><g id="g4" transform="matrix(1,0,0,-1,0,840)"><path id="path6" fill="#000" d="m 244,0 v 2 25 l 3,31 q 3,30 16,54.5 13,24.5 47,27.5 l 35,3 38,4 72,7 85,3 q 22,0 49.5,-1 27.5,-1 57.5,-4 34,0 71,-5 37,-5 63,-8 26,-3 39,-34 3,-8 8,-26 5,-18 5,-39 l 1,-19 V 3 0 H 244 z m 176,393 q -20,-9 -33,-14 -3,-1 -37,-12 l -2,-1 -21,-6 -20,-7 q -7,-2 -17,-12 l -11,-17 -2,-3 -1,-3 -13,-18 q -6,-6 -17,-7 l -11,1 -11,2 q -20,6 -39,21 -19,15 -19,33 0,43 22,81 21,40 50,67 12,12 24,28 6,8 14,20 16,29 16,62 0,12 5,20 l 15,17 13,10 14,13 19,21 q 8,11 16,30 l 3,11 3,12 v 2 l 7,27 q 5,12 19,12 l 19,-19 19,-21 3,-5 4,-5 q 18,-24 40.5,-44 22.5,-20 54.5,-20 12,0 46,-11.5 34,-11.5 71,-40.5 45,-35 86,-105 20,-34 30,-77.5 Q 789,391 789,334 v -7 -6 -18 q 0,-12 2,-18 v -64 q 0,-25 -17,-25 h -1 -1 -6 l -5,1 -118,12 -102,4 -84,-3 -72,-7 -38,-4 -35,-3 q -7,0 -10,2 -3,3 -3,8 l 3,11 9,14 12,12 14,12 3,2 3,3 33,15 q 14,5 21,8 7,3 22,11 33,15 60,39 27,24 27,64 l -1,9 -1,11 q -2,7 -3,11 l -5,12.5 q 0,0 -8,11.5 h -3 l -3,-2 -3,-3 q -24,-40 -59,-54 z"/></g></svg>