<svg xmlns="http://www.w3.org/2000/svg" xmlns:svg="http://www.w3.org/2000/svg" id="svg2" width="100%" height="100%" version="1.1" viewBox="0 -100 1000 1000"><metadata id="metadata12"/><g id="g4" transform="matrix(1,0,0,-1,0,840)"><path id="path6" fill="#000" d="m 257,0 -3,20 -1,19 q 0,42 16,70 9,16 17.5,26.5 Q 295,146 307,157 l 6,5 7,5 q 20,16 39.5,25 19.5,9 21.5,13 l -1,7 v 8 l 3,28 9,28 q 15,33 41.5,56.5 Q 460,356 491,362 l 5,1 h 5 l 7,-1 h 7 q 27,-6 53,-30 26,-24 41,-56 l 7,-21 4,-21 1,-7 v -7 -8 l -1,-7 21,-13 q 18,-8 43,-27 l 5,-4 6,-4 q 20,-17 37,-47 17,-30 17,-72 L 748,19 745,0 H 257 z m 176,547 q 28,28 68,28 39,0 67,-28 28,-28 28,-67 0,-39 -28,-67 -28,-28 -67,-28 -39,0 -67,27.5 -28,27.5 -28,67.5 0,38 27,67 z"/></g></svg>