<svg xmlns="http://www.w3.org/2000/svg" xmlns:svg="http://www.w3.org/2000/svg" id="svg2" width="100%" height="100%" version="1.1" viewBox="0 -100 1000 1000"><metadata id="metadata12"/><g id="g4" transform="matrix(1,0,0,-1,0,840)"><path id="path6" fill="#000" d="m 199,0 v 2 25 l 3,31 q 3,30 16,54.5 13,24.5 47,27.5 l 35,3 40,4 74,7 86,3 q 23,0 49,-1 26,-1 55,-4 32,0 69,-5 37,-5 63,-8 26,-3 39,-34 3,-8 8,-26 5,-18 5,-39 l 1,-19 V 3 0 H 199 z m 119,431 q 25,7 76,13 51,6 106,6 53,0 104,-5.5 51,-5.5 83,-13.5 l 34,-235 -119,12 q -23,0 -59.5,2.5 Q 506,213 500,213 l -87,-3 -72,-7 -34,-4 -27,-3 z m 101,169 19,112 h 7 l 8,2 23,2 24,1 20,-1 20,-1 10,-2 10,-1 17,-112 h 52 l 34,97 20,-3 21,-3 20,-6 21,-9 -6,-98 Q 736,549 723.5,526.5 711,504 687,486 l -26,3 -26,4 -61,7 -74,4 q -19,0 -40.5,-1 -21.5,-1 -43.5,-4 -18,0 -41.5,-3.5 Q 351,492 318,486 291,500 279.5,520 268,540 263,566 l -10,110 22,9 25,7 19,3 18,2 34,-97 h 48 z"/></g></svg>