<svg xmlns="http://www.w3.org/2000/svg" xmlns:svg="http://www.w3.org/2000/svg" id="svg2" width="100%" height="100%" version="1.1" viewBox="0 -100 1000 1000"><metadata id="metadata12"/><g id="g4" transform="matrix(1,0,0,-1,0,840)"><path id="path6" fill="#000" d="m 195,0 q 0,45 1.5,62 1.5,17 6.5,43 9,46 58,85 0,14 -1,22.5 -1,8.5 -6,18.5 -8,19 -22,36 l -18,20 -19,23 q -21,25 -43,63 -10,19 -16.5,42 -6.5,23 -6.5,49 v 13 l 1,13 q 8,57 47,103 39,46 99,46 60,0 96,-26 37,-24 62,-56 21,-27 37,-57 13,-24 25,-25 7,0 19.5,25.5 12.5,25.5 36.5,56.5 24,31 62,56.5 38,25.5 100,25.5 81,0 119.5,-53.5 Q 872,532 872,456 872,414 852,380 841,361 832,347.5 823,334 808,316 l -30,-39 -23,-36 -8,-21 -3,-21 v -5 l 1,-6 Q 794,154 802.5,105 811,56 811,0 H 195 z m 542,71 q 0,37 -26.5,52 -26.5,15 -72.5,24 l -28,4 -44,3 h -15 q -9,0 -25,2 l -28,1 -27,-1 -45,-3 q -20,0 -32,-2 l -26,-3 -8,-1 -5,-1 Q 322,142 295.5,126 269,110 269,71 h 468 z m -260,329 -17,16 -22,29 -24,36 q -24,35 -56,60 -32,27 -83,27 -25,0 -40,-14 -15,-14 -25,-34 l -8,-26 -2,-18 q 0,-46 19,-78.5 19,-32.5 46,-66.5 l 22,-28 21,-28 15,-30 q 6,-14 6,-30 26,5 42.5,7.5 16.5,2.5 36.5,2.5 l 83,3 43,-1 45,-3 q 26,0 49,-4 13,0 21,-1 8,-1 26,-4 0,25 12,47.5 12,22.5 27,41.5 l 12,15 12,15 q 24,29 43.5,62.5 19.5,33.5 19.5,78.5 0,49 -28,71 -28,22 -73,22 -49,0 -80,-27 -31,-27 -52,-60 l -21,-34 -18,-28 q -6,-11 -15,-17.5 -9,-6.5 -18,-6.5 -10,0 -19,5 z m 73,394 q 21,-18 21,-47 0,-11 -8,-39.5 Q 555,679 541,649 l -5,-14 -6,-14 -19,-43 -15,-28 q -7,9 -15,26 l -17,41 -7,16 -6,17 -19,57 q -1,5 -4,20.5 -3,15.5 -4,19.5 0,26 21,47 22,19 55,19 30,0 50,-19 z m -71,-45 -4,-21 q 0,-12 6,-33 l 14,-46 15,46 q 6,20 6,33 0,16 -5,21 -3,6 -15,6 -11,0 -17,-6 z"/></g><path style="fill:#f9f9f9;fill-opacity:1" id="path2989" d="m 330.46708,615.28233 c -0.0772,-14.74591 -21.10363,-53.248 -47.97722,-87.85229 -61.91858,-79.73067 -78.70639,-112.62841 -78.9617,-154.73504 -0.1986,-32.75379 7.47432,-53.80772 27.7697,-76.19801 l 17.7957,-19.63258 33.2922,0.29242 c 26.08633,0.22912 37.37786,2.40714 52.16852,10.06275 25.83963,13.37453 61.18258,49.98045 92.3219,95.62095 34.00862,49.84601 46.96508,62.0946 66.26177,62.64159 19.47479,0.55203 30.91466,-10.13815 57.96501,-54.16639 56.48634,-91.93944 95.90263,-120.47845 159.42988,-115.43368 65.55729,5.20597 94.57576,44.15478 85.20534,114.36309 -4.34894,32.58461 -17.35513,56.91403 -62.22627,116.40074 -42.84865,56.80538 -54.6014,76.95444 -58.34479,100.02688 -2.50509,15.44028 -3.29191,16.13793 -15.80848,14.01688 -47.50522,-8.05019 -170.76147,-12.0293 -237.74847,-7.67529 -39.61864,2.57513 -76.32415,5.91851 -81.5678,7.42975 -7.45645,2.14897 -9.54292,1.02422 -9.57529,-5.16177 l 0,0 z"/><path style="fill:#f9f9f9;fill-opacity:1" id="path2991" d="m 485.39017,151.10171 c -3.98031,-14.72882 -6.61166,-34.40679 -5.84745,-43.72883 1.1452,-13.96935 3.10662,-17.19257 11.15661,-18.33374 14.2363,-2.01815 22.01253,6.62046 22.01253,24.45368 0,15.3419 -10.7723,54.02854 -16.96151,60.91398 -1.7178,1.91102 -6.37988,-8.57627 -10.36018,-23.30509 z"/><path style="fill:#f9f9f9;fill-opacity:1" id="path2993" d="m 272.66587,753.57744 c 6.1902,-30.95099 31.28267,-47.28401 89.62227,-58.33631 43.52952,-8.24657 224.04873,-9.13319 264.8305,-1.30072 68.51839,13.1595 105.93221,35.01644 105.93221,61.885 l 0,10.44578 -231.46187,0 -231.46186,0 2.53875,-12.69375 z"/></svg>