<svg xmlns="http://www.w3.org/2000/svg" xmlns:svg="http://www.w3.org/2000/svg" id="svg2" width="100%" height="100%" version="1.1" viewBox="0 -100 1000 1000"><metadata id="metadata12"/><g id="g4" transform="matrix(1,0,0,-1,0,840)"><path id="path6" fill="#000" d="m 204,0 q 0,66 8.5,111.5 Q 221,157 271,200 l 32,248 -7,8 -7,9 -16,21 -13,24 q -1,5 -2,6 l -2,7 q -6,17 -9,35 l -2,41 1,35 5,39 q 29,14 59,20 l 53,7 21,-46 h 47 l 12,59 30,3 30,1 h 10 l 10,-1 20,-1 20,-2 9,-59 h 45 l 18,45 10,-1 h 10 l 49,-9 q 25,-5 45,-16 l 4,-23 1,-28 -1,-17 v -18 l -4,-31 q -1,-9 -1,-18 -3,-7 -4,-10 l -2,-4 -8,-19 -8,-15 -13,-20 -16,-22 33,-248 Q 775,167 785.5,114 796,61 796,0 H 204 z m 518,71 q 0,34 -26.5,48.5 Q 669,134 623,147 l -28,6 -36,3 -29,1 h -24 l -29,-1 h -21 q 0,0 -26,-2 l -37,-3 q -8,-1 -15,-1 -4,-1 -13,-4 -34,-7 -60.5,-23 Q 278,107 278,71 h 444 z m -89,342 q -14,5 -38,10 l -44,6 -26,2 -23,1 q -27,0 -49,-1 -22,-1 -45.5,-5 Q 384,422 368,413 l -24,-196 75,8 88,3 85,-3 q 20,0 31,-1.5 11,-1.5 35,-6.5 z m -67,161 -21,57 -23,4 -22,1 -20,-2 -20,-3 -23,-57 h -61 l -23,55 -4,1 h -4 l -10,-2 -10,-3 -5,-2 -5,-2 v -4 q 0,-34 2,-46.5 2,-12.5 10,-34.5 13,-35 37,-47 l 74,10 62,4 h 26.5 q 0,0 27.5,-2 28,0 49,-5 l 19,-3 19,-4 q 22,12 31,40 4,13 6.5,27 2.5,14 4.5,34 l 1,16 v 15 l -10,4 -12,3 -8,1 -8,1 -23,-56 h -57 z"/></g><path style="fill:#f9f9f9;fill-opacity:1" id="path2989" d="m 347.39439,615.89125 c -0.0348,-1.88849 5.05081,-44.80673 11.30131,-95.37387 12.96215,-104.86505 8.54161,-96.94485 58.67718,-105.13077 67.46255,-11.01501 213.51976,1.66745 214.16353,18.59628 0.0993,2.61026 5.49527,45.1803 11.99112,94.60008 l 11.81064,89.85416 -34.23688,-2.98975 c -46.29027,-4.04232 -181.45923,-3.78407 -232.3301,0.44387 -22.72246,1.8885 -41.34202,1.8885 -41.3768,0 l 0,0 z"/><path style="fill:#f9f9f9;fill-opacity:1" id="path2991" d="m 351.15333,336.37839 c -20.55473,-22.25591 -33.23742,-57.94204 -33.31085,-93.72903 -0.0413,-20.11256 1.04251,-22.76444 10.8232,-26.48305 18.61952,-7.07913 21.74335,-4.91436 33.78135,23.40996 l 11.70567,27.54237 32.746,0 32.746,0 9.56741,-25.58302 c 5.26208,-14.07066 12.99633,-27.41811 17.18722,-29.66101 12.06508,-6.45703 69.83223,-5.1219 75.53184,1.74571 2.65829,3.20304 8.31147,16.0738 12.56261,28.60169 L 562.22314,265 l 31.71496,1.22437 31.71496,1.22437 10.56075,-26.6481 c 9.74049,-24.57833 11.50331,-26.57788 22.69611,-25.744 23.81401,1.77417 24.62339,3.06783 21.53413,34.41894 -4.35026,44.14829 -13.31756,72.81123 -27.08707,86.58074 -11.95721,11.95721 -12.79312,12.13587 -36.37955,7.77568 -59.98036,-11.08797 -130.68545,-10.47425 -233.50285,2.02679 -19.44306,2.36398 -22.1027,1.58386 -32.32125,-9.4804 l 0,0 z"/><path style="fill:#f9f9f9;fill-opacity:1" id="path2993" d="m 281.60726,755.4661 c 4.74289,-19.29055 14.10926,-30.12874 35.20624,-40.73851 45.80212,-23.03409 62.66598,-25.4597 178.94921,-25.73913 l 108.05085,-0.25965 42.32604,14.64203 c 45.47988,15.73305 67.60854,31.65762 72.39125,52.09526 l 2.72686,11.65254 -221.25771,0 -221.2577,0 2.86496,-11.65254 z"/></svg>