<svg xmlns="http://www.w3.org/2000/svg" xmlns:svg="http://www.w3.org/2000/svg" id="svg2" width="100%" height="100%" version="1.1" viewBox="0 -200 1000 1000"><metadata id="metadata12"/><g id="g4" transform="matrix(1 0 0 -1 0 800)"><path id="path6" fill="#000" d="M675 218v103q56 37 86 89q31 55 31 113q0 86 -76 169q-9 9 -25 28q-16 18 -27 30q-16 17 -51 46q-17 14 -22 18q-51 46 -97 68q-51 -24 -107 -73q-3 -3 -9 -8q-46 -39 -66 -60q-5 -5 -14 -15q-18 -20 -27 -29q-77 -83 -77 -174q0 -57 32 -113q31 -53 85 -89v-101h137 q-22 -11 -58 -35l-2 -3q-35 -22 -51 -31q-20 -10 -35 -10q-21 0 -41 22q-19 27 -35 68l-34 -44q23 -52 45 -77q28 -30 65 -30q24 0 50 13q29 12 55 31t50 33q18 11 37 11q17 0 34 -10q14 -7 50 -31l3 -3q25 -19 53 -31q26 -13 48 -13q40 0 67 30q25 28 43 77l-31 44 q-18 -46 -36 -68t-43 -22q-13 0 -33 10q-16 8 -49 31l-4 3q-23 17 -56 33h135zM355 288v23h277v-23h-277zM472 698h43v-114h106v-46h-106v-116h-43v116h-107v46h107v114z"/></g><path style="fill:#ececec;fill-opacity:1;stroke:#000;stroke-width:0;stroke-linecap:round;stroke-linejoin:miter;stroke-miterlimit:3.7999999500000001;stroke-opacity:1;stroke-dasharray:none;stroke-dashoffset:0" id="path2989" d="m 474.57627,517.37288 0,-57.20339 -52.9661,0 -52.9661,0 0,-21.18644 0,-21.18644 52.9661,0 52.9661,0 0,-57.20339 0,-57.20339 19.0678,0 19.06779,0 0,57.20339 0,57.20339 52.96611,0 52.9661,0 0,21.18644 0,21.18644 -52.9661,0 -52.96611,0 0,57.20339 0,57.20339 -19.06779,0 -19.0678,0 0,-57.20339 z" transform="translate(0,-200)"/><path style="fill:#ececec;fill-opacity:1;stroke:#000;stroke-width:0;stroke-linecap:round;stroke-linejoin:miter;stroke-miterlimit:3.7999999500000001;stroke-opacity:1;stroke-dasharray:none;stroke-dashoffset:0" id="path2991" d="m 355.9322,699.57627 0,-10.59322 137.71187,0 137.71186,0 0,10.59322 0,10.59322 -137.71186,0 -137.71187,0 0,-10.59322 z" transform="translate(0,-200)"/></svg>