<svg xmlns="http://www.w3.org/2000/svg" xmlns:svg="http://www.w3.org/2000/svg" id="svg2" width="100%" height="100%" version="1.1" viewBox="0 -200 1000 1000"><metadata id="metadata12"/><g id="g4" transform="matrix(1 0 0 -1 0 800)"><path id="path6" fill="#000" d="M549 466q-3 -25 -7 -49.5t-9 -35.5q-11 -21 -31 -45l-103 -110q-29 -30 -44 -68q-13 -32 -13 -78h530v198q0 93 -27 178q-27 86 -77 159q-49 71 -118 123q-65 52 -146 75l-165 67l44 -83l-202 -428q-9 -22 -9 -42q0 -33 21 -60q20 -24 50 -24q21 0 49 10q30 10 43 22z M633 715q30 -17 49.5 -35.5t19.5 -28.5v-2l-1 -2q-3 -5 -13 -5q-13 0 -34.5 8t-45.5 21q-30 17 -49.5 35.5t-19.5 29.5q0 1 1 2v2q3 5 12 5q13 0 35 -8t46 -22zM492 777q6 0 14 -3.5t13 -7.5q14 -9 14 -17q-3 -15 -14 -15q-4 0 -13 2l-6 1q-15 0 -34.5 8t-19.5 13 q0 22 16 24q5 0 14 -2q10 -3 16 -3z"/></g><path style="fill:#ececec;fill-opacity:1;stroke:#000;stroke-width:0;stroke-linecap:round;stroke-linejoin:miter;stroke-miterlimit:3.7999999500000001;stroke-opacity:1;stroke-dasharray:none;stroke-dashoffset:0" id="path2989" d="m 648.22365,344.41396 c -37.22485,-15.31584 -68.37554,-34.79576 -88.4162,-55.29059 -33.80515,-34.57127 -13.26542,-41.67063 44.62207,-15.4232 44.17971,20.03204 94.72302,59.96126 94.72302,74.83119 0,8.78261 -24.36283,6.81297 -50.92889,-4.1174 z" transform="translate(0,-200)"/><path style="fill:gray;fill-opacity:1;stroke:#000;stroke-width:0;stroke-linecap:round;stroke-linejoin:miter;stroke-miterlimit:3.7999999500000001;stroke-opacity:1;stroke-dasharray:none;stroke-dashoffset:0" id="path2991" d="m 495.35152,260.96254 c -38.06147,-6.43821 -59.01503,-26.25057 -39.38243,-37.23752 13.98445,-7.8261 66.92955,8.83208 72.26533,22.73693 2.31903,6.04329 -5.45822,19.28473 -10.74478,18.2939 -1.46252,-0.27411 -11.42468,-1.9811 -22.13812,-3.79331 z" transform="translate(0,-200)"/></svg>