<svg xmlns="http://www.w3.org/2000/svg" xmlns:svg="http://www.w3.org/2000/svg" id="svg2" width="100%" height="100%" version="1.1" viewBox="0 -200 1000 1000"><metadata id="metadata12"/><g id="g4" transform="matrix(1 0 0 -1 0 800)"><path id="path6" fill="#000" d="M442 297v21h148v-21h-148zM470 612l-125 -246l65 -60l-124 -151v-75h460v75l-126 151l66 60l-124 246q28 10 46 36q16 27 16 54q0 41 -31 69q-30 29 -77 29q-48 0 -78 -29q-32 -28 -32 -69q0 -28 18 -54q18 -25 46 -36z"/></g><path style="fill:#e6e6e6;fill-opacity:1;stroke:#000;stroke-width:0;stroke-linecap:round;stroke-linejoin:miter;stroke-miterlimit:3.7999999500000001;stroke-opacity:1;stroke-dasharray:none;stroke-dashoffset:0" id="path2989" d="m 479.87288,702.77725 c 20.39195,-0.77675 53.76059,-0.77675 74.15254,0 20.39195,0.77676 3.70763,1.41228 -37.07627,1.41228 -40.7839,0 -57.46822,-0.63552 -37.07627,-1.41228 z" transform="translate(0,-200)"/><path style="fill:gray;fill-opacity:1;fill-rule:nonzero;stroke-linecap:butt;stroke-linejoin:round" id="path2984" d="m 444.91525,691.52542 c 0,-8.14224 2.82486,-8.47457 72.0339,-8.47457 69.20904,0 72.0339,0.33233 72.0339,8.47457 0,8.14224 -2.82486,8.47458 -72.0339,8.47458 -69.20904,0 -72.0339,-0.33234 -72.0339,-8.47458 z" transform="translate(0,-200)"/></svg>