<svg xmlns="http://www.w3.org/2000/svg" xmlns:svg="http://www.w3.org/2000/svg" id="svg2" width="100%" height="100%" version="1.1" viewBox="0 -200 1000 1000"><metadata id="metadata12"/><g id="g4" transform="matrix(1 0 0 -1 0 800)"><path id="path6" fill="#000" d="M644 810q17 12 17 29q0 16 -12.5 27.5t-29.5 11.5q-18 0 -30.5 -11.5t-12.5 -27.5q0 -9 6.5 -17.5t14.5 -13.5v-386h-141v388q17 12 17 29q0 16 -12 27.5t-30 11.5t-30 -11.5t-12 -27.5q0 -20 20 -29v-387h-142v304q18 13 18 31q0 15 -12.5 25.5t-30.5 10.5 q-17 0 -29.5 -10.5t-12.5 -25.5q0 -19 20 -31v-313l106 -158v-178h400v178l106 158v313q18 13 18 31q0 15 -12.5 25.5t-30.5 10.5q-17 0 -29.5 -10.5t-12.5 -25.5q0 -18 20 -31v-304h-141v387zM362 255h328v-42h-328v42z"/></g><path style="fill:#ececec;fill-opacity:1;stroke:#000;stroke-width:0;stroke-linecap:round;stroke-linejoin:miter;stroke-miterlimit:3.7999999500000001;stroke-opacity:1;stroke-dasharray:none;stroke-dashoffset:0" id="path2989" d="m 364.40678,767.37288 0,-19.0678 161.01695,0 161.01695,0 0,19.0678 0,19.0678 -161.01695,0 -161.01695,0 0,-19.0678 z" transform="translate(0,-200)"/></svg>