<svg xmlns="http://www.w3.org/2000/svg" xmlns:svg="http://www.w3.org/2000/svg" id="svg2" width="100%" height="100%" version="1.1" viewBox="0 -200 1000 1000"><metadata id="metadata12"/><g id="g4" transform="matrix(1 0 0 -1 0 800)"><path id="path6" fill="#000" d="M814 185l-137 160v233l88 71v167h-122v-57h-68v57h-122v-57h-68v57h-122v-165l90 -73v-233l-139 -160v-109h600v109zM385 551v27h258v-27h-258zM784 187v-33h-535v33h535z"/></g><path style="fill:#ececec;fill-opacity:1;stroke:#000;stroke-width:0;stroke-linecap:round;stroke-linejoin:miter;stroke-miterlimit:3.7999999500000001;stroke-opacity:1;stroke-dasharray:none;stroke-dashoffset:0" id="path2989" d="m 385.59322,434.74576 0,-12.71186 127.11864,0 127.11865,0 0,12.71186 0,12.71187 -127.11865,0 -127.11864,0 0,-12.71187 z" transform="translate(0,-200)"/><path style="fill:#ececec;fill-opacity:1;stroke:#000;stroke-width:0;stroke-linecap:round;stroke-linejoin:miter;stroke-miterlimit:3.7999999500000001;stroke-opacity:1;stroke-dasharray:none;stroke-dashoffset:0" id="path2991" d="m 250,830.9322 0,-14.83051 266.94915,0 266.94916,0 0,14.83051 0,14.83051 -266.94916,0 -266.94915,0 0,-14.83051 z" transform="translate(0,-200)"/><path style="fill:#ccc;fill-opacity:1;fill-rule:nonzero;stroke-linecap:butt;stroke-linejoin:round" id="path2992" d="m 385.59322,435.16949 0,-10.59322 127.11864,0 127.11865,0 0,10.59322 0,10.59322 -127.11865,0 -127.11864,0 0,-10.59322 z" transform="translate(0,-200)"/></svg>