<svg xmlns="http://www.w3.org/2000/svg" xmlns:svg="http://www.w3.org/2000/svg" id="svg2" width="100%" height="100%" version="1.1" viewBox="0 -200 1000 1000"><metadata id="metadata12"/><g id="g4" transform="matrix(1 0 0 -1 0 800)"><path id="path6" fill="#000" d="M549 466q-3 -25 -7 -49.5t-9 -35.5q-11 -21 -31 -45l-103 -110q-29 -30 -44 -68q-13 -32 -13 -78h530v198q0 93 -27 178q-27 86 -77 159q-49 71 -118 123q-65 52 -146 75l-165 67l44 -83l-202 -428q-9 -22 -9 -42q0 -33 21 -60q20 -24 50 -24q21 0 49 10q30 10 43 22z M552 509l-242 -206q-5 -5 -13 -9.5t-19 -8.5q-15 -7 -35 -7q-15 0 -25 15q-10 13 -10 34q0 13 3 23l208 441l71 -10q72 -20 138 -69q63 -49 111 -117q47 -66 71 -148q25 -78 25 -169v-164h-454q3 18 16 47q17 30 28 41l104 112q24 26 43 68q14 40 14 77v50h-34z"/></g><path style="fill:#f9f9f9;fill-opacity:1" id="path2989" d="m 385.59322,878.78377 c 0,-18.92635 27.96942,-63.14394 66.876,-105.72606 123.00417,-134.62449 130.28767,-147.44975 135.2177,-238.10008 l 2.59252,-47.66949 -18.96784,0 c -18.64715,0 -21.07598,1.79683 -143.65667,106.27612 -68.57886,58.45188 -131.66427,109.88443 -140.18982,114.29451 -8.52555,4.41013 -23.21944,9.25267 -32.65309,10.76115 -15.27778,2.443 -18.56153,1.3333 -30.04986,-10.155 -10.88198,-10.882 -12.89775,-16.16081 -12.89775,-33.77606 0,-18.45454 12.00073,-46.31582 103.37639,-240.00176 56.85701,-120.51792 104.36385,-220.11096 105.57076,-221.31787 3.68193,-3.68193 65.61944,7.13153 91.16188,15.91564 130.5894,44.91006 247.47944,171.34195 293.37669,317.3253 20.31534,64.61602 25.43868,106.0633 28.15301,227.75424 l 2.48101,111.22881 -225.19547,0 c -204.01494,0 -225.19546,-0.64047 -225.19546,-6.80945 z" transform="translate(0,-200)"/></svg>