<svg xmlns="http://www.w3.org/2000/svg" xmlns:svg="http://www.w3.org/2000/svg" id="svg2" width="100%" height="100%" version="1.1" viewBox="0 -200 1000 1000"><metadata id="metadata12"/><g id="g4" transform="matrix(1 0 0 -1 0 800)"><path id="path6" fill="#000" d="M644 810q17 12 17 29q0 16 -12.5 27.5t-29.5 11.5q-18 0 -30.5 -11.5t-12.5 -27.5q0 -9 6.5 -17.5t14.5 -13.5v-386h-141v388q17 12 17 29q0 16 -12 27.5t-30 11.5t-30 -11.5t-12 -27.5q0 -20 20 -29v-387h-142v304q18 13 18 31q0 15 -12.5 25.5t-30.5 10.5 q-17 0 -29.5 -10.5t-12.5 -25.5q0 -19 20 -31v-313l106 -158v-178h400v178l106 158v313q18 13 18 31q0 15 -12.5 25.5t-30.5 10.5q-17 0 -29.5 -10.5t-12.5 -25.5q0 -18 20 -31v-304h-141v387zM373 120v123h306v-123h-306zM760 388l-69 -104h-329l-71 104h469z"/></g><path style="fill:#f9f9f9;fill-opacity:1" id="path2989" d="m 377.11864,816.94915 0,-59.32203 150.42373,0 150.42373,0 0,59.32203 0,59.32204 -150.42373,0 -150.42373,0 0,-59.32204 z" transform="translate(0,-200)"/><path style="fill:#f9f9f9;fill-opacity:1" id="path2991" d="m 330.671,665.4661 -34.28141,-49.78813 114.51707,-1.12743 c 62.98439,-0.62008 165.97662,-0.62008 228.87162,0 l 114.35456,1.12743 -32.78674,49.69579 -32.78678,49.6958 -161.80345,0.0923 -161.80345,0.0923 L 330.671,665.4661 z" transform="translate(0,-200)"/></svg>