<svg xmlns="http://www.w3.org/2000/svg" xmlns:svg="http://www.w3.org/2000/svg" xmlns:xlink="http://www.w3.org/1999/xlink" id="svg2" width="353.63" height="353.63" version="1.0"><defs id="defs4"><linearGradient id="linearGradient8341"><stop style="stop-color:#daa520;stop-opacity:1" id="stop8343" offset="0"/><stop style="stop-color:#daa520;stop-opacity:0" id="stop8345" offset="1"/></linearGradient><linearGradient id="linearGradient3693"><stop style="stop-color:#ffff82;stop-opacity:1" id="stop3695" offset="0"/><stop style="stop-color:#ffff82;stop-opacity:0" id="stop3697" offset="1"/></linearGradient><linearGradient id="linearGradient3645"><stop style="stop-color:#ffff23;stop-opacity:.49803922" id="stop3649" offset="0"/><stop id="stop3651" offset="1" style="stop-color:#ffff23;stop-opacity:0"/></linearGradient><linearGradient id="linearGradient3635"><stop style="stop-color:#ffff23;stop-opacity:1" id="stop3637" offset="0"/><stop id="stop3643" offset=".5" style="stop-color:#ffff23;stop-opacity:.49803922"/><stop style="stop-color:#ffff23;stop-opacity:0" id="stop3639" offset="1"/></linearGradient><linearGradient id="linearGradient3721" x1="212.179" x2="145.873" y1="114.928" y2="79.565" gradientUnits="userSpaceOnUse" xlink:href="#linearGradient3693"/><linearGradient id="linearGradient8347" x1="76.434" x2="288.787" y1="170.091" y2="170.091" gradientTransform="translate(-3.707785,9.5011949)" gradientUnits="userSpaceOnUse" xlink:href="#linearGradient8341"/></defs><metadata id="metadata7"/><g id="layer8" style="display:inline;opacity:1"><path style="fill:#804d00;fill-opacity:1;fill-rule:evenodd;stroke:#000;stroke-width:1px;stroke-linecap:butt;stroke-linejoin:miter;stroke-opacity:1" id="path8324" d="m 177.97368,73.923969 33.37006,7.41557 32.44312,17.611979 20.39282,24.100602 16.68503,29.66228 3.70778,24.1006 -7.41557,39.85869 -20.39281,32.44312 -24.10061,24.1006 -35.22395,11.12335 -38.93175,0.92695 -35.22395,-13.90419 -28.735332,-24.10061 -18.538925,-39.85869 -2.780839,-21.08803 3.707785,-42.87126 15.758086,-22.24671 18.538925,-27.80838 26.88144,-12.050301 z"/></g><g id="layer9" style="display:inline"><path style="opacity:1;fill:url(#linearGradient8347);fill-opacity:1;fill-rule:evenodd;stroke:#000;stroke-width:1px;stroke-linecap:butt;stroke-linejoin:miter;stroke-opacity:1" id="path8324-4" d="m 177.97368,73.923976 33.37006,7.41557 32.44312,17.61198 20.39282,24.100594 16.68503,29.66228 3.70778,24.1006 -7.41557,39.85869 -20.39281,32.44312 -24.10061,24.1006 -35.22395,11.12335 -38.93175,0.92695 -35.22395,-13.90419 -28.735335,-24.10061 -18.53892,-39.85869 -2.78084,-21.08803 3.70779,-42.87126 15.75808,-22.24671 18.538925,-27.808374 26.88144,-12.0503 z"/></g><g id="layer6" style="display:none"><rect style="opacity:.24800002;fill:none;fill-opacity:0;fill-rule:evenodd;stroke:#b50000;stroke-width:21;stroke-miterlimit:4;stroke-dasharray:none;stroke-opacity:0" id="rect5919" width="291.746" height="291.746" x="30.943" y="30.941"/></g><g id="layer1" style="display:inline;opacity:1"><g style="display:inline;fill:none;fill-opacity:1" id="g3020" transform="matrix(1.0014278,0,0,1.0014238,-16.027931,30.387217)"><ellipse id="path3022" cx="192.372" cy="150.056" rx="104.42" ry="104.623" style="opacity:1;fill:none;fill-opacity:1;fill-rule:nonzero;stroke:#000;stroke-width:21;stroke-linecap:round;stroke-linejoin:miter;stroke-miterlimit:4;stroke-dasharray:none;stroke-opacity:1"/></g></g><g id="layer2" style="display:inline"><ellipse id="path3022-5" cx="176.153" cy="180.195" rx="75.078" ry="72.267" style="display:inline;opacity:1;fill:none;fill-opacity:1;fill-rule:nonzero;stroke:#000;stroke-width:14.79925823;stroke-linecap:round;stroke-linejoin:miter;stroke-miterlimit:4;stroke-dasharray:none;stroke-opacity:1"/></g><g id="layer3" style="display:inline"><ellipse id="path3022-5-9" cx="188.089" cy="165.839" rx="41.201" ry="40.864" transform="matrix(0.99678953,0.08006638,-0.06686515,0.99776202,0,0)" style="display:inline;opacity:1;fill:none;fill-opacity:1;fill-rule:nonzero;stroke:#000;stroke-width:8.24400139;stroke-linecap:round;stroke-linejoin:miter;stroke-miterlimit:4;stroke-dasharray:none;stroke-opacity:1"/></g><g id="layer4" style="display:inline"><ellipse id="path3022-5-9-8" cx="188.085" cy="165.533" rx="18.042" ry="18.173" transform="matrix(0.99668818,0.08131836,-0.06583355,0.99783062,0,0)" style="display:inline;opacity:1;fill:none;fill-opacity:1;fill-rule:nonzero;stroke:#000;stroke-width:3.63800049;stroke-linecap:round;stroke-linejoin:miter;stroke-miterlimit:4;stroke-dasharray:none;stroke-opacity:1"/></g><g id="layer5" style="display:inline"><ellipse id="path3022-5-9-8-7" cx="188.419" cy="165.945" rx="9.026" ry="8.692" transform="matrix(0.99697426,0.0777324,-0.06887617,0.99762522,0,0)" style="display:inline;opacity:1;fill:none;fill-opacity:1;fill-rule:nonzero;stroke:#000;stroke-width:1.77958071;stroke-linecap:round;stroke-linejoin:miter;stroke-miterlimit:4;stroke-dasharray:none;stroke-opacity:1"/></g></svg>