<svg xmlns="http://www.w3.org/2000/svg" xmlns:svg="http://www.w3.org/2000/svg" xmlns:xlink="http://www.w3.org/1999/xlink" id="svg2" width="353.63" height="353.63" version="1.0"><defs id="defs4"><linearGradient id="linearGradient6777"><stop style="stop-color:#daa520;stop-opacity:1" id="stop6779" offset="0"/><stop style="stop-color:#daa520;stop-opacity:0" id="stop6781" offset="1"/></linearGradient><linearGradient id="linearGradient3693"><stop style="stop-color:#ffff82;stop-opacity:1" id="stop3695" offset="0"/><stop style="stop-color:#ffff82;stop-opacity:0" id="stop3697" offset="1"/></linearGradient><linearGradient id="linearGradient3645"><stop style="stop-color:#ffff23;stop-opacity:.49803922" id="stop3649" offset="0"/><stop id="stop3651" offset="1" style="stop-color:#ffff23;stop-opacity:0"/></linearGradient><linearGradient id="linearGradient3635"><stop style="stop-color:#ffff23;stop-opacity:1" id="stop3637" offset="0"/><stop id="stop3643" offset=".5" style="stop-color:#ffff23;stop-opacity:.49803922"/><stop style="stop-color:#ffff23;stop-opacity:0" id="stop3639" offset="1"/></linearGradient><linearGradient id="linearGradient3721" x1="212.179" x2="145.873" y1="114.928" y2="79.565" gradientUnits="userSpaceOnUse" xlink:href="#linearGradient3693"/><linearGradient id="linearGradient6783" x1="83.147" x2="298.755" y1="159.898" y2="159.898" gradientUnits="userSpaceOnUse" xlink:href="#linearGradient6777"/></defs><metadata id="metadata7"/><g id="layer4" style="display:inline"><path style="fill:#fffbd6;fill-opacity:1;fill-rule:evenodd;stroke:#000;stroke-width:1px;stroke-linecap:butt;stroke-linejoin:miter;stroke-opacity:1" id="path6751" d="m 190.95093,-2.7808296 36.1509,87.1329476 -20.39282,12.050302 11.12336,11.58683 28.73533,10.19641 26.88144,16.22156 19.92935,23.63713 4.63473,23.17365 -6.02515,25.02755 -9.73294,19.46587 -25.95449,31.97965 -40.32216,34.29701 74.1557,0.92695 1.39042,29.77197 -206.245545,0 0,-29.77197 82.961685,-0.46348 -36.1509,-27.80839 -20.85629,-21.78323 -16.221559,-23.63713 -9.269463,-24.1006 -2.317365,-23.17366 7.41557,-20.39282 16.685037,-18.53892 22.24671,-13.9042 28.27186,-11.12335 7.87904,-2.78084 7.41557,-9.732937 -20.85629,-8.805989 z"/></g><g id="layer5" style="display:inline"><path style="display:inline;fill:url(#linearGradient6783);fill-opacity:1;fill-rule:evenodd;stroke:#000;stroke-width:1px;stroke-linecap:butt;stroke-linejoin:miter;stroke-opacity:1" id="path6751-6" d="m 191.18115,-2.4432683 36.1509,87.1329483 -20.39282,12.050303 11.12336,11.586827 28.73533,10.19641 26.88144,16.22156 19.92935,23.63713 4.63473,23.17365 -6.02515,25.02755 -9.73294,19.46587 -25.95449,31.97965 -40.32216,34.29701 74.1557,0.92695 1.39042,29.77197 -206.245537,0 0,-29.77197 82.961677,-0.46348 -36.1509,-27.80839 -20.85629,-21.78323 -16.221557,-23.63713 -9.26946,-24.1006 -2.31737,-23.17366 7.41557,-20.39282 16.685037,-18.53892 22.24671,-13.9042 28.27186,-11.12335 7.87904,-2.78084 7.41557,-9.732935 -20.85629,-8.805989 z"/></g><g id="layer1" style="display:inline;opacity:1"><rect style="opacity:.24800002;fill:none;fill-opacity:0;fill-rule:evenodd;stroke:#b50000;stroke-width:21;stroke-miterlimit:4;stroke-dasharray:none;stroke-opacity:0" id="rect7395" width="53.299" height="15.295" x="162.679" y="27.345"/><rect style="opacity:.24800002;fill:none;fill-opacity:0;fill-rule:evenodd;stroke:#b50000;stroke-width:15.75340939;stroke-miterlimit:4;stroke-dasharray:none;stroke-opacity:0" id="rect7397" width="98.536" height="15.384" x="174.589" y="31.567" ry="7.435"/><rect style="opacity:.24800002;fill:none;fill-opacity:0;fill-rule:evenodd;stroke:#b50000;stroke-width:21;stroke-miterlimit:4;stroke-dasharray:none;stroke-opacity:0" id="rect7399" width="95.012" height="43.103" x="135.798" y="101.501" ry="7.435"/><use id="use7401" width="100%" height="100%" x="0" y="0" transform="translate(-64.903988,-41.89831)" xlink:href="#rect7399" style="fill:none"/><use id="use7403" width="100%" height="100%" x="0" y="0" transform="translate(-54.630278,-23.322448)" xlink:href="#rect7399" style="fill:none"/><use id="use7405" width="100%" height="100%" x="0" y="0" transform="translate(-52.875268,-21.039501)" xlink:href="#rect7399" style="fill:none"/><use id="use7407" width="100%" height="100%" x="0" y="0" transform="translate(-50.010348,-24.881165)" xlink:href="#rect7399" style="fill:none"/><use id="use7409" width="100%" height="100%" x="0" y="0" transform="translate(-42.702768,-14.078738)" xlink:href="#rect7399" style="fill:none"/><use id="use7411" width="100%" height="100%" x="0" y="0" transform="translate(-42.829048,-7.8951467)" xlink:href="#rect7399" style="fill:none"/><use id="use7413" width="100%" height="100%" x="0" y="0" transform="translate(-43.893078,-16.473312)" xlink:href="#rect7399" style="fill:none"/><use id="use7415" width="100%" height="100%" x="0" y="0" transform="translate(-52.516478,-15.263686)" xlink:href="#rect7399" style="fill:none"/><use id="use7417" width="100%" height="100%" x="0" y="0" transform="translate(-45.488638,-3.7118887)" xlink:href="#rect7399" style="fill:none"/><use id="use7419" width="100%" height="100%" x="0" y="0" transform="translate(-52.287658,2.6307273)" xlink:href="#rect7399" style="fill:none"/><use id="use7421" width="100%" height="100%" x="0" y="0" transform="translate(-49.313998,-6.4787037)" xlink:href="#rect7399" style="fill:none"/><use id="use7423" width="100%" height="100%" x="0" y="0" transform="translate(-38.175978,15.642167)" xlink:href="#rect7399" style="fill:none"/><use id="use7425" width="100%" height="100%" x="0" y="0" transform="translate(-41.453328,-4.8572997)" xlink:href="#rect7399" style="fill:none"/><use id="use7427" width="100%" height="100%" x="0" y="0" transform="translate(-31.740128,6.8546172)" xlink:href="#rect7399" style="fill:none"/><use id="use7429" width="100%" height="100%" x="0" y="0" transform="translate(-42.463428,30.219905)" xlink:href="#rect7399" style="fill:none"/><use id="use7431" width="100%" height="100%" x="0" y="0" transform="translate(-33.334478,36.364809)" xlink:href="#rect7399" style="fill:none"/><use id="use7433" width="100%" height="100%" x="0" y="0" transform="translate(-29.673778,33.820059)" xlink:href="#rect7399" style="fill:none"/><use id="use7435" width="100%" height="100%" x="0" y="0" transform="translate(-42.849868,30.11827)" xlink:href="#rect7399" style="fill:none"/><use id="use7437" width="100%" height="100%" x="0" y="0" transform="translate(-36.914328,14.124709)" xlink:href="#rect7399" style="fill:none"/><use id="use7439" width="100%" height="100%" x="0" y="0" transform="translate(-19.254398,20.987022)" xlink:href="#rect7399" style="fill:none"/><use id="use7441" width="100%" height="100%" x="0" y="0" transform="translate(-33.871448,39.680308)" xlink:href="#rect7399" style="fill:none"/><use id="use7443" width="100%" height="100%" x="0" y="0" transform="translate(-20.180308,27.115187)" xlink:href="#rect7399" style="fill:none"/><use id="use7445" width="100%" height="100%" x="0" y="0" transform="translate(-30.206968,33.953632)" xlink:href="#rect7399" style="fill:none"/><use id="use7447" width="100%" height="100%" x="0" y="0" transform="translate(-71.992798,-40.853477)" xlink:href="#rect7399" style="fill:none"/><use id="use7449" width="100%" height="100%" x="0" y="0" transform="translate(-73.466038,-30.090479)" xlink:href="#rect7399" style="fill:none"/><use id="use7451" width="100%" height="100%" x="0" y="0" transform="translate(-58.965348,-41.130145)" xlink:href="#rect7399" style="fill:none"/><use id="use7453" width="100%" height="100%" x="0" y="0" transform="translate(-9.9403077,46.363562)" xlink:href="#rect7399" style="fill:none"/><use id="use7455" width="100%" height="100%" x="0" y="0" transform="translate(-50.307838,1.2081263)" xlink:href="#rect7399" style="fill:none"/><use id="use7457" width="100%" height="100%" x="0" y="0" transform="translate(-42.353338,-14.111704)" xlink:href="#rect7399" style="fill:none"/><use id="use7459" width="100%" height="100%" x="0" y="0" transform="translate(-56.755728,-4.9357457)" xlink:href="#rect7399" style="fill:none"/><use id="use7461" width="100%" height="100%" x="0" y="0" transform="translate(-40.494628,1.2178173)" xlink:href="#rect7399" style="fill:none"/><use id="use7463" width="100%" height="100%" x="0" y="0" transform="translate(-47.773908,20.269536)" xlink:href="#rect7399" style="fill:none"/><use id="use7465" width="100%" height="100%" x="0" y="0" transform="translate(-53.656258,11.353041)" xlink:href="#rect7399" style="fill:none"/><use id="use7467" width="100%" height="100%" x="0" y="0" transform="translate(-41.873218,19.652604)" xlink:href="#rect7399" style="fill:none"/><use id="use7469" width="100%" height="100%" x="0" y="0" transform="translate(-44.648678,17.511905)" xlink:href="#rect7399" style="fill:none"/><use id="use7471" width="100%" height="100%" x="0" y="0" transform="translate(-9.8052077,25.749294)" xlink:href="#rect7399" style="fill:none"/><use id="use7473" width="100%" height="100%" x="0" y="0" transform="translate(-8.8370677,42.959665)" xlink:href="#rect7399" style="fill:none"/><use id="use7475" width="100%" height="100%" x="0" y="0" transform="translate(-18.669548,37.083324)" xlink:href="#rect7399" style="fill:none"/><use id="use7477" width="100%" height="100%" x="0" y="0" transform="translate(-22.848008,21.444351)" xlink:href="#rect7399" style="fill:none"/><use id="use7479" width="100%" height="100%" x="0" y="0" transform="translate(-4.4861477,25.781344)" xlink:href="#rect7399" style="fill:none"/><use id="use7481" width="100%" height="100%" x="0" y="0" transform="translate(-0.4867377,36.134685)" xlink:href="#rect7399" style="fill:none"/><use id="use7483" width="100%" height="100%" x="0" y="0" transform="translate(-14.659768,38.821224)" xlink:href="#rect7399" style="fill:none"/><use id="use7485" width="100%" height="100%" x="0" y="0" transform="translate(10.706172,25.024276)" xlink:href="#rect7399" style="fill:none"/><use id="use7487" width="100%" height="100%" x="0" y="0" transform="translate(7.7617123,9.6753892)" xlink:href="#rect7399" style="fill:none"/><use id="use7489" width="100%" height="100%" x="0" y="0" transform="translate(-5.4250977,13.018049)" xlink:href="#rect7399" style="fill:none"/><use id="use7491" width="100%" height="100%" x="0" y="0" transform="translate(13.752192,19.389891)" xlink:href="#rect7399" style="fill:none"/><use id="use7493" width="100%" height="100%" x="0" y="0" transform="translate(4.3792323,1.5679133)" xlink:href="#rect7399" style="fill:none"/><use id="use7495" width="100%" height="100%" x="0" y="0" transform="translate(4.8274423,5.2908642)" xlink:href="#rect7399" style="fill:none"/><use id="use7497" width="100%" height="100%" x="0" y="0" transform="translate(14.092492,16.743036)" xlink:href="#rect7399" style="fill:none"/><use id="use7499" width="100%" height="100%" x="0" y="0" transform="translate(6.6919023,19.447885)" xlink:href="#rect7399" style="fill:none"/><use id="use7501" width="100%" height="100%" x="0" y="0" transform="translate(10.322812,8.8875972)" xlink:href="#rect7399" style="fill:none"/><use id="use7503" width="100%" height="100%" x="0" y="0" transform="translate(15.825152,9.3716602)" xlink:href="#rect7399" style="fill:none"/><use id="use7505" width="100%" height="100%" x="0" y="0" transform="translate(30.736052,22.464932)" xlink:href="#rect7399" style="fill:none"/><use id="use7507" width="100%" height="100%" x="0" y="0" transform="translate(33.254112,16.676737)" xlink:href="#rect7399" style="fill:none"/><use id="use7509" width="100%" height="100%" x="0" y="0" transform="translate(41.953052,1.6094843)" xlink:href="#rect7399" style="fill:none"/><use id="use7511" width="100%" height="100%" x="0" y="0" transform="translate(50.700322,4.4116953)" xlink:href="#rect7399" style="fill:none"/><use id="use7513" width="100%" height="100%" x="0" y="0" transform="translate(45.375102,1.7143633)" xlink:href="#rect7399" style="fill:none"/><use id="use7515" width="100%" height="100%" x="0" y="0" transform="translate(53.936022,-6.3420517)" xlink:href="#rect7399" style="fill:none"/><use id="use7517" width="100%" height="100%" x="0" y="0" transform="translate(45.693362,-3.8895887)" xlink:href="#rect7399" style="fill:none"/><use id="use7519" width="100%" height="100%" x="0" y="0" transform="translate(6.2227223,2.1699073)" xlink:href="#rect7399" style="fill:none"/><use id="use7521" width="100%" height="100%" x="0" y="0" transform="translate(6.1714023,24.798813)" xlink:href="#rect7399" style="fill:none"/><use id="use7523" width="100%" height="100%" x="0" y="0" transform="translate(16.744382,3.8861273)" xlink:href="#rect7399" style="fill:none"/><use id="use7525" width="100%" height="100%" x="0" y="0" transform="translate(5.9882723,7.4498762)" xlink:href="#rect7399" style="fill:none"/><use id="use7527" width="100%" height="100%" x="0" y="0" transform="translate(34.136022,4.1062143)" xlink:href="#rect7399" style="fill:none"/><use id="use7675" width="100%" height="100%" x="0" y="0" transform="translate(108.95883,-77.138416)" xlink:href="#rect7399" style="fill:none"/><use id="use7677" width="100%" height="100%" x="0" y="0" transform="translate(102.65719,-96.198746)" xlink:href="#rect7399" style="fill:none"/><use id="use7679" width="100%" height="100%" x="0" y="0" transform="translate(103.18991,-78.314982)" xlink:href="#rect7399" style="fill:none"/><use id="use7681" width="100%" height="100%" x="0" y="0" transform="translate(107.51716,-77.726317)" xlink:href="#rect7399" style="fill:none"/><use id="use7683" width="100%" height="100%" x="0" y="0" transform="translate(-189.40701,-109.54291)" xlink:href="#rect7399"/><use id="use7685" width="100%" height="100%" x="0" y="0" transform="translate(-184.52498,-87.584916)" xlink:href="#rect7399"/><use id="use7687" width="100%" height="100%" x="0" y="0" transform="translate(-180.47375,-98.464782)" xlink:href="#rect7399"/><use id="use7689" width="100%" height="100%" x="0" y="0" transform="translate(-194.97424,-96.184724)" xlink:href="#rect7399"/><use id="use7691" width="100%" height="100%" x="0" y="0" transform="translate(-178.84017,-98.816158)" xlink:href="#rect7399"/><use id="use7693" width="100%" height="100%" x="0" y="0" transform="translate(-175.65156,-110.05787)" xlink:href="#rect7399"/><use id="use7695" width="100%" height="100%" x="0" y="0" transform="translate(-188.40081,-96.272896)" xlink:href="#rect7399"/><use id="use7697" width="100%" height="100%" x="0" y="0" transform="translate(-188.83295,-99.698348)" xlink:href="#rect7399"/><use id="use7699" width="100%" height="100%" x="0" y="0" transform="translate(-164.63409,-89.416982)" xlink:href="#rect7399"/><use id="use7701" width="100%" height="100%" x="0" y="0" transform="translate(-169.8306,-87.695945)" xlink:href="#rect7399"/><use id="use7703" width="100%" height="100%" x="0" y="0" transform="translate(-178.48957,-96.162724)" xlink:href="#rect7399"/><use id="use7705" width="100%" height="100%" x="0" y="0" transform="translate(-180.16514,-104.74174)" xlink:href="#rect7399"/><use id="use7707" width="100%" height="100%" x="0" y="0" transform="translate(-168.90299,-92.178355)" xlink:href="#rect7399"/><use id="use7709" width="100%" height="100%" x="0" y="0" transform="translate(-169.41576,-89.706828)" xlink:href="#rect7399"/><use id="use7711" width="100%" height="100%" x="0" y="0" transform="translate(-190.31985,-94.328979)" xlink:href="#rect7399"/><use id="use7713" width="100%" height="100%" x="0" y="0" transform="translate(-176.4587,-105.83333)" xlink:href="#rect7399"/><use id="use7715" width="100%" height="100%" x="0" y="0" transform="translate(-190.36889,-103.73294)" xlink:href="#rect7399"/><use id="use7717" width="100%" height="100%" x="0" y="0" transform="translate(-191.98469,-94.094167)" xlink:href="#rect7399"/><use id="use7719" width="100%" height="100%" x="0" y="0" transform="translate(-185.98682,-110.45451)" xlink:href="#rect7399"/><use id="use7721" width="100%" height="100%" x="0" y="0" transform="translate(-192.66674,-89.323234)" xlink:href="#rect7399"/><use id="use7723" width="100%" height="100%" x="0" y="0" transform="translate(-201.8856,-83.060961)" xlink:href="#rect7399"/><use id="use7725" width="100%" height="100%" x="0" y="0" transform="translate(-197.83889,-102.27257)" xlink:href="#rect7399"/><use id="use7727" width="100%" height="100%" x="0" y="0" transform="translate(-204.59253,-81.77834)" xlink:href="#rect7399"/><use id="use7729" width="100%" height="100%" x="0" y="0" transform="translate(103.29178,-83.910815)" xlink:href="#rect7399" style="fill:none"/><use id="use7731" width="100%" height="100%" x="0" y="0" transform="translate(97.065542,-83.578454)" xlink:href="#rect7399" style="fill:none"/><use id="use7733" width="100%" height="100%" x="0" y="0" transform="translate(98.261632,-90.561909)" xlink:href="#rect7399" style="fill:none"/><use id="use7735" width="100%" height="100%" x="0" y="0" transform="translate(-204.31185,-90.300805)" xlink:href="#rect7399"/><use id="use7737" width="100%" height="100%" x="0" y="0" transform="translate(-186.29916,-94.246255)" xlink:href="#rect7399"/><use id="use7739" width="100%" height="100%" x="0" y="0" transform="translate(-192.38341,-116.793)" xlink:href="#rect7399"/><use id="use7741" width="100%" height="100%" x="0" y="0" transform="translate(-201.39616,-108.38936)" xlink:href="#rect7399"/><use id="use7743" width="100%" height="100%" x="0" y="0" transform="translate(-198.49941,-95.19753)" xlink:href="#rect7399"/><use id="use7745" width="100%" height="100%" x="0" y="0" transform="translate(-182.58904,-121.54104)" xlink:href="#rect7399"/><use id="use7747" width="100%" height="100%" x="0" y="0" transform="translate(-185.55465,-102.20825)" xlink:href="#rect7399"/><use id="use7749" width="100%" height="100%" x="0" y="0" transform="translate(-141.65983,-112.10993)" xlink:href="#rect7399"/><use id="use7751" width="100%" height="100%" x="0" y="0" transform="translate(102.40824,-82.500289)" xlink:href="#rect7399" style="fill:none"/><use id="use7753" width="100%" height="100%" x="0" y="0" transform="translate(95.273922,-78.622767)" xlink:href="#rect7399" style="fill:none"/><use id="use7755" width="100%" height="100%" x="0" y="0" transform="translate(88.019802,-64.720062)" xlink:href="#rect7399" style="fill:none"/><use id="use7757" width="100%" height="100%" x="0" y="0" transform="translate(97.724052,-50.554684)" xlink:href="#rect7399" style="fill:none"/><use id="use7759" width="100%" height="100%" x="0" y="0" transform="translate(75.964582,1.0617493)" xlink:href="#rect7399" style="fill:none"/><use id="use7761" width="100%" height="100%" x="0" y="0" transform="translate(100.19318,-29.836403)" xlink:href="#rect7399" style="fill:none"/><use id="use7763" width="100%" height="100%" x="0" y="0" transform="translate(92.215932,-37.397243)" xlink:href="#rect7399" style="fill:none"/><use id="use7765" width="100%" height="100%" x="0" y="0" transform="translate(-201.16454,-93.983838)" xlink:href="#rect7399"/><use id="use7767" width="100%" height="100%" x="0" y="0" transform="translate(-192.99713,-76.647079)" xlink:href="#rect7399"/><use id="use7769" width="100%" height="100%" x="0" y="0" transform="translate(102.54503,-69.376102)" xlink:href="#rect7399" style="fill:none"/><use id="use7771" width="100%" height="100%" x="0" y="0" transform="translate(-201.68025,-66.945875)" xlink:href="#rect7399"/><use id="use7773" width="100%" height="100%" x="0" y="0" transform="translate(101.72874,-71.529591)" xlink:href="#rect7399" style="fill:none"/><use id="use7775" width="100%" height="100%" x="0" y="0" transform="translate(83.446442,-18.17492)" xlink:href="#rect7399" style="fill:none"/><use id="use7777" width="100%" height="100%" x="0" y="0" transform="translate(84.082282,-34.26385)" xlink:href="#rect7399" style="fill:none"/><use id="use7779" width="100%" height="100%" x="0" y="0" transform="translate(63.573602,25.081506)" xlink:href="#rect7399" style="fill:none"/><use id="use7781" width="100%" height="100%" x="0" y="0" transform="translate(81.793172,-14.960432)" xlink:href="#rect7399" style="fill:none"/><use id="use7783" width="100%" height="100%" x="0" y="0" transform="translate(52.161132,-57.954229)" xlink:href="#rect7399" style="fill:none"/><use id="use7785" width="100%" height="100%" x="0" y="0" transform="translate(55.473292,-30.183602)" xlink:href="#rect7399" style="fill:none"/><use id="use7787" width="100%" height="100%" x="0" y="0" transform="translate(64.050392,-26.10261)" xlink:href="#rect7399" style="fill:none"/><use id="use7789" width="100%" height="100%" x="0" y="0" transform="translate(44.804372,-45.309833)" xlink:href="#rect7399" style="fill:none"/><use id="use7791" width="100%" height="100%" x="0" y="0" transform="translate(67.665852,-41.773174)" xlink:href="#rect7399" style="fill:none"/><use id="use7793" width="100%" height="100%" x="0" y="0" transform="translate(66.862392,-33.135062)" xlink:href="#rect7399" style="fill:none"/><use id="use7795" width="100%" height="100%" x="0" y="0" transform="translate(44.932042,7.5836812)" xlink:href="#rect7399" style="fill:none"/><use id="use7797" width="100%" height="100%" x="0" y="0" transform="translate(53.711882,19.022767)" xlink:href="#rect7399" style="fill:none"/><use id="use7799" width="100%" height="100%" x="0" y="0" transform="translate(54.106182,2.0032623)" xlink:href="#rect7399" style="fill:none"/><rect style="opacity:.24800002;fill:#281700;fill-opacity:0;fill-rule:evenodd;stroke:#b50000;stroke-width:21;stroke-miterlimit:4;stroke-dasharray:none;stroke-opacity:0" id="rect7843" width="188.77" height="45.226" x="-262.611" y="295.958" ry="7.435"/><path style="fill:none;fill-rule:evenodd;stroke:#000;stroke-width:1px;stroke-linecap:butt;stroke-linejoin:miter;stroke-opacity:1" id="path7867" d="M 203.46471,99.646719 Z"/><path style="fill:none;fill-opacity:1;fill-rule:evenodd;stroke:#000;stroke-width:5;stroke-linecap:butt;stroke-linejoin:miter;stroke-miterlimit:4;stroke-dasharray:none;stroke-opacity:1" id="path7892" d="m 215.65358,106.42396 c 64.74226,20.21891 84.49536,49.0161 81.69422,77.26596 -3.38984,34.18666 -29.89134,72.02054 -82.53438,108.94"/><path style="display:inline;fill:none;fill-rule:evenodd;stroke:#000;stroke-width:1.48880172px;stroke-linecap:butt;stroke-linejoin:miter;stroke-opacity:1" id="path7873-6" d="m 224.97026,289.83951 0,0"/><path style="fill:none;fill-rule:evenodd;stroke:#000;stroke-width:5;stroke-linecap:butt;stroke-linejoin:miter;stroke-miterlimit:4;stroke-dasharray:none;stroke-opacity:1" id="path7942" d="M 152.18955,86.900744 191.03144,-5.19406 228.44137,86.714215"/><path style="fill:none;fill-rule:evenodd;stroke:#000;stroke-width:5;stroke-linecap:butt;stroke-linejoin:miter;stroke-miterlimit:4;stroke-dasharray:none;stroke-opacity:1" id="path7946" d="m 229.42325,84.283265 -22.44034,12.127007 9.30481,9.557458 0,0"/><path style="fill:none;fill-rule:evenodd;stroke:#000;stroke-width:1px;stroke-linecap:butt;stroke-linejoin:miter;stroke-opacity:1" id="path7969" d="M 57.298382,253.67222 Z"/><path style="display:inline;fill:none;fill-rule:evenodd;stroke:#000;stroke-width:5;stroke-linecap:butt;stroke-linejoin:miter;stroke-miterlimit:4;stroke-dasharray:none;stroke-opacity:1" id="path7892-8" d="m 164.64125,106.11552 c -64.742256,20.21891 -83.336668,48.55263 -80.535528,76.8025 3.38984,34.18666 29.891338,72.02053 82.534378,108.94"/><rect style="opacity:.24800002;fill:none;fill-opacity:0;fill-rule:evenodd;stroke:#b50000;stroke-width:21;stroke-miterlimit:4;stroke-dasharray:none;stroke-opacity:0" id="rect7991" width="20.319" height="22.121" x="275.399" y="258.097" ry=".41"/><rect style="opacity:.24800002;fill:none;fill-opacity:0;fill-rule:evenodd;stroke:#b50000;stroke-width:21;stroke-miterlimit:4;stroke-dasharray:none;stroke-opacity:0" id="rect8007" width="19.172" height="25.235" x="274.744" y="261.046" ry="4.834"/><rect style="fill:none;fill-rule:evenodd;stroke:#000;stroke-width:5;stroke-linecap:butt;stroke-linejoin:miter;stroke-miterlimit:4;stroke-dasharray:none;stroke-opacity:1" id="rect8009" width="205.918" height="28.597" x="85.315" y="292.859" ry="2.061"/><path style="fill:none;fill-rule:evenodd;stroke:#000;stroke-width:3;stroke-linecap:butt;stroke-linejoin:miter;stroke-miterlimit:4;stroke-dasharray:none;stroke-opacity:1" id="path8013" d="m 142.23265,113.7353 c 92.41846,0 92.41846,0 92.41846,0"/><path style="fill:none;fill-rule:evenodd;stroke:#000;stroke-width:3;stroke-linecap:butt;stroke-linejoin:miter;stroke-miterlimit:4;stroke-dasharray:none;stroke-opacity:1" id="path8015" d="m 127.46173,121.27297 124.96605,0"/><path style="fill:none;fill-rule:evenodd;stroke:#000;stroke-width:3;stroke-linecap:butt;stroke-linejoin:miter;stroke-miterlimit:4;stroke-dasharray:none;stroke-opacity:1" id="path8017" d="m 160.91298,107.1808 55.28942,-0.14839 1.73473,0.47611"/><path style="fill:none;fill-rule:evenodd;stroke:#000;stroke-width:1px;stroke-linecap:butt;stroke-linejoin:miter;stroke-opacity:1" id="path8019" d="m 83.242152,176.815 c 214.659878,0 214.659878,0 214.659878,0"/><path style="fill:none;fill-rule:evenodd;stroke:#000;stroke-width:3;stroke-linecap:butt;stroke-linejoin:miter;stroke-miterlimit:4;stroke-dasharray:none;stroke-opacity:1" id="path4313" d="m 113.08745,243.3234 c 156.42218,0 156.42218,0 156.42218,0 l 0,0"/><path style="fill:none;fill-rule:evenodd;stroke:#000;stroke-width:3;stroke-linecap:butt;stroke-linejoin:miter;stroke-miterlimit:4;stroke-dasharray:none;stroke-opacity:1" id="path4315" d="m 120.96649,252.59286 c 141.12757,0 141.35931,0 141.35931,0"/><path style="display:inline;fill:none;fill-rule:evenodd;stroke:#000;stroke-width:5;stroke-linecap:butt;stroke-linejoin:miter;stroke-miterlimit:4;stroke-dasharray:none;stroke-opacity:1" id="path7946-4" d="m 151.2063,84.597477 21.97687,12.127008 -9.30481,9.557455 0,0"/><path style="display:inline;fill:none;fill-rule:evenodd;stroke:#000;stroke-width:3;stroke-linecap:butt;stroke-linejoin:miter;stroke-miterlimit:4;stroke-dasharray:none;stroke-opacity:1" id="path7965" d="M 86.678015,302.34029 C 291.33562,301.68876 291.33562,301.68876 291.33562,301.68876"/><path style="display:inline;fill:none;fill-rule:evenodd;stroke:#000;stroke-width:3;stroke-linecap:butt;stroke-linejoin:miter;stroke-miterlimit:4;stroke-dasharray:none;stroke-opacity:1" id="path7967" d="m 289.66067,308.00955 c -202.729122,0 -200.966246,0 -202.729122,0 -1.762853,0 0,0 0,0"/></g></svg>