<svg xmlns="http://www.w3.org/2000/svg" xmlns:osb="http://www.openswatchbook.org/uri/2009/osb" xmlns:svg="http://www.w3.org/2000/svg" xmlns:xlink="http://www.w3.org/1999/xlink" id="svg2" width="353.63" height="353.63" version="1.0"><defs id="defs4"><linearGradient id="linearGradient12657"><stop style="stop-color:#daa520;stop-opacity:1" id="stop12659" offset="0"/><stop style="stop-color:#daa520;stop-opacity:0" id="stop12661" offset="1"/></linearGradient><linearGradient id="linearGradient10333" osb:paint="gradient"><stop style="stop-color:#daa520;stop-opacity:1" id="stop10335" offset="0"/><stop style="stop-color:#daa520;stop-opacity:0" id="stop10337" offset="1"/></linearGradient><linearGradient id="linearGradient3693"><stop style="stop-color:#ffff82;stop-opacity:1" id="stop3695" offset="0"/><stop style="stop-color:#ffff82;stop-opacity:0" id="stop3697" offset="1"/></linearGradient><linearGradient id="linearGradient3645"><stop style="stop-color:#ffff23;stop-opacity:.49803922" id="stop3649" offset="0"/><stop id="stop3651" offset="1" style="stop-color:#ffff23;stop-opacity:0"/></linearGradient><linearGradient id="linearGradient3635"><stop style="stop-color:#ffff23;stop-opacity:1" id="stop3637" offset="0"/><stop id="stop3643" offset=".5" style="stop-color:#ffff23;stop-opacity:.49803922"/><stop style="stop-color:#ffff23;stop-opacity:0" id="stop3639" offset="1"/></linearGradient><linearGradient id="linearGradient3721" x1="212.179" x2="145.873" y1="114.928" y2="79.565" gradientUnits="userSpaceOnUse" xlink:href="#linearGradient3693"/><linearGradient id="linearGradient12663" x1="67.828" x2="320.854" y1="223.523" y2="223.523" gradientTransform="translate(-14.4199,3.9327)" gradientUnits="userSpaceOnUse" xlink:href="#linearGradient12657"/></defs><metadata id="metadata7"/><g id="layer19" style="display:inline"><path style="fill:#fffbd6;fill-opacity:1;fill-rule:evenodd;stroke:#000;stroke-width:1px;stroke-linecap:butt;stroke-linejoin:miter;stroke-opacity:1" id="path10308" d="m 182.87055,135.03743 34.0834,18.68033 33.10022,9.50402 27.5289,12.12583 18.02488,12.78127 9.50402,13.43673 1.3109,25.89027 -1.3109,19.99123 -5.89905,19.33577 -10.4872,12.78128 -27.5289,20.64667 44.24288,-0.32772 0,19.33577 -248.087826,0.32773 0,-19.99123 43.587426,0.65545 -26.218001,-18.02487 -13.436725,-17.69715 -5.571325,-17.0417 -1.3109,-38.99928 9.1763,-16.71397 18.3526,-14.4199 23.923921,-10.81493 20.9744,-7.20995 19.99123,-5.2436 z"/></g><g id="layer18" style="display:inline"><path style="fill:url(#linearGradient12663);fill-opacity:1;fill-rule:nonzero;stroke:#000;stroke-width:1px;stroke-linecap:butt;stroke-linejoin:miter;stroke-opacity:1" id="path10308-9" d="m 182.38071,135.23479 34.0834,18.68033 33.10022,9.50402 27.5289,12.12583 18.02488,12.78127 9.50402,13.43673 1.3109,25.89027 -1.3109,19.99123 -5.89905,19.33577 -10.4872,12.78128 -27.5289,20.64667 44.24288,-0.32772 0,19.33577 -248.087829,0.32773 0,-19.99123 43.587429,0.65545 -26.217999,-18.02487 -13.43673,-17.69715 -5.57132,-17.0417 -1.3109,-38.99928 9.1763,-16.71397 18.3526,-14.4199 23.923919,-10.81493 20.9744,-7.20995 19.99123,-5.2436 z"/></g><g id="layer7" style="display:inline;opacity:1"><rect style="display:inline;fill:none;fill-rule:evenodd;stroke:#000;stroke-width:1.43576396px;stroke-linecap:butt;stroke-linejoin:miter;stroke-opacity:0" id="rect4610" width="79.564" height="144.255" x="140.631" y="154.565" ry="1.388"/><path style="display:inline;fill:none;fill-opacity:1;fill-rule:evenodd;stroke:#000;stroke-width:5;stroke-linecap:butt;stroke-linejoin:miter;stroke-miterlimit:4;stroke-dasharray:none;stroke-opacity:1" id="path7892" d="m 219.44056,154.78784 c 67.093,15.881 89.14949,38.36377 87.60998,60.68874 -1.87428,27.17972 7.36717,55.25783 -47.18729,84.25632"/><path style="display:inline;fill:none;fill-rule:evenodd;stroke:#000;stroke-width:2.13756776px;stroke-linecap:butt;stroke-linejoin:miter;stroke-opacity:1" id="path7873-6" d="m 231.71751,296.72596 0,0"/><path style="display:inline;fill:none;fill-rule:evenodd;stroke:#000;stroke-width:3;stroke-linecap:butt;stroke-linejoin:miter;stroke-miterlimit:4;stroke-dasharray:none;stroke-opacity:1" id="path7965" d="M 59.756729,309.4113 C 305.32923,308.5111 305.32923,308.5111 305.32923,308.5111"/><path style="display:inline;fill:none;fill-rule:evenodd;stroke:#000;stroke-width:1.49516487px;stroke-linecap:butt;stroke-linejoin:miter;stroke-opacity:1" id="path7967" d="m 304.83632,316.85017 c -245.004105,0 -242.873626,0 -245.004105,0 -2.130465,0 0,0 0,0"/><rect style="display:inline;fill:none;fill-opacity:1;fill-rule:evenodd;stroke:#000;stroke-width:5;stroke-linecap:butt;stroke-linejoin:miter;stroke-miterlimit:4;stroke-dasharray:none;stroke-opacity:1" id="rect8009" width="248.529" height="19.269" x="56.973" y="300.075" ry="1.388"/><path style="display:inline;fill:none;fill-rule:evenodd;stroke:#000;stroke-width:3;stroke-linecap:butt;stroke-linejoin:miter;stroke-miterlimit:4;stroke-dasharray:none;stroke-opacity:1" id="path8013" d="m 121.29966,160.97515 c 121.64504,0 121.64504,0 121.64504,0"/><path style="display:inline;fill:none;fill-rule:evenodd;stroke:#000;stroke-width:3;stroke-linecap:butt;stroke-linejoin:miter;stroke-miterlimit:4;stroke-dasharray:none;stroke-opacity:1" id="path8015" d="m 92.16244,172.61257 177.61521,0"/><path style="display:inline;fill:none;fill-rule:evenodd;stroke:#000;stroke-width:3;stroke-linecap:butt;stroke-linejoin:miter;stroke-miterlimit:4;stroke-dasharray:none;stroke-opacity:1" id="path8017" d="m 139.18413,155.96869 82.88703,-0.20181 2.60061,0.64751"/><path style="display:inline;fill:none;fill-rule:evenodd;stroke:#000;stroke-width:3;stroke-linecap:butt;stroke-linejoin:miter;stroke-miterlimit:4;stroke-dasharray:none;stroke-opacity:1" id="path4313" d="m 103.99497,166.17801 c 155.19056,0 155.19056,0 155.19056,0 l 0,0"/><path style="display:inline;fill:none;fill-rule:evenodd;stroke:#000;stroke-width:3.20112228;stroke-linecap:butt;stroke-linejoin:miter;stroke-miterlimit:4;stroke-dasharray:none;stroke-opacity:1" id="path4315" d="m 56.998144,255.65128 c 247.319876,0 247.725986,0 247.725986,0"/><path style="display:inline;fill:none;fill-opacity:1;fill-rule:evenodd;stroke:#000;stroke-width:5;stroke-linecap:butt;stroke-linejoin:miter;stroke-miterlimit:4;stroke-dasharray:none;stroke-opacity:1" id="path4412" d="m 220.68836,155.63658 c 0,0 -13.59128,-8.91022 -37.35891,-20.82541 l 0,0 0,0 0,0 -43.1307,21.39957"/><path style="display:inline;fill:none;fill-rule:evenodd;stroke:#b60000;stroke-width:1.43576396px;stroke-linecap:butt;stroke-linejoin:miter;stroke-opacity:0" id="path6071" d="m 72.362665,244.49941 c 218.310825,0 218.310825,0 218.310825,0"/><path style="display:inline;fill:none;fill-rule:evenodd;stroke:#000;stroke-width:3.03392625;stroke-linecap:butt;stroke-linejoin:miter;stroke-miterlimit:4;stroke-dasharray:none;stroke-opacity:1" id="path6083" d="m 57.695535,202.75546 c 246.989625,0.22501 246.989625,0.22501 246.989625,0.22501"/><path style="display:inline;fill:none;fill-opacity:1;fill-rule:evenodd;stroke:#000;stroke-width:5;stroke-linecap:butt;stroke-linejoin:miter;stroke-miterlimit:4;stroke-dasharray:none;stroke-opacity:1" id="path7892-4" d="m 142.4059,155.41387 c -67.093003,15.881 -89.149493,38.36377 -87.609983,60.68874 1.87428,27.17972 -7.36717,55.25783 47.187293,84.25632"/></g></svg>