<svg xmlns="http://www.w3.org/2000/svg" xmlns:svg="http://www.w3.org/2000/svg" id="svg3128" width="45" height="45" version="1.1"><g style="display:inline" id="layer1"><path style="fill:#fff;fill-opacity:1;fill-rule:evenodd;stroke:#000;stroke-width:1.5;stroke-linecap:butt;stroke-linejoin:round;stroke-miterlimit:4;stroke-dasharray:none;stroke-opacity:1" id="path4582" d="M 9,36 C 12.385,35.028 19.115,36.431 22.5,34 C 25.885,36.431 32.615,35.028 36,36 C 36,36 37.646,36.542 39,38 C 38.323,38.972 37.354,38.986 36,38.5 C 32.615,37.528 25.885,38.958 22.5,37.5 C 19.115,38.958 12.385,37.528 9,38.5 C 7.6459,38.986 6.6771,38.972 6,38 C 7.3541,36.055 9,36 9,36 z"/><path style="fill:#fff;fill-opacity:1;fill-rule:evenodd;stroke:#000;stroke-width:1.5;stroke-linecap:butt;stroke-linejoin:round;stroke-miterlimit:4;stroke-dasharray:none;stroke-opacity:1" id="path4584" d="M 15,32 C 17.5,34.5 27.5,34.5 30,32 C 30.5,30.5 30,30 30,30 C 30,27.5 27.5,26 27.5,26 C 33,24.5 33.5,14.5 22.5,10.5 C 11.5,14.5 12,24.5 17.5,26 C 17.5,26 15,27.5 15,30 C 15,30 14.5,30.5 15,32 z"/><path style="opacity:1;fill:#fff;fill-opacity:1;stroke:#000;stroke-width:1.5;stroke-linecap:butt;stroke-linejoin:round;stroke-miterlimit:4;stroke-dasharray:none;stroke-opacity:1" id="path4586" d="M 25 10 A 2.5 2.5 0 1 1 20,10 A 2.5 2.5 0 1 1 25 10 z" transform="translate(0,-2)"/><path style="fill:none;fill-opacity:.75;fill-rule:evenodd;stroke:#000;stroke-width:1.5;stroke-linecap:butt;stroke-linejoin:miter;stroke-miterlimit:4;stroke-dasharray:none;stroke-opacity:1" id="path4588" d="M 17.5,26 L 27.5,26"/><path style="fill:none;fill-opacity:.75;fill-rule:evenodd;stroke:#000;stroke-width:1.5;stroke-linecap:butt;stroke-linejoin:miter;stroke-miterlimit:4;stroke-dasharray:none;stroke-opacity:1" id="path4590" d="M 15,30 L 30,30"/><path style="fill:none;fill-opacity:.75;fill-rule:evenodd;stroke:#000;stroke-width:1.5;stroke-linecap:round;stroke-linejoin:miter;stroke-miterlimit:4;stroke-dasharray:none;stroke-opacity:1" id="path4592" d="M 22.5,15.5 L 22.5,20.5"/><path style="fill:none;fill-opacity:.75;fill-rule:evenodd;stroke:#000;stroke-width:1.5;stroke-linecap:round;stroke-linejoin:miter;stroke-miterlimit:4;stroke-dasharray:none;stroke-opacity:1" id="path4594" d="M 20,18 L 25,18"/></g></svg>