<svg xmlns="http://www.w3.org/2000/svg" xmlns:svg="http://www.w3.org/2000/svg" id="svg2" width="100%" height="100%" version="1.1" viewBox="0 -410 2048 2048"><metadata id="metadata12"/><g id="g4" transform="matrix(1 0 0 -1 0 1638)"><path id="path6" fill="#000" d="M1582 1195h-1120q-19 180 -70 360q251 -97 523 -113v14.5v16.5q0 74 -22 156q-5 28 -5 45q0 55 39.5 95t96.5 40q56 0 95.5 -40t39.5 -95q0 -17 -5 -45q-22 -82 -22 -156q0 -21 1 -31q271 16 523 113q-55 -186 -74 -360zM1578 1128q-7 -100 -7 -172q0 -24 2 -35h-1096 q0 8 -0.5 17t-0.5 18q0 92 -7 172h1109zM1575 853q0 -18 1 -35t2 -33h-1110q2 16 3 33t4 35h1100zM1587 717q9 -105 30 -204l-1189 1q25 99 36 203h1123zM1630 442q15 -62 35 -122t41 -117h-682h-683q44 119 75 239h1214z"/></g><path style="fill:none;stroke:#000;stroke-width:1px;stroke-linecap:butt;stroke-linejoin:miter;stroke-opacity:1" id="path2989" d="m 464.1241,842.23429 c 11.96196,86.12612 11.96196,88.51851 11.96196,88.51851" transform="translate(0,-410)"/><path style="fill:none;stroke:#000;stroke-width:1px;stroke-linecap:butt;stroke-linejoin:miter;stroke-opacity:1" id="path2991" d="m 478.47846,1117.3594 c 4.78478,81.3413 4.78478,81.3413 4.78478,81.3413" transform="translate(0,-410)"/><path style="fill:none;stroke:#000;stroke-width:1px;stroke-linecap:butt;stroke-linejoin:miter;stroke-opacity:1" id="path2993" d="m 473.69367,1251.3334 c -7.17717,93.3033 -7.17717,93.3033 -7.17717,93.3033" transform="translate(0,-410)"/><path style="fill:none;stroke:#000;stroke-width:1px;stroke-linecap:butt;stroke-linejoin:miter;stroke-opacity:1" id="path2995" d="m 430.63061,1526.4585 c -9.56957,86.1261 -11.96196,86.1261 -11.96196,86.1261" transform="translate(0,-410)"/><path style="fill:none;stroke:#000;stroke-width:1px;stroke-linecap:butt;stroke-linejoin:miter;stroke-opacity:1" id="path2997" d="m 1576.5865,847.01907 c -7.1772,78.94895 -7.1772,78.94895 -7.1772,78.94895" transform="translate(0,-410)"/><path style="fill:none;stroke:#000;stroke-width:1px;stroke-linecap:butt;stroke-linejoin:miter;stroke-opacity:1" id="path2999" d="m 1564.6246,1119.7518 c 4.7847,86.1261 4.7847,86.1261 4.7847,86.1261" transform="translate(0,-410)"/><path style="fill:none;stroke:#000;stroke-width:1px;stroke-linecap:butt;stroke-linejoin:miter;stroke-opacity:1" id="path3001" d="m 1571.8017,1258.5105 c 7.1772,76.5566 7.1772,78.949 7.1772,78.949" transform="translate(0,-410)"/><path style="fill:none;stroke:#000;stroke-width:1px;stroke-linecap:butt;stroke-linejoin:miter;stroke-opacity:1" id="path3003" d="m 1610.08,1531.2433 c 14.3544,83.7337 14.3544,83.7337 14.3544,83.7337" transform="translate(0,-410)"/><path style="fill:#ececec;fill-opacity:1;fill-rule:nonzero;stroke-linecap:butt;stroke-linejoin:round" id="path3005" d="m 475.10655,908.80631 c -0.80091,-4.93431 -2.8824,-19.46809 -4.62554,-32.29729 l -3.16935,-23.32583 553.77754,0 553.7774,0 -1.4187,11.36386 c -0.7804,6.25013 -2.1437,20.78391 -3.0296,32.2973 l -1.6109,20.93343 -546.1223,0 -546.12236,0 -1.45619,-8.97147 z" transform="translate(0,-410)"/><path style="fill:#ececec;fill-opacity:1;fill-rule:nonzero;stroke-linecap:butt;stroke-linejoin:round" id="path3007" d="m 484.63765,1189.9124 c -0.50815,-1.6448 -1.58123,-16.1785 -2.38462,-32.2973 l -1.4607,-29.3068 541.94417,0 541.9442,0 0.017,16.1487 c 0.01,8.8817 0.7033,23.4155 1.5421,32.2972 l 1.5252,16.1487 -541.1017,0 c -430.79341,0 -541.28978,-0.6096 -542.02535,-2.9905 z" transform="translate(0,-410)"/><path style="fill:#ececec;fill-opacity:1;fill-rule:nonzero;stroke-linecap:butt;stroke-linejoin:round" id="path3009" d="m 469.86934,1320.2978 c 0.7287,-4.9343 2.02793,-19.4681 2.88718,-32.2973 l 1.56226,-23.3258 548.44172,0 548.4418,0 1.6524,23.3258 c 0.9088,12.8292 2.2704,27.363 3.0259,32.2973 l 1.3736,8.9715 -554.3549,0 -554.35488,0 1.32492,-8.9715 z" transform="translate(0,-410)"/><path style="fill:#ececec;fill-opacity:1;fill-rule:nonzero;stroke-linecap:butt;stroke-linejoin:round" id="path3011" d="m 424.43238,1590.6381 c 0.86989,-7.5659 2.77382,-23.1763 4.23096,-34.6897 l 2.64936,-20.9334 588.8658,0 588.8657,0 5.3768,31.6992 c 2.9572,17.4345 5.356,33.0449 5.3307,34.6897 -0.037,2.3843 -121.351,2.9905 -598.4735,2.9905 l -598.42744,0 1.58162,-13.7563 z" transform="translate(0,-410)"/></svg>