<svg xmlns="http://www.w3.org/2000/svg" xmlns:svg="http://www.w3.org/2000/svg" id="svg2" width="100%" height="100%" version="1.1" viewBox="0 -410 2048 2048"><metadata id="metadata12"/><g id="g4" transform="matrix(1 0 0 -1 0 1638)"><path id="path6" fill="#000" d="M1218 1160h-386l31 74q-77 67 -77 174q0 98 69.5 168t168.5 70q98 0 168 -70t70 -168q0 -103 -76 -174zM1521 442l103 -240l-1201 1l103 239h995zM1276 1024h-503l30 68h445zM555 513l190 443h556l192 -442z"/></g><path style="fill:none;stroke:#000;stroke-width:1px;stroke-linecap:butt;stroke-linejoin:miter;stroke-opacity:1" id="path2989" d="m 839.72969,878.85254 c -34.27468,83.78255 -34.27468,83.78255 -34.27468,83.78255" transform="translate(0,-410)"/><path style="fill:none;stroke:#000;stroke-width:1px;stroke-linecap:butt;stroke-linejoin:miter;stroke-opacity:1" id="path2991" d="m 780.70107,1017.8554 c -34.27468,81.8784 -34.27468,81.8784 -34.27468,81.8784" transform="translate(0,-410)"/><path style="fill:none;stroke:#000;stroke-width:1px;stroke-linecap:butt;stroke-linejoin:miter;stroke-opacity:1" id="path2993" d="m 561.72394,1528.1673 c -34.27468,83.7826 -34.27468,83.7826 -34.27468,83.7826" transform="translate(0,-410)"/><path style="fill:none;stroke:#000;stroke-width:1px;stroke-linecap:butt;stroke-linejoin:miter;stroke-opacity:1" id="path2995" d="m 1517.6067,1611.9499 c -32.3705,-87.5909 -32.3705,-87.5909 -32.3705,-87.5909" transform="translate(0,-410)"/><path style="fill:none;stroke:#000;stroke-width:1px;stroke-linecap:butt;stroke-linejoin:miter;stroke-opacity:1" id="path2997" d="m 1268.1632,1019.7596 c 32.3705,79.9742 32.3705,79.9742 32.3705,79.9742" transform="translate(0,-410)"/><path style="fill:none;stroke:#000;stroke-width:1px;stroke-linecap:butt;stroke-linejoin:miter;stroke-opacity:1" id="path2999" d="m 1211.0387,884.56498 c 36.1789,79.97426 36.1789,78.07011 36.1789,78.07011" transform="translate(0,-410)"/><path style="fill:#ececec;fill-opacity:1;fill-rule:nonzero;stroke-linecap:butt;stroke-linejoin:round" id="path3001" d="m 811.3206,952.30879 c 1.84387,-4.42091 24.54987,-59.48428 25.52274,-61.89414 0.76639,-1.8984 39.34388,-2.28974 187.70656,-1.90415 l 186.7418,0.48534 14.8907,32.26845 c 8.1898,17.74765 14.8906,32.5286 14.8906,32.84657 0,0.31796 -96.9177,0.57812 -215.3726,0.57812 -171.55804,0 -215.17057,-0.48422 -214.3798,-2.38019 z" transform="translate(0,-410)"/><path style="fill:#ececec;fill-opacity:1;fill-rule:nonzero;stroke-linecap:butt;stroke-linejoin:round" id="path3003" d="m 754.2168,1085.5992 c 1.40866,-3.4036 7.60595,-18.3988 13.77176,-33.3226 l 11.21055,-27.1341 244.74199,0.014 244.742,0.014 12.8755,31.8808 c 7.0815,17.5345 12.8654,32.5235 12.853,33.309 -0.011,0.7855 -122.1375,1.4281 -271.3892,1.4281 l -271.36681,0 2.56121,-6.1885 z" transform="translate(0,-410)"/><path style="fill:#ececec;fill-opacity:1;fill-rule:nonzero;stroke-linecap:butt;stroke-linejoin:round" id="path3005" d="m 533.06598,1603.4434 c 0.33862,-1.3554 6.61373,-17.2013 13.9447,-35.2131 l 13.32905,-32.7486 463.72767,-0.014 463.7277,-0.014 12.3096,33.5828 c 6.7702,18.4705 12.5951,34.3226 12.9442,35.2267 0.3552,0.92 -215.4458,1.644 -489.9819,1.644 -400.49107,0 -490.50358,-0.4527 -490.00102,-2.4645 z" transform="translate(0,-410)"/></svg>