<svg xmlns="http://www.w3.org/2000/svg" xmlns:svg="http://www.w3.org/2000/svg" id="svg2" width="100%" height="100%" version="1.1" viewBox="0 -410 2048 2048"><metadata id="metadata12"/><g id="g4" transform="matrix(1 0 0 -1 0 1638)"><path id="path6" fill="#000" d="M1024 203h-683q135 360 135 753q0 308 -84 599q251 -97 523 -113v14.5v16.5q0 74 -22 156q-5 28 -5 45q0 55 39.5 95t96.5 40q56 0 95.5 -40t39.5 -95q0 -17 -5 -45q-22 -82 -22 -156q0 -21 1 -31q271 16 523 113q-85 -294 -85 -599q0 -389 135 -753h-682zM1513 1195 q13 131 42 257q-237 -71 -485 -78q-5 61 -5 99q0 72 21 165q6 32 6 36q0 68 -68 68t-68 -68q0 -12 6 -36q21 -93 21 -165q0 -15 -2 -43.5t-2 -55.5q-250 7 -487 78q30 -134 43 -257h978zM544 1128q3 -43 3.5 -86.5t0.5 -85.5v-18v-17h953q-1 12 -1 35q0 92 7 172h-963z M1503 852l-957 1q-2 -36 -6 -68h968q-5 36 -5 67zM535 717q-10 -95 -34 -204h1044q-20 88 -33 204h-977zM1561 442h-1072q-10 -43 -23 -85t-25 -83h583h583q-25 73 -46 168z"/></g><path style="fill:#f9f9f9;fill-opacity:1;fill-rule:nonzero;stroke-linecap:butt;stroke-linejoin:round" id="path2989" d="m 533.31033,804.01356 c -3.18286,-22.67119 -12.59515,-77.53389 -20.91619,-121.9171 -11.30698,-60.30973 -12.43001,-79.66101 -4.44524,-76.59696 57.75256,22.16173 266.7037,57.66791 413.21523,70.2159 l 57.7065,4.94228 5.78019,-50.05088 c 5.11014,-44.24884 0.79603,-97.82305 -18.13896,-225.25552 -2.97124,-19.99647 -2.99071,-45.96557 -0.0434,-57.70912 11.6281,-46.33003 103.45293,-46.25728 115.08573,0.0912 2.96,11.7937 2.6625,39.71534 -0.6612,62.04809 -18.9886,127.59014 -22.1304,167.37429 -17.0817,216.30078 l 5.5932,54.20424 61.9079,-4.85348 c 105.5595,-8.27569 240.4141,-28.9042 328.7554,-50.28918 50.7853,-12.29372 84.6102,-16.89758 84.6102,-11.51618 0,4.93108 -5.5875,40.5106 -12.4166,79.0656 -6.8291,38.555 -14.8785,88.64915 -17.8876,111.32034 l -5.4712,41.22034 -484.9026,0 -484.90265,0 -5.78702,-41.22034 z" transform="translate(0,-410)"/><path style="fill:#f9f9f9;fill-opacity:1;fill-rule:nonzero;stroke-linecap:butt;stroke-linejoin:round" id="path2991" d="m 555.3144,1068.6915 c -0.0415,-29.8305 -2.53797,-74.73896 -5.54774,-99.79658 l -5.47232,-45.55933 478.49686,0 478.4969,0 -0.078,54.23729 c -0.043,29.83052 -2.5379,74.73902 -5.5477,99.79662 l -5.4696,45.5593 -467.4015,0 -467.40137,0 -0.0754,-54.2373 z" transform="translate(0,-410)"/><path style="fill:#f9f9f9;fill-opacity:1;fill-rule:nonzero;stroke-linecap:butt;stroke-linejoin:round" id="path2993" d="m 546.71186,1231.4034 0,-30.3729 477.28814,0 477.2881,0 0,30.3729 0,30.3729 -477.2881,0 -477.28814,0 0,-30.3729 z" transform="translate(0,-410)"/><path style="fill:#f9f9f9;fill-opacity:1;fill-rule:nonzero;stroke-linecap:butt;stroke-linejoin:round" id="path2995" d="m 516.545,1476.5559 c 6.10701,-29.8305 13.80678,-74.739 17.1106,-99.7966 l 6.00694,-45.5593 483.79986,0 483.7999,0 9.8661,67.2542 c 5.4263,36.9899 12.4033,81.8983 15.5043,99.7966 l 5.6382,32.5424 -516.4148,0 -516.41476,0 11.10366,-54.2373 z" transform="translate(0,-410)"/><path style="fill:#f9f9f9;fill-opacity:1;fill-rule:nonzero;stroke-linecap:butt;stroke-linejoin:round" id="path2997" d="m 451.59142,1762.9288 c 0.18546,-5.9661 9.51191,-42.0881 20.72545,-80.2712 l 20.38827,-69.4237 532.83886,-2.235 532.8389,-2.235 15.6281,62.9808 c 8.5954,34.6394 17.6824,71.7672 20.1931,82.5061 l 4.5649,19.5255 -573.7573,0 c -453.4005,0 -573.68673,-2.2755 -573.42028,-10.8475 z" transform="translate(0,-410)"/></svg>