<svg xmlns="http://www.w3.org/2000/svg" xmlns:svg="http://www.w3.org/2000/svg" id="svg2" width="100%" height="100%" version="1.1" viewBox="0 -410 2048 2048"><metadata id="metadata12"/><g id="g4" transform="matrix(1 0 0 -1 0 1638)"><path id="path6" fill="#000" d="M1024 274h456q-29 82 -51 168h-808q-12 -44 -26 -86t-28 -82h457zM637 513h778q-9 37 -17 75t-13 77h-720q-14 -87 -28 -152zM672 734l705 -1q-4 23 -5 70h-695q-1 -23 -5 -69zM1367 871q-2 28 -2 85q0 45 1 68h-685q2 -46 2 -68q0 -29 -2 -85h686zM1138 1331h330 q-35 -185 -35 -375q0 -396 149 -753h-558h-558q149 361 149 753q0 190 -35 375h330q-11 51 -17 73q-5 28 -5 45q0 55 39.5 95t96.5 40q56 0 95.5 -40t39.5 -95q0 -17 -5 -45q-12 -46 -16 -73zM1065 1263q1 64 21 150q6 30 6 36q0 67 -68 67t-68 -67q0 -14 6 -36 q18 -79 21 -150h-324q13 -84 18 -171h695q3 43 6.5 86t9.5 85h-323z"/></g><path style="fill:#f9f9f9;fill-opacity:1;fill-rule:nonzero;stroke-linecap:butt;stroke-linejoin:round" id="path2989" d="m 598.50594,1694.3729 23.66864,-75.9322 402.67542,-2.2297 402.6754,-2.2296 22.8327,78.1618 22.8327,78.1619 -449.1767,0 -449.17679,0 23.66863,-75.9322 z" transform="translate(0,-410)"/><path style="fill:#f9f9f9;fill-opacity:1;fill-rule:nonzero;stroke-linecap:butt;stroke-linejoin:round" id="path2991" d="m 646.00155,1507.7966 c 2.28949,-10.739 8.49838,-41.9797 13.79753,-69.4237 l 9.63481,-49.8983 355.01601,0 355.016,0 5.0052,23.8644 c 2.7529,13.1254 8.6849,40.2377 13.1823,60.2495 4.4974,20.0119 8.1771,40.5136 8.1771,45.5594 0,6.3079 -119.3432,9.1741 -381.9958,9.1741 l -381.99587,0 4.16272,-19.5254 z" transform="translate(0,-410)"/><path style="fill:#f9f9f9;fill-opacity:1;fill-rule:nonzero;stroke-linecap:butt;stroke-linejoin:round" id="path2993" d="m 676.88136,1280 0,-30.3729 347.11864,0 347.1186,0 0,30.3729 0,30.3729 -347.1186,0 -347.11864,0 0,-30.3729 z" transform="translate(0,-410)"/><path style="fill:#f9f9f9;fill-opacity:1;fill-rule:nonzero;stroke-linecap:butt;stroke-linejoin:round" id="path2995" d="m 685.55932,1097.7627 0,-73.7627 338.44068,0 338.4407,0 0,73.7627 0,73.7627 -338.4407,0 -338.44068,0 0,-73.7627 z" transform="translate(0,-410)"/><path style="fill:#f9f9f9;fill-opacity:1;fill-rule:nonzero;stroke-linecap:butt;stroke-linejoin:round" id="path2997" d="m 676.81966,930.71186 c -0.0339,-13.12542 -2.55116,-50.22372 -5.59385,-82.44067 l -5.53217,-58.57627 162.09614,0 162.09615,0 -5.5703,-45.55933 c -3.06365,-25.05762 -8.96032,-61.17966 -13.10369,-80.27118 -13.47726,-62.09941 -9.91235,-97.44338 11.32913,-112.32149 24.62053,-17.24492 58.29733,-17.24492 82.91783,0 21.2415,14.87811 24.8064,50.22208 11.3292,112.32149 -4.1434,19.09152 -10.0401,55.21356 -13.1037,80.27118 l -5.5703,45.55933 162.0775,0 162.0775,0 -5.5752,53.34077 c -3.0664,29.33743 -5.5753,66.43573 -5.5753,82.44068 l 0,29.0999 -347.1186,0 -347.11864,0 -0.0617,-23.86441 z" transform="translate(0,-410)"/></svg>